%TF.GenerationSoftware,KiCad,Pcbnew,(5.1.4)-1*%
%TF.CreationDate,2025-07-31T00:35:10+02:00*%
%TF.ProjectId,UP25,55503235-2e6b-4696-9361-645f70636258,1*%
%TF.SameCoordinates,Original*%
%TF.FileFunction,Legend,Top*%
%TF.FilePolarity,Positive*%
%FSLAX46Y46*%
G04 Gerber Fmt 4.6, Leading zero omitted, Abs format (unit mm)*
G04 Created by KiCad (PCBNEW (5.1.4)-1) date 2025-07-31 00:35:10*
%MOMM*%
%LPD*%
G04 APERTURE LIST*
%ADD10C,0.304800*%
%ADD11C,0.038100*%
G04 APERTURE END LIST*
D10*
X92229857Y-123507000D02*
X92084714Y-123434428D01*
X91867000Y-123434428D01*
X91649285Y-123507000D01*
X91504142Y-123652142D01*
X91431571Y-123797285D01*
X91359000Y-124087571D01*
X91359000Y-124305285D01*
X91431571Y-124595571D01*
X91504142Y-124740714D01*
X91649285Y-124885857D01*
X91867000Y-124958428D01*
X92012142Y-124958428D01*
X92229857Y-124885857D01*
X92302428Y-124813285D01*
X92302428Y-124305285D01*
X92012142Y-124305285D01*
X92955571Y-124958428D02*
X92955571Y-123434428D01*
X93826428Y-124958428D01*
X93826428Y-123434428D01*
X94552142Y-124958428D02*
X94552142Y-123434428D01*
X94915000Y-123434428D01*
X95132714Y-123507000D01*
X95277857Y-123652142D01*
X95350428Y-123797285D01*
X95423000Y-124087571D01*
X95423000Y-124305285D01*
X95350428Y-124595571D01*
X95277857Y-124740714D01*
X95132714Y-124885857D01*
X94915000Y-124958428D01*
X94552142Y-124958428D01*
X81199000Y-123307428D02*
X81707000Y-124831428D01*
X82215000Y-123307428D01*
X83593857Y-124686285D02*
X83521285Y-124758857D01*
X83303571Y-124831428D01*
X83158428Y-124831428D01*
X82940714Y-124758857D01*
X82795571Y-124613714D01*
X82723000Y-124468571D01*
X82650428Y-124178285D01*
X82650428Y-123960571D01*
X82723000Y-123670285D01*
X82795571Y-123525142D01*
X82940714Y-123380000D01*
X83158428Y-123307428D01*
X83303571Y-123307428D01*
X83521285Y-123380000D01*
X83593857Y-123452571D01*
X85117857Y-124686285D02*
X85045285Y-124758857D01*
X84827571Y-124831428D01*
X84682428Y-124831428D01*
X84464714Y-124758857D01*
X84319571Y-124613714D01*
X84247000Y-124468571D01*
X84174428Y-124178285D01*
X84174428Y-123960571D01*
X84247000Y-123670285D01*
X84319571Y-123525142D01*
X84464714Y-123380000D01*
X84682428Y-123307428D01*
X84827571Y-123307428D01*
X85045285Y-123380000D01*
X85117857Y-123452571D01*
D11*
X45760000Y-54640000D02*
G75*
G02X50400000Y-50000000I4640000J0D01*
G01*
X93570000Y-50000000D02*
G75*
G02X98210000Y-54640000I0J-4640000D01*
G01*
X98220000Y-130190000D02*
G75*
G02X93580000Y-134830000I-4640000J0D01*
G01*
X50390000Y-134830000D02*
G75*
G02X45750000Y-130190000I0J4640000D01*
G01*
X45760000Y-54640000D02*
X45750000Y-130190000D01*
X93570000Y-50000000D02*
X50400000Y-50000000D01*
X98220000Y-130190000D02*
X98210000Y-54640000D01*
X50390000Y-134830000D02*
X93580000Y-134830000D01*
M02*
