%TF.GenerationSoftware,KiCad,Pcbnew,(5.1.2)-2*%
%TF.CreationDate,2019-08-12T12:17:33+02:00*%
%TF.ProjectId,badge,62616467-652e-46b6-9963-61645f706362,1*%
%TF.SameCoordinates,Original*%
%TF.FileFunction,Legend,Top*%
%TF.FilePolarity,Positive*%
%FSLAX46Y46*%
G04 Gerber Fmt 4.6, Leading zero omitted, Abs format (unit mm)*
G04 Created by KiCad (PCBNEW (5.1.2)-2) date 2019-08-12 12:17:33*
%MOMM*%
%LPD*%
G04 APERTURE LIST*
%ADD10C,0.304800*%
%ADD11C,0.038100*%
%ADD12C,0.010000*%
G04 APERTURE END LIST*
D10*
X92229857Y-123507000D02*
X92084714Y-123434428D01*
X91867000Y-123434428D01*
X91649285Y-123507000D01*
X91504142Y-123652142D01*
X91431571Y-123797285D01*
X91359000Y-124087571D01*
X91359000Y-124305285D01*
X91431571Y-124595571D01*
X91504142Y-124740714D01*
X91649285Y-124885857D01*
X91867000Y-124958428D01*
X92012142Y-124958428D01*
X92229857Y-124885857D01*
X92302428Y-124813285D01*
X92302428Y-124305285D01*
X92012142Y-124305285D01*
X92955571Y-124958428D02*
X92955571Y-123434428D01*
X93826428Y-124958428D01*
X93826428Y-123434428D01*
X94552142Y-124958428D02*
X94552142Y-123434428D01*
X94915000Y-123434428D01*
X95132714Y-123507000D01*
X95277857Y-123652142D01*
X95350428Y-123797285D01*
X95423000Y-124087571D01*
X95423000Y-124305285D01*
X95350428Y-124595571D01*
X95277857Y-124740714D01*
X95132714Y-124885857D01*
X94915000Y-124958428D01*
X94552142Y-124958428D01*
X81199000Y-123307428D02*
X81707000Y-124831428D01*
X82215000Y-123307428D01*
X83593857Y-124686285D02*
X83521285Y-124758857D01*
X83303571Y-124831428D01*
X83158428Y-124831428D01*
X82940714Y-124758857D01*
X82795571Y-124613714D01*
X82723000Y-124468571D01*
X82650428Y-124178285D01*
X82650428Y-123960571D01*
X82723000Y-123670285D01*
X82795571Y-123525142D01*
X82940714Y-123380000D01*
X83158428Y-123307428D01*
X83303571Y-123307428D01*
X83521285Y-123380000D01*
X83593857Y-123452571D01*
X85117857Y-124686285D02*
X85045285Y-124758857D01*
X84827571Y-124831428D01*
X84682428Y-124831428D01*
X84464714Y-124758857D01*
X84319571Y-124613714D01*
X84247000Y-124468571D01*
X84174428Y-124178285D01*
X84174428Y-123960571D01*
X84247000Y-123670285D01*
X84319571Y-123525142D01*
X84464714Y-123380000D01*
X84682428Y-123307428D01*
X84827571Y-123307428D01*
X85045285Y-123380000D01*
X85117857Y-123452571D01*
D11*
X45760000Y-54640000D02*
G75*
G02X50400000Y-50000000I4640000J0D01*
G01*
X93570000Y-50000000D02*
G75*
G02X98210000Y-54640000I0J-4640000D01*
G01*
X98220000Y-130190000D02*
G75*
G02X93580000Y-134830000I-4640000J0D01*
G01*
X50390000Y-134830000D02*
G75*
G02X45750000Y-130190000I0J4640000D01*
G01*
X45760000Y-54640000D02*
X45750000Y-130190000D01*
X93570000Y-50000000D02*
X50400000Y-50000000D01*
X98220000Y-130190000D02*
X98210000Y-54640000D01*
X50390000Y-134830000D02*
X93580000Y-134830000D01*
D12*
G36*
X91368066Y-95247868D02*
G01*
X91395351Y-95251297D01*
X91517895Y-95267835D01*
X91517895Y-100827895D01*
X90894943Y-100827895D01*
X90883349Y-98811492D01*
X90871755Y-96795088D01*
X90214474Y-96782757D01*
X89557193Y-96770425D01*
X89557193Y-96339501D01*
X89852674Y-96309228D01*
X90213861Y-96237027D01*
X90519092Y-96102418D01*
X90763363Y-95909289D01*
X90941667Y-95661528D01*
X91044404Y-95383353D01*
X91095198Y-95289094D01*
X91198972Y-95245480D01*
X91368066Y-95247868D01*
X91368066Y-95247868D01*
G37*
X91368066Y-95247868D02*
X91395351Y-95251297D01*
X91517895Y-95267835D01*
X91517895Y-100827895D01*
X90894943Y-100827895D01*
X90883349Y-98811492D01*
X90871755Y-96795088D01*
X90214474Y-96782757D01*
X89557193Y-96770425D01*
X89557193Y-96339501D01*
X89852674Y-96309228D01*
X90213861Y-96237027D01*
X90519092Y-96102418D01*
X90763363Y-95909289D01*
X90941667Y-95661528D01*
X91044404Y-95383353D01*
X91095198Y-95289094D01*
X91198972Y-95245480D01*
X91368066Y-95247868D01*
G36*
X84568662Y-96460565D02*
G01*
X84779357Y-96831604D01*
X84965078Y-97152105D01*
X85122665Y-97416899D01*
X85248959Y-97620813D01*
X85340800Y-97758676D01*
X85395030Y-97825316D01*
X85405800Y-97830828D01*
X85436268Y-97792055D01*
X85504284Y-97686381D01*
X85603626Y-97524542D01*
X85728070Y-97317271D01*
X85871393Y-97075301D01*
X86027373Y-96809367D01*
X86189786Y-96530200D01*
X86352408Y-96248537D01*
X86509018Y-95975109D01*
X86653392Y-95720651D01*
X86779306Y-95495896D01*
X86880539Y-95311579D01*
X86950866Y-95178432D01*
X86982675Y-95111007D01*
X87030165Y-95096578D01*
X87145546Y-95088136D01*
X87307720Y-95086848D01*
X87384829Y-95088726D01*
X87773486Y-95101755D01*
X85726556Y-98488421D01*
X85724912Y-100827895D01*
X85056491Y-100827895D01*
X85056491Y-98498353D01*
X84024698Y-96822335D01*
X83809356Y-96472449D01*
X83608441Y-96145828D01*
X83426772Y-95850319D01*
X83269168Y-95593770D01*
X83140449Y-95384028D01*
X83045433Y-95228940D01*
X82988939Y-95136354D01*
X82974875Y-95112895D01*
X83008038Y-95098501D01*
X83111923Y-95087217D01*
X83268146Y-95080584D01*
X83374015Y-95079474D01*
X83791184Y-95079474D01*
X84568662Y-96460565D01*
X84568662Y-96460565D01*
G37*
X84568662Y-96460565D02*
X84779357Y-96831604D01*
X84965078Y-97152105D01*
X85122665Y-97416899D01*
X85248959Y-97620813D01*
X85340800Y-97758676D01*
X85395030Y-97825316D01*
X85405800Y-97830828D01*
X85436268Y-97792055D01*
X85504284Y-97686381D01*
X85603626Y-97524542D01*
X85728070Y-97317271D01*
X85871393Y-97075301D01*
X86027373Y-96809367D01*
X86189786Y-96530200D01*
X86352408Y-96248537D01*
X86509018Y-95975109D01*
X86653392Y-95720651D01*
X86779306Y-95495896D01*
X86880539Y-95311579D01*
X86950866Y-95178432D01*
X86982675Y-95111007D01*
X87030165Y-95096578D01*
X87145546Y-95088136D01*
X87307720Y-95086848D01*
X87384829Y-95088726D01*
X87773486Y-95101755D01*
X85726556Y-98488421D01*
X85724912Y-100827895D01*
X85056491Y-100827895D01*
X85056491Y-98498353D01*
X84024698Y-96822335D01*
X83809356Y-96472449D01*
X83608441Y-96145828D01*
X83426772Y-95850319D01*
X83269168Y-95593770D01*
X83140449Y-95384028D01*
X83045433Y-95228940D01*
X82988939Y-95136354D01*
X82974875Y-95112895D01*
X83008038Y-95098501D01*
X83111923Y-95087217D01*
X83268146Y-95080584D01*
X83374015Y-95079474D01*
X83791184Y-95079474D01*
X84568662Y-96460565D01*
G36*
X82739298Y-95656964D02*
G01*
X81814649Y-95669009D01*
X80890000Y-95681053D01*
X80878498Y-98254474D01*
X80866995Y-100827895D01*
X80199298Y-100827895D01*
X80199298Y-95658772D01*
X79274649Y-95658866D01*
X78350000Y-95658959D01*
X78364943Y-95369217D01*
X78379885Y-95079474D01*
X82739298Y-95079474D01*
X82739298Y-95656964D01*
X82739298Y-95656964D01*
G37*
X82739298Y-95656964D02*
X81814649Y-95669009D01*
X80890000Y-95681053D01*
X80878498Y-98254474D01*
X80866995Y-100827895D01*
X80199298Y-100827895D01*
X80199298Y-95658772D01*
X79274649Y-95658866D01*
X78350000Y-95658959D01*
X78364943Y-95369217D01*
X78379885Y-95079474D01*
X82739298Y-95079474D01*
X82739298Y-95656964D01*
G36*
X75233977Y-95081121D02*
G01*
X75592795Y-95085833D01*
X75908592Y-95093265D01*
X76169760Y-95103072D01*
X76364692Y-95114911D01*
X76479586Y-95128022D01*
X76838053Y-95230137D01*
X77130781Y-95392108D01*
X77358230Y-95614489D01*
X77520862Y-95897834D01*
X77619137Y-96242696D01*
X77650534Y-96534247D01*
X77637369Y-96920932D01*
X77558164Y-97249130D01*
X77411624Y-97521599D01*
X77196455Y-97741096D01*
X77033450Y-97848753D01*
X76927792Y-97915514D01*
X76864869Y-97969520D01*
X76857193Y-97984532D01*
X76894648Y-98021960D01*
X76988822Y-98072627D01*
X77035605Y-98092635D01*
X77167415Y-98155486D01*
X77273172Y-98234220D01*
X77356720Y-98339498D01*
X77421905Y-98481984D01*
X77472570Y-98672338D01*
X77512561Y-98921225D01*
X77545722Y-99239306D01*
X77571977Y-99580176D01*
X77596855Y-99907234D01*
X77621932Y-100158954D01*
X77649937Y-100349087D01*
X77683600Y-100491383D01*
X77725650Y-100599590D01*
X77778816Y-100687459D01*
X77796368Y-100710674D01*
X77888574Y-100827895D01*
X77041757Y-100827895D01*
X76994982Y-100593948D01*
X76974756Y-100463774D01*
X76951572Y-100268225D01*
X76927917Y-100030878D01*
X76906276Y-99775315D01*
X76900420Y-99696846D01*
X76867623Y-99324315D01*
X76825941Y-99030447D01*
X76770650Y-98804884D01*
X76697024Y-98637263D01*
X76600341Y-98517224D01*
X76475875Y-98434407D01*
X76318904Y-98378449D01*
X76296727Y-98372818D01*
X76192092Y-98356982D01*
X76019169Y-98341581D01*
X75795313Y-98327196D01*
X75537880Y-98314409D01*
X75264226Y-98303801D01*
X74991707Y-98295953D01*
X74737679Y-98291447D01*
X74519499Y-98290865D01*
X74354523Y-98294787D01*
X74260106Y-98303794D01*
X74257110Y-98304498D01*
X74138947Y-98334155D01*
X74138947Y-100827895D01*
X73470526Y-100827895D01*
X73470526Y-97760356D01*
X74137317Y-97760356D01*
X75174185Y-97745546D01*
X75510507Y-97740119D01*
X75770630Y-97733911D01*
X75967475Y-97725798D01*
X76113965Y-97714657D01*
X76223023Y-97699363D01*
X76307571Y-97678795D01*
X76380531Y-97651827D01*
X76411579Y-97637976D01*
X76652180Y-97480572D01*
X76830492Y-97264367D01*
X76942181Y-96998266D01*
X76982916Y-96691175D01*
X76971141Y-96488089D01*
X76926172Y-96266596D01*
X76847032Y-96083019D01*
X76726897Y-95934575D01*
X76558941Y-95818482D01*
X76336341Y-95731959D01*
X76052273Y-95672222D01*
X75699910Y-95636491D01*
X75272430Y-95621981D01*
X74851930Y-95624130D01*
X74161228Y-95636492D01*
X74149273Y-96698424D01*
X74137317Y-97760356D01*
X73470526Y-97760356D01*
X73470526Y-95079474D01*
X74843746Y-95079474D01*
X75233977Y-95081121D01*
X75233977Y-95081121D01*
G37*
X75233977Y-95081121D02*
X75592795Y-95085833D01*
X75908592Y-95093265D01*
X76169760Y-95103072D01*
X76364692Y-95114911D01*
X76479586Y-95128022D01*
X76838053Y-95230137D01*
X77130781Y-95392108D01*
X77358230Y-95614489D01*
X77520862Y-95897834D01*
X77619137Y-96242696D01*
X77650534Y-96534247D01*
X77637369Y-96920932D01*
X77558164Y-97249130D01*
X77411624Y-97521599D01*
X77196455Y-97741096D01*
X77033450Y-97848753D01*
X76927792Y-97915514D01*
X76864869Y-97969520D01*
X76857193Y-97984532D01*
X76894648Y-98021960D01*
X76988822Y-98072627D01*
X77035605Y-98092635D01*
X77167415Y-98155486D01*
X77273172Y-98234220D01*
X77356720Y-98339498D01*
X77421905Y-98481984D01*
X77472570Y-98672338D01*
X77512561Y-98921225D01*
X77545722Y-99239306D01*
X77571977Y-99580176D01*
X77596855Y-99907234D01*
X77621932Y-100158954D01*
X77649937Y-100349087D01*
X77683600Y-100491383D01*
X77725650Y-100599590D01*
X77778816Y-100687459D01*
X77796368Y-100710674D01*
X77888574Y-100827895D01*
X77041757Y-100827895D01*
X76994982Y-100593948D01*
X76974756Y-100463774D01*
X76951572Y-100268225D01*
X76927917Y-100030878D01*
X76906276Y-99775315D01*
X76900420Y-99696846D01*
X76867623Y-99324315D01*
X76825941Y-99030447D01*
X76770650Y-98804884D01*
X76697024Y-98637263D01*
X76600341Y-98517224D01*
X76475875Y-98434407D01*
X76318904Y-98378449D01*
X76296727Y-98372818D01*
X76192092Y-98356982D01*
X76019169Y-98341581D01*
X75795313Y-98327196D01*
X75537880Y-98314409D01*
X75264226Y-98303801D01*
X74991707Y-98295953D01*
X74737679Y-98291447D01*
X74519499Y-98290865D01*
X74354523Y-98294787D01*
X74260106Y-98303794D01*
X74257110Y-98304498D01*
X74138947Y-98334155D01*
X74138947Y-100827895D01*
X73470526Y-100827895D01*
X73470526Y-97760356D01*
X74137317Y-97760356D01*
X75174185Y-97745546D01*
X75510507Y-97740119D01*
X75770630Y-97733911D01*
X75967475Y-97725798D01*
X76113965Y-97714657D01*
X76223023Y-97699363D01*
X76307571Y-97678795D01*
X76380531Y-97651827D01*
X76411579Y-97637976D01*
X76652180Y-97480572D01*
X76830492Y-97264367D01*
X76942181Y-96998266D01*
X76982916Y-96691175D01*
X76971141Y-96488089D01*
X76926172Y-96266596D01*
X76847032Y-96083019D01*
X76726897Y-95934575D01*
X76558941Y-95818482D01*
X76336341Y-95731959D01*
X76052273Y-95672222D01*
X75699910Y-95636491D01*
X75272430Y-95621981D01*
X74851930Y-95624130D01*
X74161228Y-95636492D01*
X74149273Y-96698424D01*
X74137317Y-97760356D01*
X73470526Y-97760356D01*
X73470526Y-95079474D01*
X74843746Y-95079474D01*
X75233977Y-95081121D01*
G36*
X70664220Y-95335702D02*
G01*
X70695056Y-95417987D01*
X70753543Y-95574523D01*
X70836229Y-95796044D01*
X70939659Y-96073282D01*
X71060380Y-96396971D01*
X71194937Y-96757844D01*
X71339877Y-97146633D01*
X71491746Y-97554071D01*
X71647091Y-97970893D01*
X71802458Y-98387830D01*
X71954392Y-98795616D01*
X72099440Y-99184984D01*
X72234148Y-99546667D01*
X72355063Y-99871398D01*
X72458731Y-100149910D01*
X72541698Y-100372936D01*
X72583105Y-100484339D01*
X72712064Y-100831485D01*
X72345127Y-100818550D01*
X71978189Y-100805614D01*
X71681757Y-99964416D01*
X71588192Y-99705297D01*
X71500639Y-99474677D01*
X71424545Y-99285983D01*
X71365357Y-99152642D01*
X71328522Y-99088083D01*
X71325031Y-99085011D01*
X71266346Y-99075097D01*
X71133439Y-99066470D01*
X70941204Y-99059224D01*
X70704532Y-99053454D01*
X70438317Y-99049254D01*
X70157452Y-99046719D01*
X69876831Y-99045944D01*
X69611345Y-99047024D01*
X69375888Y-99050052D01*
X69185353Y-99055124D01*
X69054632Y-99062334D01*
X69001594Y-99070245D01*
X68967355Y-99118499D01*
X68909956Y-99238980D01*
X68834499Y-99419388D01*
X68746085Y-99647428D01*
X68649815Y-99910800D01*
X68631883Y-99961473D01*
X68326814Y-100827895D01*
X67635188Y-100827895D01*
X67682675Y-100705351D01*
X67706485Y-100642225D01*
X67758454Y-100503270D01*
X67835707Y-100296204D01*
X67935372Y-100028743D01*
X68054574Y-99708605D01*
X68190441Y-99343507D01*
X68340099Y-98941166D01*
X68500674Y-98509298D01*
X68521771Y-98452535D01*
X69192632Y-98452535D01*
X69210120Y-98472469D01*
X69268817Y-98487548D01*
X69378066Y-98498340D01*
X69547216Y-98505415D01*
X69785610Y-98509341D01*
X70102596Y-98510687D01*
X70148072Y-98510702D01*
X70430735Y-98509085D01*
X70682300Y-98504564D01*
X70889478Y-98497629D01*
X71038982Y-98488774D01*
X71117520Y-98478492D01*
X71125907Y-98474467D01*
X71119319Y-98421541D01*
X71085505Y-98298458D01*
X71028889Y-98117505D01*
X70953891Y-97890971D01*
X70864934Y-97631146D01*
X70766440Y-97350317D01*
X70662830Y-97060775D01*
X70558526Y-96774806D01*
X70457951Y-96504701D01*
X70365525Y-96262748D01*
X70285672Y-96061236D01*
X70222813Y-95912453D01*
X70181369Y-95828688D01*
X70168847Y-95814737D01*
X70143256Y-95854763D01*
X70092809Y-95966671D01*
X70022040Y-96138206D01*
X69935485Y-96357112D01*
X69837680Y-96611136D01*
X69733160Y-96888022D01*
X69626460Y-97175516D01*
X69522116Y-97461363D01*
X69424663Y-97733307D01*
X69338636Y-97979093D01*
X69268570Y-98186468D01*
X69219002Y-98343176D01*
X69194466Y-98436962D01*
X69192632Y-98452535D01*
X68521771Y-98452535D01*
X68657496Y-98087369D01*
X68827471Y-97630038D01*
X68990626Y-97191187D01*
X69143888Y-96779076D01*
X69284183Y-96401965D01*
X69408436Y-96068113D01*
X69513573Y-95785780D01*
X69596521Y-95563226D01*
X69654206Y-95408710D01*
X69681581Y-95335702D01*
X69778333Y-95079474D01*
X70567632Y-95079474D01*
X70664220Y-95335702D01*
X70664220Y-95335702D01*
G37*
X70664220Y-95335702D02*
X70695056Y-95417987D01*
X70753543Y-95574523D01*
X70836229Y-95796044D01*
X70939659Y-96073282D01*
X71060380Y-96396971D01*
X71194937Y-96757844D01*
X71339877Y-97146633D01*
X71491746Y-97554071D01*
X71647091Y-97970893D01*
X71802458Y-98387830D01*
X71954392Y-98795616D01*
X72099440Y-99184984D01*
X72234148Y-99546667D01*
X72355063Y-99871398D01*
X72458731Y-100149910D01*
X72541698Y-100372936D01*
X72583105Y-100484339D01*
X72712064Y-100831485D01*
X72345127Y-100818550D01*
X71978189Y-100805614D01*
X71681757Y-99964416D01*
X71588192Y-99705297D01*
X71500639Y-99474677D01*
X71424545Y-99285983D01*
X71365357Y-99152642D01*
X71328522Y-99088083D01*
X71325031Y-99085011D01*
X71266346Y-99075097D01*
X71133439Y-99066470D01*
X70941204Y-99059224D01*
X70704532Y-99053454D01*
X70438317Y-99049254D01*
X70157452Y-99046719D01*
X69876831Y-99045944D01*
X69611345Y-99047024D01*
X69375888Y-99050052D01*
X69185353Y-99055124D01*
X69054632Y-99062334D01*
X69001594Y-99070245D01*
X68967355Y-99118499D01*
X68909956Y-99238980D01*
X68834499Y-99419388D01*
X68746085Y-99647428D01*
X68649815Y-99910800D01*
X68631883Y-99961473D01*
X68326814Y-100827895D01*
X67635188Y-100827895D01*
X67682675Y-100705351D01*
X67706485Y-100642225D01*
X67758454Y-100503270D01*
X67835707Y-100296204D01*
X67935372Y-100028743D01*
X68054574Y-99708605D01*
X68190441Y-99343507D01*
X68340099Y-98941166D01*
X68500674Y-98509298D01*
X68521771Y-98452535D01*
X69192632Y-98452535D01*
X69210120Y-98472469D01*
X69268817Y-98487548D01*
X69378066Y-98498340D01*
X69547216Y-98505415D01*
X69785610Y-98509341D01*
X70102596Y-98510687D01*
X70148072Y-98510702D01*
X70430735Y-98509085D01*
X70682300Y-98504564D01*
X70889478Y-98497629D01*
X71038982Y-98488774D01*
X71117520Y-98478492D01*
X71125907Y-98474467D01*
X71119319Y-98421541D01*
X71085505Y-98298458D01*
X71028889Y-98117505D01*
X70953891Y-97890971D01*
X70864934Y-97631146D01*
X70766440Y-97350317D01*
X70662830Y-97060775D01*
X70558526Y-96774806D01*
X70457951Y-96504701D01*
X70365525Y-96262748D01*
X70285672Y-96061236D01*
X70222813Y-95912453D01*
X70181369Y-95828688D01*
X70168847Y-95814737D01*
X70143256Y-95854763D01*
X70092809Y-95966671D01*
X70022040Y-96138206D01*
X69935485Y-96357112D01*
X69837680Y-96611136D01*
X69733160Y-96888022D01*
X69626460Y-97175516D01*
X69522116Y-97461363D01*
X69424663Y-97733307D01*
X69338636Y-97979093D01*
X69268570Y-98186468D01*
X69219002Y-98343176D01*
X69194466Y-98436962D01*
X69192632Y-98452535D01*
X68521771Y-98452535D01*
X68657496Y-98087369D01*
X68827471Y-97630038D01*
X68990626Y-97191187D01*
X69143888Y-96779076D01*
X69284183Y-96401965D01*
X69408436Y-96068113D01*
X69513573Y-95785780D01*
X69596521Y-95563226D01*
X69654206Y-95408710D01*
X69681581Y-95335702D01*
X69778333Y-95079474D01*
X70567632Y-95079474D01*
X70664220Y-95335702D01*
G36*
X64970439Y-95080170D02*
G01*
X65409814Y-95081572D01*
X65770867Y-95086109D01*
X66064374Y-95095024D01*
X66301116Y-95109560D01*
X66491872Y-95130959D01*
X66647420Y-95160466D01*
X66778540Y-95199323D01*
X66896011Y-95248774D01*
X67010611Y-95310060D01*
X67022137Y-95316775D01*
X67275860Y-95509787D01*
X67467832Y-95757915D01*
X67601737Y-96067315D01*
X67676792Y-96411258D01*
X67696756Y-96813607D01*
X67642336Y-97186883D01*
X67518101Y-97522653D01*
X67328618Y-97812482D01*
X67078454Y-98047937D01*
X66772177Y-98220585D01*
X66677516Y-98256343D01*
X66596041Y-98270227D01*
X66439408Y-98284590D01*
X66221571Y-98298622D01*
X65956484Y-98311517D01*
X65658101Y-98322465D01*
X65427193Y-98328766D01*
X64313158Y-98354737D01*
X64301313Y-99591316D01*
X64289467Y-100827895D01*
X63622456Y-100827895D01*
X63622456Y-97753158D01*
X64289235Y-97753158D01*
X65217758Y-97753158D01*
X65571214Y-97751283D01*
X65848014Y-97745173D01*
X66060554Y-97734100D01*
X66221231Y-97717335D01*
X66342443Y-97694152D01*
X66375062Y-97685217D01*
X66625268Y-97581306D01*
X66808561Y-97433837D01*
X66929465Y-97235149D01*
X66992506Y-96977579D01*
X67002209Y-96653467D01*
X67000879Y-96625614D01*
X66971752Y-96350545D01*
X66910600Y-96144065D01*
X66807116Y-95988325D01*
X66650995Y-95865478D01*
X66522894Y-95797838D01*
X66439050Y-95759728D01*
X66362626Y-95730964D01*
X66279784Y-95710233D01*
X66176686Y-95696220D01*
X66039493Y-95687610D01*
X65854368Y-95683088D01*
X65607471Y-95681341D01*
X65293509Y-95681053D01*
X64313158Y-95681053D01*
X64301196Y-96717106D01*
X64289235Y-97753158D01*
X63622456Y-97753158D01*
X63622456Y-95079474D01*
X64970439Y-95080170D01*
X64970439Y-95080170D01*
G37*
X64970439Y-95080170D02*
X65409814Y-95081572D01*
X65770867Y-95086109D01*
X66064374Y-95095024D01*
X66301116Y-95109560D01*
X66491872Y-95130959D01*
X66647420Y-95160466D01*
X66778540Y-95199323D01*
X66896011Y-95248774D01*
X67010611Y-95310060D01*
X67022137Y-95316775D01*
X67275860Y-95509787D01*
X67467832Y-95757915D01*
X67601737Y-96067315D01*
X67676792Y-96411258D01*
X67696756Y-96813607D01*
X67642336Y-97186883D01*
X67518101Y-97522653D01*
X67328618Y-97812482D01*
X67078454Y-98047937D01*
X66772177Y-98220585D01*
X66677516Y-98256343D01*
X66596041Y-98270227D01*
X66439408Y-98284590D01*
X66221571Y-98298622D01*
X65956484Y-98311517D01*
X65658101Y-98322465D01*
X65427193Y-98328766D01*
X64313158Y-98354737D01*
X64301313Y-99591316D01*
X64289467Y-100827895D01*
X63622456Y-100827895D01*
X63622456Y-97753158D01*
X64289235Y-97753158D01*
X65217758Y-97753158D01*
X65571214Y-97751283D01*
X65848014Y-97745173D01*
X66060554Y-97734100D01*
X66221231Y-97717335D01*
X66342443Y-97694152D01*
X66375062Y-97685217D01*
X66625268Y-97581306D01*
X66808561Y-97433837D01*
X66929465Y-97235149D01*
X66992506Y-96977579D01*
X67002209Y-96653467D01*
X67000879Y-96625614D01*
X66971752Y-96350545D01*
X66910600Y-96144065D01*
X66807116Y-95988325D01*
X66650995Y-95865478D01*
X66522894Y-95797838D01*
X66439050Y-95759728D01*
X66362626Y-95730964D01*
X66279784Y-95710233D01*
X66176686Y-95696220D01*
X66039493Y-95687610D01*
X65854368Y-95683088D01*
X65607471Y-95681341D01*
X65293509Y-95681053D01*
X64313158Y-95681053D01*
X64301196Y-96717106D01*
X64289235Y-97753158D01*
X63622456Y-97753158D01*
X63622456Y-95079474D01*
X64970439Y-95080170D01*
G36*
X53874649Y-95089913D02*
G01*
X54306796Y-95095350D01*
X54660555Y-95101851D01*
X54946662Y-95110892D01*
X55175851Y-95123951D01*
X55358858Y-95142506D01*
X55506415Y-95168032D01*
X55629259Y-95202007D01*
X55738124Y-95245908D01*
X55843745Y-95301212D01*
X55956856Y-95369397D01*
X55971263Y-95378403D01*
X56167100Y-95550846D01*
X56319529Y-95786394D01*
X56421962Y-96066987D01*
X56467812Y-96374570D01*
X56450492Y-96691085D01*
X56450376Y-96691796D01*
X56360777Y-97012160D01*
X56204294Y-97274497D01*
X55978180Y-97482658D01*
X55819062Y-97577539D01*
X55693504Y-97659697D01*
X55652780Y-97731962D01*
X55697409Y-97789844D01*
X55790790Y-97821898D01*
X56075698Y-97927077D01*
X56327136Y-98104790D01*
X56529715Y-98340300D01*
X56668045Y-98618871D01*
X56687122Y-98680148D01*
X56750064Y-99051657D01*
X56733978Y-99415529D01*
X56644017Y-99759601D01*
X56485335Y-100071713D01*
X56263086Y-100339703D01*
X55982424Y-100551410D01*
X55868772Y-100611177D01*
X55739471Y-100668720D01*
X55613097Y-100715190D01*
X55478431Y-100751748D01*
X55324256Y-100779552D01*
X55139351Y-100799762D01*
X54912499Y-100813539D01*
X54632480Y-100822041D01*
X54288076Y-100826428D01*
X53868067Y-100827861D01*
X53772193Y-100827895D01*
X52392983Y-100827895D01*
X52392983Y-100248597D01*
X53059819Y-100248597D01*
X54038769Y-100248597D01*
X54341814Y-100246372D01*
X54628368Y-100240154D01*
X54881520Y-100230624D01*
X55084358Y-100218464D01*
X55219972Y-100204359D01*
X55244635Y-100199932D01*
X55528485Y-100097862D01*
X55756602Y-99929351D01*
X55923487Y-99701574D01*
X56023645Y-99421706D01*
X56052216Y-99145966D01*
X56034775Y-98873744D01*
X55975012Y-98662055D01*
X55864704Y-98489091D01*
X55768073Y-98392394D01*
X55655900Y-98302228D01*
X55540363Y-98231464D01*
X55409131Y-98177835D01*
X55249870Y-98139074D01*
X55050248Y-98112914D01*
X54797932Y-98097089D01*
X54480589Y-98089331D01*
X54108597Y-98087369D01*
X53083684Y-98087369D01*
X53071752Y-99167983D01*
X53059819Y-100248597D01*
X52392983Y-100248597D01*
X52392983Y-97130526D01*
X53067280Y-97130526D01*
X53069789Y-97300541D01*
X53076481Y-97415535D01*
X53088140Y-97486866D01*
X53105551Y-97525896D01*
X53129501Y-97543985D01*
X53138510Y-97547158D01*
X53220327Y-97556687D01*
X53373814Y-97561466D01*
X53581675Y-97562014D01*
X53826612Y-97558845D01*
X54091330Y-97552477D01*
X54358530Y-97543426D01*
X54610917Y-97532208D01*
X54831192Y-97519341D01*
X55002061Y-97505340D01*
X55106225Y-97490722D01*
X55116470Y-97488091D01*
X55330935Y-97395555D01*
X55527599Y-97259935D01*
X55652585Y-97129299D01*
X55741322Y-96946168D01*
X55788038Y-96716157D01*
X55792590Y-96469346D01*
X55754839Y-96235816D01*
X55674643Y-96045647D01*
X55657777Y-96021138D01*
X55553443Y-95899476D01*
X55433667Y-95803662D01*
X55287377Y-95731123D01*
X55103505Y-95679282D01*
X54870979Y-95645567D01*
X54578730Y-95627401D01*
X54215687Y-95622209D01*
X53951899Y-95624353D01*
X53083684Y-95636492D01*
X53071668Y-96579985D01*
X53068168Y-96894127D01*
X53067280Y-97130526D01*
X52392983Y-97130526D01*
X52392983Y-95073075D01*
X53874649Y-95089913D01*
X53874649Y-95089913D01*
G37*
X53874649Y-95089913D02*
X54306796Y-95095350D01*
X54660555Y-95101851D01*
X54946662Y-95110892D01*
X55175851Y-95123951D01*
X55358858Y-95142506D01*
X55506415Y-95168032D01*
X55629259Y-95202007D01*
X55738124Y-95245908D01*
X55843745Y-95301212D01*
X55956856Y-95369397D01*
X55971263Y-95378403D01*
X56167100Y-95550846D01*
X56319529Y-95786394D01*
X56421962Y-96066987D01*
X56467812Y-96374570D01*
X56450492Y-96691085D01*
X56450376Y-96691796D01*
X56360777Y-97012160D01*
X56204294Y-97274497D01*
X55978180Y-97482658D01*
X55819062Y-97577539D01*
X55693504Y-97659697D01*
X55652780Y-97731962D01*
X55697409Y-97789844D01*
X55790790Y-97821898D01*
X56075698Y-97927077D01*
X56327136Y-98104790D01*
X56529715Y-98340300D01*
X56668045Y-98618871D01*
X56687122Y-98680148D01*
X56750064Y-99051657D01*
X56733978Y-99415529D01*
X56644017Y-99759601D01*
X56485335Y-100071713D01*
X56263086Y-100339703D01*
X55982424Y-100551410D01*
X55868772Y-100611177D01*
X55739471Y-100668720D01*
X55613097Y-100715190D01*
X55478431Y-100751748D01*
X55324256Y-100779552D01*
X55139351Y-100799762D01*
X54912499Y-100813539D01*
X54632480Y-100822041D01*
X54288076Y-100826428D01*
X53868067Y-100827861D01*
X53772193Y-100827895D01*
X52392983Y-100827895D01*
X52392983Y-100248597D01*
X53059819Y-100248597D01*
X54038769Y-100248597D01*
X54341814Y-100246372D01*
X54628368Y-100240154D01*
X54881520Y-100230624D01*
X55084358Y-100218464D01*
X55219972Y-100204359D01*
X55244635Y-100199932D01*
X55528485Y-100097862D01*
X55756602Y-99929351D01*
X55923487Y-99701574D01*
X56023645Y-99421706D01*
X56052216Y-99145966D01*
X56034775Y-98873744D01*
X55975012Y-98662055D01*
X55864704Y-98489091D01*
X55768073Y-98392394D01*
X55655900Y-98302228D01*
X55540363Y-98231464D01*
X55409131Y-98177835D01*
X55249870Y-98139074D01*
X55050248Y-98112914D01*
X54797932Y-98097089D01*
X54480589Y-98089331D01*
X54108597Y-98087369D01*
X53083684Y-98087369D01*
X53071752Y-99167983D01*
X53059819Y-100248597D01*
X52392983Y-100248597D01*
X52392983Y-97130526D01*
X53067280Y-97130526D01*
X53069789Y-97300541D01*
X53076481Y-97415535D01*
X53088140Y-97486866D01*
X53105551Y-97525896D01*
X53129501Y-97543985D01*
X53138510Y-97547158D01*
X53220327Y-97556687D01*
X53373814Y-97561466D01*
X53581675Y-97562014D01*
X53826612Y-97558845D01*
X54091330Y-97552477D01*
X54358530Y-97543426D01*
X54610917Y-97532208D01*
X54831192Y-97519341D01*
X55002061Y-97505340D01*
X55106225Y-97490722D01*
X55116470Y-97488091D01*
X55330935Y-97395555D01*
X55527599Y-97259935D01*
X55652585Y-97129299D01*
X55741322Y-96946168D01*
X55788038Y-96716157D01*
X55792590Y-96469346D01*
X55754839Y-96235816D01*
X55674643Y-96045647D01*
X55657777Y-96021138D01*
X55553443Y-95899476D01*
X55433667Y-95803662D01*
X55287377Y-95731123D01*
X55103505Y-95679282D01*
X54870979Y-95645567D01*
X54578730Y-95627401D01*
X54215687Y-95622209D01*
X53951899Y-95624353D01*
X53083684Y-95636492D01*
X53071668Y-96579985D01*
X53068168Y-96894127D01*
X53067280Y-97130526D01*
X52392983Y-97130526D01*
X52392983Y-95073075D01*
X53874649Y-95089913D01*
G36*
X95730726Y-95281790D02*
G01*
X96118769Y-95368150D01*
X96454445Y-95525541D01*
X96739370Y-95755229D01*
X96975158Y-96058486D01*
X97163426Y-96436578D01*
X97292995Y-96839650D01*
X97326808Y-97028536D01*
X97351858Y-97283978D01*
X97367884Y-97583818D01*
X97374630Y-97905894D01*
X97371835Y-98228049D01*
X97359243Y-98528121D01*
X97336593Y-98783952D01*
X97317173Y-98911755D01*
X97204188Y-99372210D01*
X97050960Y-99788390D01*
X96863313Y-100148148D01*
X96647075Y-100439337D01*
X96527947Y-100557276D01*
X96221273Y-100768983D01*
X95867372Y-100913688D01*
X95481266Y-100988172D01*
X95077978Y-100989212D01*
X94759353Y-100936532D01*
X94511591Y-100863587D01*
X94312347Y-100768979D01*
X94123611Y-100632084D01*
X94007744Y-100528705D01*
X93838682Y-100330413D01*
X93707451Y-100098045D01*
X93628587Y-99861468D01*
X93612281Y-99716146D01*
X93616712Y-99645467D01*
X93643861Y-99605670D01*
X93714513Y-99585812D01*
X93849454Y-99574949D01*
X93884158Y-99572994D01*
X94033234Y-99568402D01*
X94145128Y-99571764D01*
X94189660Y-99580176D01*
X94218647Y-99634680D01*
X94248458Y-99741984D01*
X94254763Y-99773562D01*
X94337220Y-99987918D01*
X94491393Y-100173148D01*
X94702162Y-100320169D01*
X94954403Y-100419899D01*
X95232993Y-100463255D01*
X95396591Y-100459370D01*
X95718470Y-100389685D01*
X95995271Y-100243217D01*
X96226817Y-100020168D01*
X96412929Y-99720742D01*
X96553430Y-99345140D01*
X96619111Y-99066023D01*
X96655422Y-98843743D01*
X96677874Y-98637871D01*
X96685797Y-98465456D01*
X96678521Y-98343547D01*
X96655375Y-98289191D01*
X96649709Y-98287895D01*
X96599864Y-98316414D01*
X96508554Y-98390402D01*
X96418472Y-98472376D01*
X96128281Y-98688762D01*
X95795570Y-98827864D01*
X95423927Y-98888664D01*
X95016941Y-98870148D01*
X95014794Y-98869851D01*
X94625533Y-98776075D01*
X94290423Y-98612392D01*
X94012617Y-98381986D01*
X93795269Y-98088038D01*
X93641533Y-97733733D01*
X93566283Y-97407807D01*
X93540700Y-96988815D01*
X93548041Y-96934327D01*
X94206541Y-96934327D01*
X94211456Y-97255225D01*
X94278271Y-97566412D01*
X94408521Y-97848081D01*
X94412933Y-97855093D01*
X94600734Y-98071954D01*
X94842502Y-98228862D01*
X95122967Y-98321985D01*
X95426862Y-98347492D01*
X95738921Y-98301552D01*
X95929474Y-98235648D01*
X96195279Y-98076229D01*
X96402237Y-97857196D01*
X96546175Y-97589317D01*
X96622917Y-97283363D01*
X96628289Y-96950101D01*
X96560437Y-96607883D01*
X96428819Y-96300968D01*
X96241733Y-96063789D01*
X95999454Y-95896542D01*
X95702256Y-95799426D01*
X95394737Y-95772131D01*
X95104647Y-95795808D01*
X94865416Y-95873809D01*
X94650142Y-96016913D01*
X94547876Y-96111436D01*
X94376284Y-96342626D01*
X94261995Y-96623525D01*
X94206541Y-96934327D01*
X93548041Y-96934327D01*
X93593797Y-96594728D01*
X93721385Y-96234038D01*
X93919272Y-95915237D01*
X94183268Y-95646816D01*
X94509183Y-95437268D01*
X94547943Y-95418501D01*
X94700564Y-95352279D01*
X94837914Y-95309598D01*
X94990703Y-95284102D01*
X95189637Y-95269436D01*
X95288700Y-95265190D01*
X95730726Y-95281790D01*
X95730726Y-95281790D01*
G37*
X95730726Y-95281790D02*
X96118769Y-95368150D01*
X96454445Y-95525541D01*
X96739370Y-95755229D01*
X96975158Y-96058486D01*
X97163426Y-96436578D01*
X97292995Y-96839650D01*
X97326808Y-97028536D01*
X97351858Y-97283978D01*
X97367884Y-97583818D01*
X97374630Y-97905894D01*
X97371835Y-98228049D01*
X97359243Y-98528121D01*
X97336593Y-98783952D01*
X97317173Y-98911755D01*
X97204188Y-99372210D01*
X97050960Y-99788390D01*
X96863313Y-100148148D01*
X96647075Y-100439337D01*
X96527947Y-100557276D01*
X96221273Y-100768983D01*
X95867372Y-100913688D01*
X95481266Y-100988172D01*
X95077978Y-100989212D01*
X94759353Y-100936532D01*
X94511591Y-100863587D01*
X94312347Y-100768979D01*
X94123611Y-100632084D01*
X94007744Y-100528705D01*
X93838682Y-100330413D01*
X93707451Y-100098045D01*
X93628587Y-99861468D01*
X93612281Y-99716146D01*
X93616712Y-99645467D01*
X93643861Y-99605670D01*
X93714513Y-99585812D01*
X93849454Y-99574949D01*
X93884158Y-99572994D01*
X94033234Y-99568402D01*
X94145128Y-99571764D01*
X94189660Y-99580176D01*
X94218647Y-99634680D01*
X94248458Y-99741984D01*
X94254763Y-99773562D01*
X94337220Y-99987918D01*
X94491393Y-100173148D01*
X94702162Y-100320169D01*
X94954403Y-100419899D01*
X95232993Y-100463255D01*
X95396591Y-100459370D01*
X95718470Y-100389685D01*
X95995271Y-100243217D01*
X96226817Y-100020168D01*
X96412929Y-99720742D01*
X96553430Y-99345140D01*
X96619111Y-99066023D01*
X96655422Y-98843743D01*
X96677874Y-98637871D01*
X96685797Y-98465456D01*
X96678521Y-98343547D01*
X96655375Y-98289191D01*
X96649709Y-98287895D01*
X96599864Y-98316414D01*
X96508554Y-98390402D01*
X96418472Y-98472376D01*
X96128281Y-98688762D01*
X95795570Y-98827864D01*
X95423927Y-98888664D01*
X95016941Y-98870148D01*
X95014794Y-98869851D01*
X94625533Y-98776075D01*
X94290423Y-98612392D01*
X94012617Y-98381986D01*
X93795269Y-98088038D01*
X93641533Y-97733733D01*
X93566283Y-97407807D01*
X93540700Y-96988815D01*
X93548041Y-96934327D01*
X94206541Y-96934327D01*
X94211456Y-97255225D01*
X94278271Y-97566412D01*
X94408521Y-97848081D01*
X94412933Y-97855093D01*
X94600734Y-98071954D01*
X94842502Y-98228862D01*
X95122967Y-98321985D01*
X95426862Y-98347492D01*
X95738921Y-98301552D01*
X95929474Y-98235648D01*
X96195279Y-98076229D01*
X96402237Y-97857196D01*
X96546175Y-97589317D01*
X96622917Y-97283363D01*
X96628289Y-96950101D01*
X96560437Y-96607883D01*
X96428819Y-96300968D01*
X96241733Y-96063789D01*
X95999454Y-95896542D01*
X95702256Y-95799426D01*
X95394737Y-95772131D01*
X95104647Y-95795808D01*
X94865416Y-95873809D01*
X94650142Y-96016913D01*
X94547876Y-96111436D01*
X94376284Y-96342626D01*
X94261995Y-96623525D01*
X94206541Y-96934327D01*
X93548041Y-96934327D01*
X93593797Y-96594728D01*
X93721385Y-96234038D01*
X93919272Y-95915237D01*
X94183268Y-95646816D01*
X94509183Y-95437268D01*
X94547943Y-95418501D01*
X94700564Y-95352279D01*
X94837914Y-95309598D01*
X94990703Y-95284102D01*
X95189637Y-95269436D01*
X95288700Y-95265190D01*
X95730726Y-95281790D01*
G36*
X58453333Y-96851959D02*
G01*
X58454499Y-97258371D01*
X58457818Y-97651583D01*
X58463030Y-98019255D01*
X58469871Y-98349048D01*
X58478078Y-98628620D01*
X58487388Y-98845632D01*
X58497539Y-98987744D01*
X58499143Y-99002047D01*
X58576264Y-99393047D01*
X58705860Y-99713042D01*
X58890812Y-99964545D01*
X59134004Y-100150069D01*
X59438315Y-100272127D01*
X59806629Y-100333232D01*
X60035263Y-100341771D01*
X60434309Y-100314478D01*
X60768006Y-100230085D01*
X61042412Y-100084824D01*
X61263586Y-99874923D01*
X61437584Y-99596614D01*
X61511661Y-99422993D01*
X61531289Y-99364664D01*
X61547704Y-99298123D01*
X61561258Y-99214977D01*
X61572307Y-99106837D01*
X61581204Y-98965311D01*
X61588304Y-98782009D01*
X61593961Y-98548540D01*
X61598528Y-98256514D01*
X61602360Y-97897538D01*
X61605811Y-97463224D01*
X61607992Y-97140439D01*
X61621339Y-95079474D01*
X62291135Y-95079474D01*
X62275089Y-97185000D01*
X62271046Y-97680128D01*
X62266891Y-98094481D01*
X62262282Y-98436406D01*
X62256874Y-98714252D01*
X62250324Y-98936367D01*
X62242286Y-99111097D01*
X62232418Y-99246791D01*
X62220375Y-99351796D01*
X62205813Y-99434459D01*
X62188389Y-99503130D01*
X62178236Y-99535614D01*
X62016207Y-99933263D01*
X61814377Y-100256233D01*
X61566241Y-100512515D01*
X61265294Y-100710101D01*
X61193314Y-100745569D01*
X60820790Y-100880252D01*
X60398629Y-100965014D01*
X59952989Y-100996814D01*
X59510029Y-100972613D01*
X59389123Y-100955235D01*
X59113560Y-100882931D01*
X58827018Y-100762817D01*
X58566658Y-100612389D01*
X58421059Y-100499484D01*
X58301475Y-100369306D01*
X58178352Y-100200928D01*
X58104601Y-100078162D01*
X58042241Y-99958195D01*
X57989630Y-99845929D01*
X57945852Y-99732660D01*
X57909986Y-99609684D01*
X57881116Y-99468294D01*
X57858322Y-99299787D01*
X57840686Y-99095457D01*
X57827291Y-98846600D01*
X57817217Y-98544511D01*
X57809547Y-98180484D01*
X57803361Y-97745816D01*
X57797743Y-97231800D01*
X57797047Y-97162720D01*
X57776155Y-95079474D01*
X58453333Y-95079474D01*
X58453333Y-96851959D01*
X58453333Y-96851959D01*
G37*
X58453333Y-96851959D02*
X58454499Y-97258371D01*
X58457818Y-97651583D01*
X58463030Y-98019255D01*
X58469871Y-98349048D01*
X58478078Y-98628620D01*
X58487388Y-98845632D01*
X58497539Y-98987744D01*
X58499143Y-99002047D01*
X58576264Y-99393047D01*
X58705860Y-99713042D01*
X58890812Y-99964545D01*
X59134004Y-100150069D01*
X59438315Y-100272127D01*
X59806629Y-100333232D01*
X60035263Y-100341771D01*
X60434309Y-100314478D01*
X60768006Y-100230085D01*
X61042412Y-100084824D01*
X61263586Y-99874923D01*
X61437584Y-99596614D01*
X61511661Y-99422993D01*
X61531289Y-99364664D01*
X61547704Y-99298123D01*
X61561258Y-99214977D01*
X61572307Y-99106837D01*
X61581204Y-98965311D01*
X61588304Y-98782009D01*
X61593961Y-98548540D01*
X61598528Y-98256514D01*
X61602360Y-97897538D01*
X61605811Y-97463224D01*
X61607992Y-97140439D01*
X61621339Y-95079474D01*
X62291135Y-95079474D01*
X62275089Y-97185000D01*
X62271046Y-97680128D01*
X62266891Y-98094481D01*
X62262282Y-98436406D01*
X62256874Y-98714252D01*
X62250324Y-98936367D01*
X62242286Y-99111097D01*
X62232418Y-99246791D01*
X62220375Y-99351796D01*
X62205813Y-99434459D01*
X62188389Y-99503130D01*
X62178236Y-99535614D01*
X62016207Y-99933263D01*
X61814377Y-100256233D01*
X61566241Y-100512515D01*
X61265294Y-100710101D01*
X61193314Y-100745569D01*
X60820790Y-100880252D01*
X60398629Y-100965014D01*
X59952989Y-100996814D01*
X59510029Y-100972613D01*
X59389123Y-100955235D01*
X59113560Y-100882931D01*
X58827018Y-100762817D01*
X58566658Y-100612389D01*
X58421059Y-100499484D01*
X58301475Y-100369306D01*
X58178352Y-100200928D01*
X58104601Y-100078162D01*
X58042241Y-99958195D01*
X57989630Y-99845929D01*
X57945852Y-99732660D01*
X57909986Y-99609684D01*
X57881116Y-99468294D01*
X57858322Y-99299787D01*
X57840686Y-99095457D01*
X57827291Y-98846600D01*
X57817217Y-98544511D01*
X57809547Y-98180484D01*
X57803361Y-97745816D01*
X57797743Y-97231800D01*
X57797047Y-97162720D01*
X57776155Y-95079474D01*
X58453333Y-95079474D01*
X58453333Y-96851959D01*
G36*
X47223860Y-96851959D02*
G01*
X47225025Y-97258371D01*
X47228345Y-97651583D01*
X47233557Y-98019255D01*
X47240398Y-98349048D01*
X47248605Y-98628620D01*
X47257915Y-98845632D01*
X47268065Y-98987744D01*
X47269669Y-99002047D01*
X47347017Y-99393226D01*
X47477206Y-99713582D01*
X47663006Y-99965539D01*
X47907188Y-100151521D01*
X48212524Y-100273952D01*
X48581782Y-100335254D01*
X48803407Y-100343787D01*
X49203195Y-100316555D01*
X49538449Y-100230790D01*
X49814686Y-100083057D01*
X50037422Y-99869919D01*
X50212174Y-99587944D01*
X50282187Y-99422993D01*
X50301816Y-99364664D01*
X50318230Y-99298123D01*
X50331785Y-99214977D01*
X50342834Y-99106837D01*
X50351731Y-98965311D01*
X50358831Y-98782009D01*
X50364487Y-98548540D01*
X50369054Y-98256514D01*
X50372886Y-97897538D01*
X50376337Y-97463224D01*
X50378518Y-97140439D01*
X50391865Y-95079474D01*
X51061661Y-95079474D01*
X51046158Y-97185000D01*
X51042422Y-97674144D01*
X51038781Y-98082731D01*
X51034829Y-98419324D01*
X51030159Y-98692489D01*
X51024364Y-98910788D01*
X51017038Y-99082786D01*
X51007774Y-99217048D01*
X50996166Y-99322136D01*
X50981808Y-99406616D01*
X50964292Y-99479052D01*
X50943213Y-99548007D01*
X50932458Y-99580176D01*
X50776615Y-99955898D01*
X50589169Y-100261247D01*
X50375048Y-100488195D01*
X50374974Y-100488256D01*
X50046335Y-100702754D01*
X49659133Y-100860635D01*
X49225725Y-100959254D01*
X48758469Y-100995967D01*
X48269724Y-100968129D01*
X48185498Y-100956802D01*
X47899723Y-100886749D01*
X47604521Y-100766296D01*
X47336779Y-100612415D01*
X47191585Y-100499484D01*
X47072001Y-100369306D01*
X46948878Y-100200928D01*
X46875127Y-100078162D01*
X46812767Y-99958195D01*
X46760157Y-99845929D01*
X46716378Y-99732660D01*
X46680513Y-99609684D01*
X46651642Y-99468294D01*
X46628848Y-99299787D01*
X46611213Y-99095457D01*
X46597817Y-98846600D01*
X46587743Y-98544511D01*
X46580073Y-98180484D01*
X46573888Y-97745816D01*
X46568270Y-97231800D01*
X46567573Y-97162720D01*
X46546681Y-95079474D01*
X47223860Y-95079474D01*
X47223860Y-96851959D01*
X47223860Y-96851959D01*
G37*
X47223860Y-96851959D02*
X47225025Y-97258371D01*
X47228345Y-97651583D01*
X47233557Y-98019255D01*
X47240398Y-98349048D01*
X47248605Y-98628620D01*
X47257915Y-98845632D01*
X47268065Y-98987744D01*
X47269669Y-99002047D01*
X47347017Y-99393226D01*
X47477206Y-99713582D01*
X47663006Y-99965539D01*
X47907188Y-100151521D01*
X48212524Y-100273952D01*
X48581782Y-100335254D01*
X48803407Y-100343787D01*
X49203195Y-100316555D01*
X49538449Y-100230790D01*
X49814686Y-100083057D01*
X50037422Y-99869919D01*
X50212174Y-99587944D01*
X50282187Y-99422993D01*
X50301816Y-99364664D01*
X50318230Y-99298123D01*
X50331785Y-99214977D01*
X50342834Y-99106837D01*
X50351731Y-98965311D01*
X50358831Y-98782009D01*
X50364487Y-98548540D01*
X50369054Y-98256514D01*
X50372886Y-97897538D01*
X50376337Y-97463224D01*
X50378518Y-97140439D01*
X50391865Y-95079474D01*
X51061661Y-95079474D01*
X51046158Y-97185000D01*
X51042422Y-97674144D01*
X51038781Y-98082731D01*
X51034829Y-98419324D01*
X51030159Y-98692489D01*
X51024364Y-98910788D01*
X51017038Y-99082786D01*
X51007774Y-99217048D01*
X50996166Y-99322136D01*
X50981808Y-99406616D01*
X50964292Y-99479052D01*
X50943213Y-99548007D01*
X50932458Y-99580176D01*
X50776615Y-99955898D01*
X50589169Y-100261247D01*
X50375048Y-100488195D01*
X50374974Y-100488256D01*
X50046335Y-100702754D01*
X49659133Y-100860635D01*
X49225725Y-100959254D01*
X48758469Y-100995967D01*
X48269724Y-100968129D01*
X48185498Y-100956802D01*
X47899723Y-100886749D01*
X47604521Y-100766296D01*
X47336779Y-100612415D01*
X47191585Y-100499484D01*
X47072001Y-100369306D01*
X46948878Y-100200928D01*
X46875127Y-100078162D01*
X46812767Y-99958195D01*
X46760157Y-99845929D01*
X46716378Y-99732660D01*
X46680513Y-99609684D01*
X46651642Y-99468294D01*
X46628848Y-99299787D01*
X46611213Y-99095457D01*
X46597817Y-98846600D01*
X46587743Y-98544511D01*
X46580073Y-98180484D01*
X46573888Y-97745816D01*
X46568270Y-97231800D01*
X46567573Y-97162720D01*
X46546681Y-95079474D01*
X47223860Y-95079474D01*
X47223860Y-96851959D01*
G36*
X70395790Y-105729650D02*
G01*
X69534269Y-105729650D01*
X69265751Y-105728180D01*
X69028293Y-105724087D01*
X68836091Y-105717844D01*
X68703346Y-105709923D01*
X68644254Y-105700799D01*
X68643041Y-105699942D01*
X68622650Y-105638788D01*
X68613385Y-105530519D01*
X68613333Y-105521696D01*
X68613333Y-105373158D01*
X70395790Y-105373158D01*
X70395790Y-105729650D01*
X70395790Y-105729650D01*
G37*
X70395790Y-105729650D02*
X69534269Y-105729650D01*
X69265751Y-105728180D01*
X69028293Y-105724087D01*
X68836091Y-105717844D01*
X68703346Y-105709923D01*
X68644254Y-105700799D01*
X68643041Y-105699942D01*
X68622650Y-105638788D01*
X68613385Y-105530519D01*
X68613333Y-105521696D01*
X68613333Y-105373158D01*
X70395790Y-105373158D01*
X70395790Y-105729650D01*
G36*
X94280702Y-104303685D02*
G01*
X93207479Y-104303685D01*
X93220494Y-104649036D01*
X93233509Y-104994386D01*
X93924211Y-105020416D01*
X93924211Y-105373158D01*
X93207479Y-105373158D01*
X93233509Y-106063860D01*
X93757105Y-106076415D01*
X94280702Y-106088969D01*
X94280702Y-106442632D01*
X93597427Y-106442632D01*
X93359162Y-106440788D01*
X93153112Y-106435703D01*
X92995406Y-106428050D01*
X92902176Y-106418501D01*
X92884445Y-106412924D01*
X92876643Y-106362237D01*
X92869608Y-106234212D01*
X92863619Y-106040636D01*
X92858958Y-105793294D01*
X92855905Y-105503969D01*
X92854741Y-105184448D01*
X92854737Y-105165205D01*
X92854737Y-103947193D01*
X94280702Y-103947193D01*
X94280702Y-104303685D01*
X94280702Y-104303685D01*
G37*
X94280702Y-104303685D02*
X93207479Y-104303685D01*
X93220494Y-104649036D01*
X93233509Y-104994386D01*
X93924211Y-105020416D01*
X93924211Y-105373158D01*
X93207479Y-105373158D01*
X93233509Y-106063860D01*
X93757105Y-106076415D01*
X94280702Y-106088969D01*
X94280702Y-106442632D01*
X93597427Y-106442632D01*
X93359162Y-106440788D01*
X93153112Y-106435703D01*
X92995406Y-106428050D01*
X92902176Y-106418501D01*
X92884445Y-106412924D01*
X92876643Y-106362237D01*
X92869608Y-106234212D01*
X92863619Y-106040636D01*
X92858958Y-105793294D01*
X92855905Y-105503969D01*
X92854741Y-105184448D01*
X92854737Y-105165205D01*
X92854737Y-103947193D01*
X94280702Y-103947193D01*
X94280702Y-104303685D01*
G36*
X91768396Y-103951532D02*
G01*
X91989819Y-103967278D01*
X92155648Y-103998527D01*
X92282496Y-104049372D01*
X92386977Y-104123910D01*
X92451664Y-104187978D01*
X92536464Y-104335639D01*
X92581734Y-104531704D01*
X92585519Y-104743761D01*
X92545861Y-104939399D01*
X92502589Y-105031920D01*
X92376139Y-105173128D01*
X92208243Y-105278762D01*
X92034463Y-105327502D01*
X92007709Y-105328597D01*
X91959827Y-105332457D01*
X91936130Y-105351022D01*
X91941268Y-105394768D01*
X91979893Y-105474172D01*
X92056655Y-105599711D01*
X92176207Y-105781861D01*
X92273503Y-105927291D01*
X92392215Y-106106003D01*
X92490347Y-106257115D01*
X92558441Y-106365813D01*
X92587039Y-106417284D01*
X92587369Y-106418866D01*
X92547386Y-106432526D01*
X92445676Y-106440583D01*
X92375702Y-106441577D01*
X92164035Y-106440523D01*
X91885526Y-106018565D01*
X91770808Y-105835091D01*
X91679650Y-105670661D01*
X91622104Y-105544538D01*
X91607018Y-105484883D01*
X91597340Y-105412909D01*
X91551595Y-105380918D01*
X91444718Y-105373200D01*
X91428772Y-105373158D01*
X91250526Y-105373158D01*
X91250526Y-106442632D01*
X91101988Y-106442632D01*
X90991881Y-106434479D01*
X90925755Y-106414679D01*
X90923743Y-106412924D01*
X90915941Y-106362237D01*
X90908906Y-106234212D01*
X90902917Y-106040636D01*
X90898256Y-105793294D01*
X90895203Y-105503969D01*
X90894039Y-105184448D01*
X90894035Y-105165205D01*
X90894035Y-105027843D01*
X91250526Y-105027843D01*
X91624548Y-105008212D01*
X91886633Y-104982888D01*
X92062695Y-104938834D01*
X92114723Y-104912474D01*
X92197746Y-104834440D01*
X92228825Y-104725194D01*
X92230877Y-104667666D01*
X92221384Y-104525838D01*
X92183541Y-104428619D01*
X92103301Y-104366943D01*
X91966618Y-104331746D01*
X91759445Y-104313962D01*
X91677498Y-104310523D01*
X91250526Y-104295082D01*
X91250526Y-105027843D01*
X90894035Y-105027843D01*
X90894035Y-103947193D01*
X91474765Y-103947193D01*
X91768396Y-103951532D01*
X91768396Y-103951532D01*
G37*
X91768396Y-103951532D02*
X91989819Y-103967278D01*
X92155648Y-103998527D01*
X92282496Y-104049372D01*
X92386977Y-104123910D01*
X92451664Y-104187978D01*
X92536464Y-104335639D01*
X92581734Y-104531704D01*
X92585519Y-104743761D01*
X92545861Y-104939399D01*
X92502589Y-105031920D01*
X92376139Y-105173128D01*
X92208243Y-105278762D01*
X92034463Y-105327502D01*
X92007709Y-105328597D01*
X91959827Y-105332457D01*
X91936130Y-105351022D01*
X91941268Y-105394768D01*
X91979893Y-105474172D01*
X92056655Y-105599711D01*
X92176207Y-105781861D01*
X92273503Y-105927291D01*
X92392215Y-106106003D01*
X92490347Y-106257115D01*
X92558441Y-106365813D01*
X92587039Y-106417284D01*
X92587369Y-106418866D01*
X92547386Y-106432526D01*
X92445676Y-106440583D01*
X92375702Y-106441577D01*
X92164035Y-106440523D01*
X91885526Y-106018565D01*
X91770808Y-105835091D01*
X91679650Y-105670661D01*
X91622104Y-105544538D01*
X91607018Y-105484883D01*
X91597340Y-105412909D01*
X91551595Y-105380918D01*
X91444718Y-105373200D01*
X91428772Y-105373158D01*
X91250526Y-105373158D01*
X91250526Y-106442632D01*
X91101988Y-106442632D01*
X90991881Y-106434479D01*
X90925755Y-106414679D01*
X90923743Y-106412924D01*
X90915941Y-106362237D01*
X90908906Y-106234212D01*
X90902917Y-106040636D01*
X90898256Y-105793294D01*
X90895203Y-105503969D01*
X90894039Y-105184448D01*
X90894035Y-105165205D01*
X90894035Y-105027843D01*
X91250526Y-105027843D01*
X91624548Y-105008212D01*
X91886633Y-104982888D01*
X92062695Y-104938834D01*
X92114723Y-104912474D01*
X92197746Y-104834440D01*
X92228825Y-104725194D01*
X92230877Y-104667666D01*
X92221384Y-104525838D01*
X92183541Y-104428619D01*
X92103301Y-104366943D01*
X91966618Y-104331746D01*
X91759445Y-104313962D01*
X91677498Y-104310523D01*
X91250526Y-104295082D01*
X91250526Y-105027843D01*
X90894035Y-105027843D01*
X90894035Y-103947193D01*
X91474765Y-103947193D01*
X91768396Y-103951532D01*
G36*
X89706903Y-103953573D02*
G01*
X89918584Y-103975993D01*
X90078128Y-104019374D01*
X90203681Y-104088638D01*
X90312717Y-104187978D01*
X90393614Y-104330070D01*
X90438126Y-104520614D01*
X90443834Y-104725664D01*
X90408317Y-104911275D01*
X90370130Y-104993101D01*
X90287143Y-105125501D01*
X90456905Y-105286991D01*
X90557409Y-105391293D01*
X90607810Y-105481383D01*
X90625077Y-105597492D01*
X90626598Y-105689329D01*
X90594481Y-105953940D01*
X90497660Y-106158120D01*
X90335173Y-106303724D01*
X90297573Y-106324525D01*
X90199461Y-106365116D01*
X90077748Y-106393998D01*
X89913418Y-106413969D01*
X89687455Y-106427829D01*
X89562310Y-106432758D01*
X89346551Y-106437628D01*
X89163596Y-106436695D01*
X89031566Y-106430412D01*
X88968583Y-106419233D01*
X88966755Y-106417837D01*
X88957974Y-106365817D01*
X88950056Y-106236524D01*
X88943318Y-106041804D01*
X88938074Y-105793505D01*
X88934642Y-105503474D01*
X88934111Y-105373158D01*
X89289825Y-105373158D01*
X89289825Y-105699942D01*
X89294101Y-105863775D01*
X89305374Y-105991706D01*
X89321310Y-106058523D01*
X89323246Y-106061057D01*
X89391274Y-106081766D01*
X89520493Y-106086442D01*
X89684913Y-106077578D01*
X89858548Y-106057666D01*
X90015411Y-106029197D01*
X90129516Y-105994664D01*
X90155015Y-105981297D01*
X90235118Y-105907269D01*
X90266955Y-105804050D01*
X90270176Y-105728622D01*
X90256265Y-105580756D01*
X90206074Y-105479065D01*
X90106915Y-105415765D01*
X89946103Y-105383070D01*
X89710948Y-105373196D01*
X89690877Y-105373158D01*
X89289825Y-105373158D01*
X88934111Y-105373158D01*
X88933337Y-105183558D01*
X88933333Y-105165205D01*
X88933333Y-104625598D01*
X89289825Y-104625598D01*
X89294040Y-104790670D01*
X89305164Y-104919948D01*
X89320916Y-104988446D01*
X89323246Y-104991647D01*
X89391183Y-105011192D01*
X89516097Y-105010981D01*
X89668978Y-104994684D01*
X89820813Y-104965969D01*
X89942591Y-104928506D01*
X89982119Y-104908318D01*
X90061442Y-104830328D01*
X90090500Y-104716026D01*
X90091930Y-104667666D01*
X90078937Y-104515354D01*
X90030224Y-104414347D01*
X89931188Y-104353409D01*
X89767224Y-104321302D01*
X89628423Y-104311042D01*
X89289825Y-104293944D01*
X89289825Y-104625598D01*
X88933333Y-104625598D01*
X88933333Y-103947193D01*
X89424940Y-103947193D01*
X89706903Y-103953573D01*
X89706903Y-103953573D01*
G37*
X89706903Y-103953573D02*
X89918584Y-103975993D01*
X90078128Y-104019374D01*
X90203681Y-104088638D01*
X90312717Y-104187978D01*
X90393614Y-104330070D01*
X90438126Y-104520614D01*
X90443834Y-104725664D01*
X90408317Y-104911275D01*
X90370130Y-104993101D01*
X90287143Y-105125501D01*
X90456905Y-105286991D01*
X90557409Y-105391293D01*
X90607810Y-105481383D01*
X90625077Y-105597492D01*
X90626598Y-105689329D01*
X90594481Y-105953940D01*
X90497660Y-106158120D01*
X90335173Y-106303724D01*
X90297573Y-106324525D01*
X90199461Y-106365116D01*
X90077748Y-106393998D01*
X89913418Y-106413969D01*
X89687455Y-106427829D01*
X89562310Y-106432758D01*
X89346551Y-106437628D01*
X89163596Y-106436695D01*
X89031566Y-106430412D01*
X88968583Y-106419233D01*
X88966755Y-106417837D01*
X88957974Y-106365817D01*
X88950056Y-106236524D01*
X88943318Y-106041804D01*
X88938074Y-105793505D01*
X88934642Y-105503474D01*
X88934111Y-105373158D01*
X89289825Y-105373158D01*
X89289825Y-105699942D01*
X89294101Y-105863775D01*
X89305374Y-105991706D01*
X89321310Y-106058523D01*
X89323246Y-106061057D01*
X89391274Y-106081766D01*
X89520493Y-106086442D01*
X89684913Y-106077578D01*
X89858548Y-106057666D01*
X90015411Y-106029197D01*
X90129516Y-105994664D01*
X90155015Y-105981297D01*
X90235118Y-105907269D01*
X90266955Y-105804050D01*
X90270176Y-105728622D01*
X90256265Y-105580756D01*
X90206074Y-105479065D01*
X90106915Y-105415765D01*
X89946103Y-105383070D01*
X89710948Y-105373196D01*
X89690877Y-105373158D01*
X89289825Y-105373158D01*
X88934111Y-105373158D01*
X88933337Y-105183558D01*
X88933333Y-105165205D01*
X88933333Y-104625598D01*
X89289825Y-104625598D01*
X89294040Y-104790670D01*
X89305164Y-104919948D01*
X89320916Y-104988446D01*
X89323246Y-104991647D01*
X89391183Y-105011192D01*
X89516097Y-105010981D01*
X89668978Y-104994684D01*
X89820813Y-104965969D01*
X89942591Y-104928506D01*
X89982119Y-104908318D01*
X90061442Y-104830328D01*
X90090500Y-104716026D01*
X90091930Y-104667666D01*
X90078937Y-104515354D01*
X90030224Y-104414347D01*
X89931188Y-104353409D01*
X89767224Y-104321302D01*
X89628423Y-104311042D01*
X89289825Y-104293944D01*
X89289825Y-104625598D01*
X88933333Y-104625598D01*
X88933333Y-103947193D01*
X89424940Y-103947193D01*
X89706903Y-103953573D01*
G36*
X86899063Y-103949776D02*
G01*
X86967335Y-103965975D01*
X87031662Y-104008468D01*
X87108114Y-104089934D01*
X87212766Y-104223051D01*
X87289808Y-104325053D01*
X87409221Y-104480141D01*
X87510131Y-104604565D01*
X87580156Y-104683459D01*
X87605213Y-104703825D01*
X87643605Y-104671193D01*
X87723515Y-104582148D01*
X87832432Y-104451158D01*
X87931982Y-104325965D01*
X88064819Y-104158198D01*
X88159443Y-104048995D01*
X88231399Y-103985835D01*
X88296233Y-103956200D01*
X88369490Y-103947570D01*
X88402295Y-103947193D01*
X88576842Y-103947193D01*
X88576842Y-106448012D01*
X88409737Y-106434182D01*
X88242632Y-106420351D01*
X88198070Y-104511831D01*
X87915260Y-104877539D01*
X87781940Y-105045128D01*
X87688858Y-105148514D01*
X87625859Y-105197000D01*
X87582786Y-105199891D01*
X87571393Y-105192574D01*
X87518522Y-105136249D01*
X87427629Y-105027447D01*
X87314191Y-104884968D01*
X87252624Y-104805368D01*
X86994912Y-104468835D01*
X86982920Y-105455734D01*
X86970927Y-106442632D01*
X86823241Y-106442632D01*
X86713434Y-106434434D01*
X86647679Y-106414538D01*
X86645848Y-106412924D01*
X86638046Y-106362237D01*
X86631011Y-106234212D01*
X86625023Y-106040636D01*
X86620361Y-105793294D01*
X86617308Y-105503969D01*
X86616144Y-105184448D01*
X86616140Y-105165205D01*
X86616140Y-103947193D01*
X86810773Y-103947193D01*
X86899063Y-103949776D01*
X86899063Y-103949776D01*
G37*
X86899063Y-103949776D02*
X86967335Y-103965975D01*
X87031662Y-104008468D01*
X87108114Y-104089934D01*
X87212766Y-104223051D01*
X87289808Y-104325053D01*
X87409221Y-104480141D01*
X87510131Y-104604565D01*
X87580156Y-104683459D01*
X87605213Y-104703825D01*
X87643605Y-104671193D01*
X87723515Y-104582148D01*
X87832432Y-104451158D01*
X87931982Y-104325965D01*
X88064819Y-104158198D01*
X88159443Y-104048995D01*
X88231399Y-103985835D01*
X88296233Y-103956200D01*
X88369490Y-103947570D01*
X88402295Y-103947193D01*
X88576842Y-103947193D01*
X88576842Y-106448012D01*
X88409737Y-106434182D01*
X88242632Y-106420351D01*
X88198070Y-104511831D01*
X87915260Y-104877539D01*
X87781940Y-105045128D01*
X87688858Y-105148514D01*
X87625859Y-105197000D01*
X87582786Y-105199891D01*
X87571393Y-105192574D01*
X87518522Y-105136249D01*
X87427629Y-105027447D01*
X87314191Y-104884968D01*
X87252624Y-104805368D01*
X86994912Y-104468835D01*
X86982920Y-105455734D01*
X86970927Y-106442632D01*
X86823241Y-106442632D01*
X86713434Y-106434434D01*
X86647679Y-106414538D01*
X86645848Y-106412924D01*
X86638046Y-106362237D01*
X86631011Y-106234212D01*
X86625023Y-106040636D01*
X86620361Y-105793294D01*
X86617308Y-105503969D01*
X86616144Y-105184448D01*
X86616140Y-105165205D01*
X86616140Y-103947193D01*
X86810773Y-103947193D01*
X86899063Y-103949776D01*
G36*
X86259649Y-104303685D02*
G01*
X85190176Y-104303685D01*
X85190176Y-105016667D01*
X85903158Y-105016667D01*
X85903158Y-105373158D01*
X85190176Y-105373158D01*
X85190176Y-106086141D01*
X86259649Y-106086141D01*
X86259649Y-106442632D01*
X85576374Y-106442632D01*
X85338109Y-106440788D01*
X85132059Y-106435703D01*
X84974354Y-106428050D01*
X84881124Y-106418501D01*
X84863392Y-106412924D01*
X84855590Y-106362237D01*
X84848555Y-106234212D01*
X84842566Y-106040636D01*
X84837905Y-105793294D01*
X84834852Y-105503969D01*
X84833688Y-105184448D01*
X84833684Y-105165205D01*
X84833684Y-103947193D01*
X86259649Y-103947193D01*
X86259649Y-104303685D01*
X86259649Y-104303685D01*
G37*
X86259649Y-104303685D02*
X85190176Y-104303685D01*
X85190176Y-105016667D01*
X85903158Y-105016667D01*
X85903158Y-105373158D01*
X85190176Y-105373158D01*
X85190176Y-106086141D01*
X86259649Y-106086141D01*
X86259649Y-106442632D01*
X85576374Y-106442632D01*
X85338109Y-106440788D01*
X85132059Y-106435703D01*
X84974354Y-106428050D01*
X84881124Y-106418501D01*
X84863392Y-106412924D01*
X84855590Y-106362237D01*
X84848555Y-106234212D01*
X84842566Y-106040636D01*
X84837905Y-105793294D01*
X84834852Y-105503969D01*
X84833688Y-105184448D01*
X84833684Y-105165205D01*
X84833684Y-103947193D01*
X86259649Y-103947193D01*
X86259649Y-104303685D01*
G36*
X84477193Y-104303685D02*
G01*
X84120702Y-104303685D01*
X84120702Y-106086141D01*
X84477193Y-106086141D01*
X84477193Y-106442632D01*
X83972164Y-106442632D01*
X83768296Y-106440153D01*
X83598319Y-106433426D01*
X83481366Y-106423514D01*
X83437427Y-106412924D01*
X83417036Y-106351771D01*
X83407771Y-106243502D01*
X83407719Y-106234679D01*
X83413587Y-106139547D01*
X83448299Y-106097266D01*
X83537517Y-106086450D01*
X83585965Y-106086141D01*
X83764211Y-106086141D01*
X83764211Y-104309065D01*
X83597105Y-104295234D01*
X83486781Y-104278988D01*
X83436734Y-104235874D01*
X83418141Y-104137068D01*
X83416170Y-104114299D01*
X83402339Y-103947193D01*
X84477193Y-103947193D01*
X84477193Y-104303685D01*
X84477193Y-104303685D01*
G37*
X84477193Y-104303685D02*
X84120702Y-104303685D01*
X84120702Y-106086141D01*
X84477193Y-106086141D01*
X84477193Y-106442632D01*
X83972164Y-106442632D01*
X83768296Y-106440153D01*
X83598319Y-106433426D01*
X83481366Y-106423514D01*
X83437427Y-106412924D01*
X83417036Y-106351771D01*
X83407771Y-106243502D01*
X83407719Y-106234679D01*
X83413587Y-106139547D01*
X83448299Y-106097266D01*
X83537517Y-106086450D01*
X83585965Y-106086141D01*
X83764211Y-106086141D01*
X83764211Y-104309065D01*
X83597105Y-104295234D01*
X83486781Y-104278988D01*
X83436734Y-104235874D01*
X83418141Y-104137068D01*
X83416170Y-104114299D01*
X83402339Y-103947193D01*
X84477193Y-103947193D01*
X84477193Y-104303685D01*
G36*
X83051228Y-104303685D02*
G01*
X82338246Y-104303685D01*
X82338246Y-106442632D01*
X82189708Y-106442632D01*
X82079600Y-106434479D01*
X82013474Y-106414679D01*
X82011462Y-106412924D01*
X82003038Y-106361734D01*
X81995541Y-106234260D01*
X81989329Y-106043341D01*
X81984759Y-105801812D01*
X81982189Y-105522513D01*
X81981755Y-105345325D01*
X81981755Y-104307434D01*
X81291053Y-104281404D01*
X81277222Y-104114299D01*
X81263392Y-103947193D01*
X83051228Y-103947193D01*
X83051228Y-104303685D01*
X83051228Y-104303685D01*
G37*
X83051228Y-104303685D02*
X82338246Y-104303685D01*
X82338246Y-106442632D01*
X82189708Y-106442632D01*
X82079600Y-106434479D01*
X82013474Y-106414679D01*
X82011462Y-106412924D01*
X82003038Y-106361734D01*
X81995541Y-106234260D01*
X81989329Y-106043341D01*
X81984759Y-105801812D01*
X81982189Y-105522513D01*
X81981755Y-105345325D01*
X81981755Y-104307434D01*
X81291053Y-104281404D01*
X81277222Y-104114299D01*
X81263392Y-103947193D01*
X83051228Y-103947193D01*
X83051228Y-104303685D01*
G36*
X80182431Y-103951532D02*
G01*
X80403854Y-103967278D01*
X80569683Y-103998527D01*
X80696531Y-104049372D01*
X80801012Y-104123910D01*
X80865699Y-104187978D01*
X80933237Y-104282504D01*
X80971442Y-104401664D01*
X80990271Y-104576981D01*
X80990652Y-104583633D01*
X80983072Y-104832128D01*
X80924382Y-105025152D01*
X80807559Y-105168761D01*
X80625584Y-105269012D01*
X80371434Y-105331962D01*
X80089631Y-105360893D01*
X79664562Y-105386253D01*
X79664562Y-106442632D01*
X79516024Y-106442632D01*
X79405916Y-106434479D01*
X79339790Y-106414679D01*
X79337778Y-106412924D01*
X79329976Y-106362237D01*
X79322941Y-106234212D01*
X79316952Y-106040636D01*
X79312291Y-105793294D01*
X79309238Y-105503969D01*
X79308074Y-105184448D01*
X79308070Y-105165205D01*
X79308070Y-104303685D01*
X79664562Y-104303685D01*
X79664562Y-104630468D01*
X79668838Y-104794301D01*
X79680111Y-104922232D01*
X79696047Y-104989049D01*
X79697983Y-104991583D01*
X79766011Y-105012292D01*
X79895229Y-105016968D01*
X80059650Y-105008104D01*
X80233285Y-104988192D01*
X80390148Y-104959723D01*
X80504252Y-104925190D01*
X80529752Y-104911823D01*
X80609855Y-104837795D01*
X80641692Y-104734577D01*
X80644912Y-104659149D01*
X80631001Y-104511282D01*
X80580810Y-104409592D01*
X80481652Y-104346291D01*
X80320839Y-104313597D01*
X80085685Y-104303722D01*
X80065614Y-104303685D01*
X79664562Y-104303685D01*
X79308070Y-104303685D01*
X79308070Y-103947193D01*
X79888800Y-103947193D01*
X80182431Y-103951532D01*
X80182431Y-103951532D01*
G37*
X80182431Y-103951532D02*
X80403854Y-103967278D01*
X80569683Y-103998527D01*
X80696531Y-104049372D01*
X80801012Y-104123910D01*
X80865699Y-104187978D01*
X80933237Y-104282504D01*
X80971442Y-104401664D01*
X80990271Y-104576981D01*
X80990652Y-104583633D01*
X80983072Y-104832128D01*
X80924382Y-105025152D01*
X80807559Y-105168761D01*
X80625584Y-105269012D01*
X80371434Y-105331962D01*
X80089631Y-105360893D01*
X79664562Y-105386253D01*
X79664562Y-106442632D01*
X79516024Y-106442632D01*
X79405916Y-106434479D01*
X79339790Y-106414679D01*
X79337778Y-106412924D01*
X79329976Y-106362237D01*
X79322941Y-106234212D01*
X79316952Y-106040636D01*
X79312291Y-105793294D01*
X79309238Y-105503969D01*
X79308074Y-105184448D01*
X79308070Y-105165205D01*
X79308070Y-104303685D01*
X79664562Y-104303685D01*
X79664562Y-104630468D01*
X79668838Y-104794301D01*
X79680111Y-104922232D01*
X79696047Y-104989049D01*
X79697983Y-104991583D01*
X79766011Y-105012292D01*
X79895229Y-105016968D01*
X80059650Y-105008104D01*
X80233285Y-104988192D01*
X80390148Y-104959723D01*
X80504252Y-104925190D01*
X80529752Y-104911823D01*
X80609855Y-104837795D01*
X80641692Y-104734577D01*
X80644912Y-104659149D01*
X80631001Y-104511282D01*
X80580810Y-104409592D01*
X80481652Y-104346291D01*
X80320839Y-104313597D01*
X80085685Y-104303722D01*
X80065614Y-104303685D01*
X79664562Y-104303685D01*
X79308070Y-104303685D01*
X79308070Y-103947193D01*
X79888800Y-103947193D01*
X80182431Y-103951532D01*
G36*
X78951579Y-104303685D02*
G01*
X77878356Y-104303685D01*
X77891371Y-104649036D01*
X77904386Y-104994386D01*
X78595088Y-105020416D01*
X78595088Y-105373158D01*
X77878356Y-105373158D01*
X77904386Y-106063860D01*
X78427983Y-106076415D01*
X78951579Y-106088969D01*
X78951579Y-106442632D01*
X78268304Y-106442632D01*
X78030039Y-106440788D01*
X77823989Y-106435703D01*
X77666284Y-106428050D01*
X77573053Y-106418501D01*
X77555322Y-106412924D01*
X77547520Y-106362237D01*
X77540485Y-106234212D01*
X77534496Y-106040636D01*
X77529835Y-105793294D01*
X77526782Y-105503969D01*
X77525618Y-105184448D01*
X77525614Y-105165205D01*
X77525614Y-103947193D01*
X78951579Y-103947193D01*
X78951579Y-104303685D01*
X78951579Y-104303685D01*
G37*
X78951579Y-104303685D02*
X77878356Y-104303685D01*
X77891371Y-104649036D01*
X77904386Y-104994386D01*
X78595088Y-105020416D01*
X78595088Y-105373158D01*
X77878356Y-105373158D01*
X77904386Y-106063860D01*
X78427983Y-106076415D01*
X78951579Y-106088969D01*
X78951579Y-106442632D01*
X78268304Y-106442632D01*
X78030039Y-106440788D01*
X77823989Y-106435703D01*
X77666284Y-106428050D01*
X77573053Y-106418501D01*
X77555322Y-106412924D01*
X77547520Y-106362237D01*
X77540485Y-106234212D01*
X77534496Y-106040636D01*
X77529835Y-105793294D01*
X77526782Y-105503969D01*
X77525618Y-105184448D01*
X77525614Y-105165205D01*
X77525614Y-103947193D01*
X78951579Y-103947193D01*
X78951579Y-104303685D01*
G36*
X76623099Y-103957922D02*
G01*
X76859544Y-103984177D01*
X77019730Y-104025547D01*
X77116155Y-104089093D01*
X77161316Y-104181871D01*
X77169123Y-104266276D01*
X77166554Y-104375153D01*
X77160166Y-104433660D01*
X77157983Y-104436887D01*
X77112839Y-104424835D01*
X77009394Y-104394503D01*
X76928093Y-104370044D01*
X76742319Y-104328774D01*
X76539800Y-104307035D01*
X76354010Y-104306638D01*
X76218420Y-104329393D01*
X76213049Y-104331365D01*
X76127098Y-104403605D01*
X76061538Y-104524280D01*
X76035385Y-104652716D01*
X76040857Y-104699694D01*
X76072354Y-104764873D01*
X76139293Y-104826025D01*
X76255153Y-104891165D01*
X76433417Y-104968306D01*
X76603217Y-105033988D01*
X76866233Y-105145352D01*
X77052029Y-105257653D01*
X77171804Y-105383015D01*
X77236755Y-105533559D01*
X77258081Y-105721411D01*
X77258246Y-105743127D01*
X77217792Y-105965293D01*
X77104043Y-106152138D01*
X76928414Y-106296032D01*
X76702321Y-106389345D01*
X76437180Y-106424445D01*
X76255614Y-106413285D01*
X76127341Y-106386114D01*
X75973358Y-106340524D01*
X75932544Y-106326240D01*
X75815558Y-106277599D01*
X75760455Y-106225195D01*
X75744071Y-106138626D01*
X75743158Y-106077688D01*
X75748751Y-105964725D01*
X75772124Y-105921643D01*
X75821140Y-105928751D01*
X76122384Y-106024876D01*
X76385032Y-106066286D01*
X76601686Y-106054417D01*
X76764950Y-105990704D01*
X76867427Y-105876583D01*
X76901755Y-105719079D01*
X76878338Y-105624967D01*
X76801427Y-105538874D01*
X76661030Y-105453811D01*
X76447154Y-105362792D01*
X76332241Y-105320836D01*
X76049226Y-105191085D01*
X75844382Y-105030898D01*
X75720145Y-104843602D01*
X75678953Y-104632521D01*
X75703465Y-104462612D01*
X75805240Y-104242862D01*
X75971097Y-104083776D01*
X76198618Y-103986679D01*
X76485388Y-103952897D01*
X76623099Y-103957922D01*
X76623099Y-103957922D01*
G37*
X76623099Y-103957922D02*
X76859544Y-103984177D01*
X77019730Y-104025547D01*
X77116155Y-104089093D01*
X77161316Y-104181871D01*
X77169123Y-104266276D01*
X77166554Y-104375153D01*
X77160166Y-104433660D01*
X77157983Y-104436887D01*
X77112839Y-104424835D01*
X77009394Y-104394503D01*
X76928093Y-104370044D01*
X76742319Y-104328774D01*
X76539800Y-104307035D01*
X76354010Y-104306638D01*
X76218420Y-104329393D01*
X76213049Y-104331365D01*
X76127098Y-104403605D01*
X76061538Y-104524280D01*
X76035385Y-104652716D01*
X76040857Y-104699694D01*
X76072354Y-104764873D01*
X76139293Y-104826025D01*
X76255153Y-104891165D01*
X76433417Y-104968306D01*
X76603217Y-105033988D01*
X76866233Y-105145352D01*
X77052029Y-105257653D01*
X77171804Y-105383015D01*
X77236755Y-105533559D01*
X77258081Y-105721411D01*
X77258246Y-105743127D01*
X77217792Y-105965293D01*
X77104043Y-106152138D01*
X76928414Y-106296032D01*
X76702321Y-106389345D01*
X76437180Y-106424445D01*
X76255614Y-106413285D01*
X76127341Y-106386114D01*
X75973358Y-106340524D01*
X75932544Y-106326240D01*
X75815558Y-106277599D01*
X75760455Y-106225195D01*
X75744071Y-106138626D01*
X75743158Y-106077688D01*
X75748751Y-105964725D01*
X75772124Y-105921643D01*
X75821140Y-105928751D01*
X76122384Y-106024876D01*
X76385032Y-106066286D01*
X76601686Y-106054417D01*
X76764950Y-105990704D01*
X76867427Y-105876583D01*
X76901755Y-105719079D01*
X76878338Y-105624967D01*
X76801427Y-105538874D01*
X76661030Y-105453811D01*
X76447154Y-105362792D01*
X76332241Y-105320836D01*
X76049226Y-105191085D01*
X75844382Y-105030898D01*
X75720145Y-104843602D01*
X75678953Y-104632521D01*
X75703465Y-104462612D01*
X75805240Y-104242862D01*
X75971097Y-104083776D01*
X76198618Y-103986679D01*
X76485388Y-103952897D01*
X76623099Y-103957922D01*
G36*
X74673684Y-106442632D02*
G01*
X74525146Y-106442632D01*
X74415039Y-106434479D01*
X74348913Y-106414679D01*
X74346901Y-106412924D01*
X74337678Y-106361088D01*
X74329622Y-106234354D01*
X74323207Y-106046945D01*
X74318909Y-105813084D01*
X74317203Y-105546993D01*
X74317193Y-105524386D01*
X74317193Y-104665556D01*
X74150088Y-104651725D01*
X74039763Y-104635479D01*
X73989716Y-104592365D01*
X73971123Y-104493559D01*
X73969152Y-104470790D01*
X73955322Y-104303685D01*
X74317193Y-104303685D01*
X74317193Y-103947193D01*
X74673684Y-103947193D01*
X74673684Y-106442632D01*
X74673684Y-106442632D01*
G37*
X74673684Y-106442632D02*
X74525146Y-106442632D01*
X74415039Y-106434479D01*
X74348913Y-106414679D01*
X74346901Y-106412924D01*
X74337678Y-106361088D01*
X74329622Y-106234354D01*
X74323207Y-106046945D01*
X74318909Y-105813084D01*
X74317203Y-105546993D01*
X74317193Y-105524386D01*
X74317193Y-104665556D01*
X74150088Y-104651725D01*
X74039763Y-104635479D01*
X73989716Y-104592365D01*
X73971123Y-104493559D01*
X73969152Y-104470790D01*
X73955322Y-104303685D01*
X74317193Y-104303685D01*
X74317193Y-103947193D01*
X74673684Y-103947193D01*
X74673684Y-106442632D01*
G36*
X72456312Y-103949774D02*
G01*
X72521741Y-103965205D01*
X72585918Y-104005026D01*
X72663088Y-104080773D01*
X72767498Y-104203983D01*
X72906012Y-104376908D01*
X73247719Y-104806622D01*
X73246932Y-105190153D01*
X73246144Y-105573685D01*
X72888168Y-106008158D01*
X72737645Y-106188817D01*
X72629031Y-106311071D01*
X72548713Y-106386226D01*
X72483075Y-106425591D01*
X72418505Y-106440473D01*
X72365360Y-106442377D01*
X72295139Y-106438247D01*
X72233740Y-106418644D01*
X72168313Y-106372383D01*
X72086009Y-106288275D01*
X71973979Y-106155135D01*
X71832895Y-105978822D01*
X71465263Y-105515523D01*
X71465263Y-105180142D01*
X71821755Y-105180142D01*
X71825371Y-105301538D01*
X71843414Y-105397272D01*
X71886680Y-105491538D01*
X71965959Y-105608529D01*
X72077983Y-105754470D01*
X72192714Y-105897308D01*
X72288191Y-106009074D01*
X72350675Y-106074027D01*
X72365711Y-106084090D01*
X72405933Y-106052632D01*
X72486684Y-105966794D01*
X72593507Y-105842337D01*
X72644220Y-105780423D01*
X72762551Y-105631256D01*
X72835377Y-105524339D01*
X72873737Y-105433039D01*
X72888674Y-105330719D01*
X72891227Y-105190744D01*
X72891228Y-105184524D01*
X72888435Y-105037012D01*
X72872362Y-104930604D01*
X72831474Y-104836005D01*
X72754231Y-104723921D01*
X72665019Y-104610154D01*
X72554983Y-104472883D01*
X72464235Y-104361442D01*
X72408675Y-104295310D01*
X72401895Y-104287877D01*
X72360629Y-104304047D01*
X72279187Y-104378261D01*
X72170965Y-104497338D01*
X72093368Y-104591586D01*
X71967719Y-104752667D01*
X71888287Y-104867909D01*
X71844519Y-104960179D01*
X71825864Y-105052341D01*
X71821769Y-105167261D01*
X71821755Y-105180142D01*
X71465263Y-105180142D01*
X71465263Y-104849835D01*
X71825861Y-104398514D01*
X71974233Y-104214084D01*
X72080911Y-104088292D01*
X72159552Y-104009923D01*
X72223812Y-103967763D01*
X72287344Y-103950596D01*
X72363804Y-103947207D01*
X72375382Y-103947193D01*
X72456312Y-103949774D01*
X72456312Y-103949774D01*
G37*
X72456312Y-103949774D02*
X72521741Y-103965205D01*
X72585918Y-104005026D01*
X72663088Y-104080773D01*
X72767498Y-104203983D01*
X72906012Y-104376908D01*
X73247719Y-104806622D01*
X73246932Y-105190153D01*
X73246144Y-105573685D01*
X72888168Y-106008158D01*
X72737645Y-106188817D01*
X72629031Y-106311071D01*
X72548713Y-106386226D01*
X72483075Y-106425591D01*
X72418505Y-106440473D01*
X72365360Y-106442377D01*
X72295139Y-106438247D01*
X72233740Y-106418644D01*
X72168313Y-106372383D01*
X72086009Y-106288275D01*
X71973979Y-106155135D01*
X71832895Y-105978822D01*
X71465263Y-105515523D01*
X71465263Y-105180142D01*
X71821755Y-105180142D01*
X71825371Y-105301538D01*
X71843414Y-105397272D01*
X71886680Y-105491538D01*
X71965959Y-105608529D01*
X72077983Y-105754470D01*
X72192714Y-105897308D01*
X72288191Y-106009074D01*
X72350675Y-106074027D01*
X72365711Y-106084090D01*
X72405933Y-106052632D01*
X72486684Y-105966794D01*
X72593507Y-105842337D01*
X72644220Y-105780423D01*
X72762551Y-105631256D01*
X72835377Y-105524339D01*
X72873737Y-105433039D01*
X72888674Y-105330719D01*
X72891227Y-105190744D01*
X72891228Y-105184524D01*
X72888435Y-105037012D01*
X72872362Y-104930604D01*
X72831474Y-104836005D01*
X72754231Y-104723921D01*
X72665019Y-104610154D01*
X72554983Y-104472883D01*
X72464235Y-104361442D01*
X72408675Y-104295310D01*
X72401895Y-104287877D01*
X72360629Y-104304047D01*
X72279187Y-104378261D01*
X72170965Y-104497338D01*
X72093368Y-104591586D01*
X71967719Y-104752667D01*
X71888287Y-104867909D01*
X71844519Y-104960179D01*
X71825864Y-105052341D01*
X71821769Y-105167261D01*
X71821755Y-105180142D01*
X71465263Y-105180142D01*
X71465263Y-104849835D01*
X71825861Y-104398514D01*
X71974233Y-104214084D01*
X72080911Y-104088292D01*
X72159552Y-104009923D01*
X72223812Y-103967763D01*
X72287344Y-103950596D01*
X72363804Y-103947207D01*
X72375382Y-103947193D01*
X72456312Y-103949774D01*
G36*
X66812816Y-103984192D02*
G01*
X67087346Y-104096466D01*
X67318321Y-104286117D01*
X67488202Y-104518632D01*
X67545279Y-104623706D01*
X67581311Y-104720468D01*
X67601051Y-104834293D01*
X67609252Y-104990559D01*
X67610702Y-105172632D01*
X67607446Y-105394218D01*
X67595162Y-105551280D01*
X67570073Y-105668260D01*
X67528405Y-105769602D01*
X67514344Y-105796492D01*
X67325385Y-106058313D01*
X67083600Y-106253291D01*
X66800738Y-106376009D01*
X66488548Y-106421046D01*
X66215446Y-106395526D01*
X66001896Y-106317690D01*
X65788691Y-106180423D01*
X65609453Y-106006972D01*
X65562224Y-105943888D01*
X65420580Y-105658024D01*
X65353045Y-105344072D01*
X65354603Y-105241579D01*
X65704193Y-105241579D01*
X65748821Y-105503111D01*
X65855012Y-105734850D01*
X65976519Y-105878711D01*
X66171981Y-105999024D01*
X66406436Y-106055487D01*
X66654204Y-106045576D01*
X66886769Y-105968225D01*
X67039221Y-105845833D01*
X67163726Y-105661220D01*
X67245385Y-105440330D01*
X67267254Y-105305699D01*
X67271544Y-105037561D01*
X67230186Y-104826655D01*
X67137526Y-104650569D01*
X67085604Y-104585743D01*
X66886065Y-104416644D01*
X66662065Y-104322717D01*
X66429642Y-104302287D01*
X66204833Y-104353681D01*
X66003676Y-104475226D01*
X65842209Y-104665248D01*
X65812296Y-104718612D01*
X65724296Y-104972622D01*
X65704193Y-105241579D01*
X65354603Y-105241579D01*
X65357959Y-105020820D01*
X65433662Y-104707059D01*
X65578492Y-104421579D01*
X65711241Y-104257678D01*
X65901128Y-104094852D01*
X66103198Y-103996820D01*
X66344833Y-103952695D01*
X66491497Y-103947442D01*
X66812816Y-103984192D01*
X66812816Y-103984192D01*
G37*
X66812816Y-103984192D02*
X67087346Y-104096466D01*
X67318321Y-104286117D01*
X67488202Y-104518632D01*
X67545279Y-104623706D01*
X67581311Y-104720468D01*
X67601051Y-104834293D01*
X67609252Y-104990559D01*
X67610702Y-105172632D01*
X67607446Y-105394218D01*
X67595162Y-105551280D01*
X67570073Y-105668260D01*
X67528405Y-105769602D01*
X67514344Y-105796492D01*
X67325385Y-106058313D01*
X67083600Y-106253291D01*
X66800738Y-106376009D01*
X66488548Y-106421046D01*
X66215446Y-106395526D01*
X66001896Y-106317690D01*
X65788691Y-106180423D01*
X65609453Y-106006972D01*
X65562224Y-105943888D01*
X65420580Y-105658024D01*
X65353045Y-105344072D01*
X65354603Y-105241579D01*
X65704193Y-105241579D01*
X65748821Y-105503111D01*
X65855012Y-105734850D01*
X65976519Y-105878711D01*
X66171981Y-105999024D01*
X66406436Y-106055487D01*
X66654204Y-106045576D01*
X66886769Y-105968225D01*
X67039221Y-105845833D01*
X67163726Y-105661220D01*
X67245385Y-105440330D01*
X67267254Y-105305699D01*
X67271544Y-105037561D01*
X67230186Y-104826655D01*
X67137526Y-104650569D01*
X67085604Y-104585743D01*
X66886065Y-104416644D01*
X66662065Y-104322717D01*
X66429642Y-104302287D01*
X66204833Y-104353681D01*
X66003676Y-104475226D01*
X65842209Y-104665248D01*
X65812296Y-104718612D01*
X65724296Y-104972622D01*
X65704193Y-105241579D01*
X65354603Y-105241579D01*
X65357959Y-105020820D01*
X65433662Y-104707059D01*
X65578492Y-104421579D01*
X65711241Y-104257678D01*
X65901128Y-104094852D01*
X66103198Y-103996820D01*
X66344833Y-103952695D01*
X66491497Y-103947442D01*
X66812816Y-103984192D01*
G36*
X65048421Y-104303685D02*
G01*
X64335439Y-104303685D01*
X64335439Y-106442632D01*
X64186901Y-106442632D01*
X64076793Y-106434479D01*
X64010667Y-106414679D01*
X64008655Y-106412924D01*
X64000230Y-106361734D01*
X63992734Y-106234260D01*
X63986522Y-106043341D01*
X63981952Y-105801812D01*
X63979382Y-105522513D01*
X63978947Y-105345325D01*
X63978947Y-104307434D01*
X63633597Y-104294419D01*
X63288246Y-104281404D01*
X63274415Y-104114299D01*
X63260585Y-103947193D01*
X65048421Y-103947193D01*
X65048421Y-104303685D01*
X65048421Y-104303685D01*
G37*
X65048421Y-104303685D02*
X64335439Y-104303685D01*
X64335439Y-106442632D01*
X64186901Y-106442632D01*
X64076793Y-106434479D01*
X64010667Y-106414679D01*
X64008655Y-106412924D01*
X64000230Y-106361734D01*
X63992734Y-106234260D01*
X63986522Y-106043341D01*
X63981952Y-105801812D01*
X63979382Y-105522513D01*
X63978947Y-105345325D01*
X63978947Y-104307434D01*
X63633597Y-104294419D01*
X63288246Y-104281404D01*
X63274415Y-104114299D01*
X63260585Y-103947193D01*
X65048421Y-103947193D01*
X65048421Y-104303685D01*
G36*
X62363450Y-103957922D02*
G01*
X62599895Y-103984177D01*
X62760081Y-104025547D01*
X62856506Y-104089093D01*
X62901667Y-104181871D01*
X62909474Y-104266276D01*
X62906904Y-104375153D01*
X62900517Y-104433660D01*
X62898333Y-104436887D01*
X62853190Y-104424835D01*
X62749745Y-104394503D01*
X62668444Y-104370044D01*
X62482669Y-104328774D01*
X62280151Y-104307035D01*
X62094361Y-104306638D01*
X61958771Y-104329393D01*
X61953400Y-104331365D01*
X61867449Y-104403605D01*
X61801889Y-104524280D01*
X61775736Y-104652716D01*
X61781208Y-104699694D01*
X61812705Y-104764873D01*
X61879643Y-104826025D01*
X61995504Y-104891165D01*
X62173768Y-104968306D01*
X62343568Y-105033988D01*
X62606584Y-105145352D01*
X62792380Y-105257653D01*
X62912154Y-105383015D01*
X62977106Y-105533559D01*
X62998432Y-105721411D01*
X62998597Y-105743127D01*
X62958143Y-105965293D01*
X62844394Y-106152138D01*
X62668765Y-106296032D01*
X62442672Y-106389345D01*
X62177531Y-106424445D01*
X61995965Y-106413285D01*
X61867691Y-106386114D01*
X61713709Y-106340524D01*
X61672895Y-106326240D01*
X61555908Y-106277599D01*
X61500806Y-106225195D01*
X61484422Y-106138626D01*
X61483509Y-106077688D01*
X61489102Y-105964725D01*
X61512475Y-105921643D01*
X61561491Y-105928751D01*
X61862735Y-106024876D01*
X62125383Y-106066286D01*
X62342037Y-106054417D01*
X62505301Y-105990704D01*
X62607778Y-105876583D01*
X62642105Y-105719079D01*
X62618689Y-105624967D01*
X62541778Y-105538874D01*
X62401380Y-105453811D01*
X62187504Y-105362792D01*
X62072592Y-105320836D01*
X61789577Y-105191085D01*
X61584733Y-105030898D01*
X61460496Y-104843602D01*
X61419304Y-104632521D01*
X61443816Y-104462612D01*
X61545591Y-104242862D01*
X61711448Y-104083776D01*
X61938969Y-103986679D01*
X62225738Y-103952897D01*
X62363450Y-103957922D01*
X62363450Y-103957922D01*
G37*
X62363450Y-103957922D02*
X62599895Y-103984177D01*
X62760081Y-104025547D01*
X62856506Y-104089093D01*
X62901667Y-104181871D01*
X62909474Y-104266276D01*
X62906904Y-104375153D01*
X62900517Y-104433660D01*
X62898333Y-104436887D01*
X62853190Y-104424835D01*
X62749745Y-104394503D01*
X62668444Y-104370044D01*
X62482669Y-104328774D01*
X62280151Y-104307035D01*
X62094361Y-104306638D01*
X61958771Y-104329393D01*
X61953400Y-104331365D01*
X61867449Y-104403605D01*
X61801889Y-104524280D01*
X61775736Y-104652716D01*
X61781208Y-104699694D01*
X61812705Y-104764873D01*
X61879643Y-104826025D01*
X61995504Y-104891165D01*
X62173768Y-104968306D01*
X62343568Y-105033988D01*
X62606584Y-105145352D01*
X62792380Y-105257653D01*
X62912154Y-105383015D01*
X62977106Y-105533559D01*
X62998432Y-105721411D01*
X62998597Y-105743127D01*
X62958143Y-105965293D01*
X62844394Y-106152138D01*
X62668765Y-106296032D01*
X62442672Y-106389345D01*
X62177531Y-106424445D01*
X61995965Y-106413285D01*
X61867691Y-106386114D01*
X61713709Y-106340524D01*
X61672895Y-106326240D01*
X61555908Y-106277599D01*
X61500806Y-106225195D01*
X61484422Y-106138626D01*
X61483509Y-106077688D01*
X61489102Y-105964725D01*
X61512475Y-105921643D01*
X61561491Y-105928751D01*
X61862735Y-106024876D01*
X62125383Y-106066286D01*
X62342037Y-106054417D01*
X62505301Y-105990704D01*
X62607778Y-105876583D01*
X62642105Y-105719079D01*
X62618689Y-105624967D01*
X62541778Y-105538874D01*
X62401380Y-105453811D01*
X62187504Y-105362792D01*
X62072592Y-105320836D01*
X61789577Y-105191085D01*
X61584733Y-105030898D01*
X61460496Y-104843602D01*
X61419304Y-104632521D01*
X61443816Y-104462612D01*
X61545591Y-104242862D01*
X61711448Y-104083776D01*
X61938969Y-103986679D01*
X62225738Y-103952897D01*
X62363450Y-103957922D01*
G36*
X60395973Y-103984192D02*
G01*
X60670504Y-104096466D01*
X60901479Y-104286117D01*
X61071360Y-104518632D01*
X61128437Y-104623706D01*
X61164469Y-104720468D01*
X61184209Y-104834293D01*
X61192410Y-104990559D01*
X61193860Y-105172632D01*
X61190604Y-105394218D01*
X61178319Y-105551280D01*
X61153231Y-105668260D01*
X61111563Y-105769602D01*
X61097501Y-105796492D01*
X60908542Y-106058313D01*
X60666758Y-106253291D01*
X60383896Y-106376009D01*
X60071706Y-106421046D01*
X59798604Y-106395526D01*
X59585054Y-106317690D01*
X59371849Y-106180423D01*
X59192610Y-106006972D01*
X59145382Y-105943888D01*
X59003737Y-105658024D01*
X58936202Y-105344072D01*
X58937760Y-105241579D01*
X59287351Y-105241579D01*
X59331979Y-105503111D01*
X59438170Y-105734850D01*
X59559677Y-105878711D01*
X59755139Y-105999024D01*
X59989593Y-106055487D01*
X60237362Y-106045576D01*
X60469927Y-105968225D01*
X60622379Y-105845833D01*
X60746884Y-105661220D01*
X60828543Y-105440330D01*
X60850412Y-105305699D01*
X60854702Y-105037561D01*
X60813344Y-104826655D01*
X60720684Y-104650569D01*
X60668762Y-104585743D01*
X60469223Y-104416644D01*
X60245223Y-104322717D01*
X60012800Y-104302287D01*
X59787991Y-104353681D01*
X59586834Y-104475226D01*
X59425367Y-104665248D01*
X59395454Y-104718612D01*
X59307454Y-104972622D01*
X59287351Y-105241579D01*
X58937760Y-105241579D01*
X58941117Y-105020820D01*
X59016819Y-104707059D01*
X59161650Y-104421579D01*
X59294399Y-104257678D01*
X59484286Y-104094852D01*
X59686356Y-103996820D01*
X59927991Y-103952695D01*
X60074655Y-103947442D01*
X60395973Y-103984192D01*
X60395973Y-103984192D01*
G37*
X60395973Y-103984192D02*
X60670504Y-104096466D01*
X60901479Y-104286117D01*
X61071360Y-104518632D01*
X61128437Y-104623706D01*
X61164469Y-104720468D01*
X61184209Y-104834293D01*
X61192410Y-104990559D01*
X61193860Y-105172632D01*
X61190604Y-105394218D01*
X61178319Y-105551280D01*
X61153231Y-105668260D01*
X61111563Y-105769602D01*
X61097501Y-105796492D01*
X60908542Y-106058313D01*
X60666758Y-106253291D01*
X60383896Y-106376009D01*
X60071706Y-106421046D01*
X59798604Y-106395526D01*
X59585054Y-106317690D01*
X59371849Y-106180423D01*
X59192610Y-106006972D01*
X59145382Y-105943888D01*
X59003737Y-105658024D01*
X58936202Y-105344072D01*
X58937760Y-105241579D01*
X59287351Y-105241579D01*
X59331979Y-105503111D01*
X59438170Y-105734850D01*
X59559677Y-105878711D01*
X59755139Y-105999024D01*
X59989593Y-106055487D01*
X60237362Y-106045576D01*
X60469927Y-105968225D01*
X60622379Y-105845833D01*
X60746884Y-105661220D01*
X60828543Y-105440330D01*
X60850412Y-105305699D01*
X60854702Y-105037561D01*
X60813344Y-104826655D01*
X60720684Y-104650569D01*
X60668762Y-104585743D01*
X60469223Y-104416644D01*
X60245223Y-104322717D01*
X60012800Y-104302287D01*
X59787991Y-104353681D01*
X59586834Y-104475226D01*
X59425367Y-104665248D01*
X59395454Y-104718612D01*
X59307454Y-104972622D01*
X59287351Y-105241579D01*
X58937760Y-105241579D01*
X58941117Y-105020820D01*
X59016819Y-104707059D01*
X59161650Y-104421579D01*
X59294399Y-104257678D01*
X59484286Y-104094852D01*
X59686356Y-103996820D01*
X59927991Y-103952695D01*
X60074655Y-103947442D01*
X60395973Y-103984192D01*
G36*
X58226241Y-103972473D02*
G01*
X58416018Y-104006220D01*
X58509035Y-104037915D01*
X58592341Y-104092931D01*
X58626558Y-104175041D01*
X58631579Y-104266276D01*
X58627694Y-104375286D01*
X58618035Y-104434059D01*
X58614740Y-104437369D01*
X58567004Y-104421798D01*
X58467835Y-104382825D01*
X58427154Y-104366026D01*
X58240761Y-104317853D01*
X57997620Y-104309651D01*
X57956329Y-104311639D01*
X57776663Y-104328253D01*
X57650509Y-104361096D01*
X57542380Y-104421666D01*
X57486635Y-104463827D01*
X57297581Y-104662489D01*
X57186451Y-104898624D01*
X57149216Y-105181038D01*
X57149259Y-105201379D01*
X57188377Y-105485913D01*
X57298575Y-105717394D01*
X57477889Y-105893830D01*
X57724354Y-106013231D01*
X58007171Y-106070834D01*
X58275088Y-106098837D01*
X58275088Y-105916933D01*
X58270272Y-105800817D01*
X58240203Y-105746361D01*
X58161451Y-105726119D01*
X58107983Y-105721199D01*
X57997658Y-105704953D01*
X57947611Y-105661839D01*
X57929018Y-105563033D01*
X57927047Y-105540264D01*
X57913217Y-105373158D01*
X58631579Y-105373158D01*
X58631579Y-106346428D01*
X58509035Y-106371512D01*
X58259172Y-106407122D01*
X58003637Y-106417592D01*
X57783930Y-106401581D01*
X57752258Y-106395957D01*
X57453036Y-106296722D01*
X57195649Y-106132476D01*
X56993600Y-105914958D01*
X56860393Y-105655905D01*
X56845273Y-105607554D01*
X56789666Y-105277768D01*
X56806675Y-104958308D01*
X56890243Y-104661836D01*
X57034315Y-104401019D01*
X57232836Y-104188518D01*
X57479750Y-104036999D01*
X57619681Y-103988006D01*
X57793095Y-103961403D01*
X58006941Y-103956880D01*
X58226241Y-103972473D01*
X58226241Y-103972473D01*
G37*
X58226241Y-103972473D02*
X58416018Y-104006220D01*
X58509035Y-104037915D01*
X58592341Y-104092931D01*
X58626558Y-104175041D01*
X58631579Y-104266276D01*
X58627694Y-104375286D01*
X58618035Y-104434059D01*
X58614740Y-104437369D01*
X58567004Y-104421798D01*
X58467835Y-104382825D01*
X58427154Y-104366026D01*
X58240761Y-104317853D01*
X57997620Y-104309651D01*
X57956329Y-104311639D01*
X57776663Y-104328253D01*
X57650509Y-104361096D01*
X57542380Y-104421666D01*
X57486635Y-104463827D01*
X57297581Y-104662489D01*
X57186451Y-104898624D01*
X57149216Y-105181038D01*
X57149259Y-105201379D01*
X57188377Y-105485913D01*
X57298575Y-105717394D01*
X57477889Y-105893830D01*
X57724354Y-106013231D01*
X58007171Y-106070834D01*
X58275088Y-106098837D01*
X58275088Y-105916933D01*
X58270272Y-105800817D01*
X58240203Y-105746361D01*
X58161451Y-105726119D01*
X58107983Y-105721199D01*
X57997658Y-105704953D01*
X57947611Y-105661839D01*
X57929018Y-105563033D01*
X57927047Y-105540264D01*
X57913217Y-105373158D01*
X58631579Y-105373158D01*
X58631579Y-106346428D01*
X58509035Y-106371512D01*
X58259172Y-106407122D01*
X58003637Y-106417592D01*
X57783930Y-106401581D01*
X57752258Y-106395957D01*
X57453036Y-106296722D01*
X57195649Y-106132476D01*
X56993600Y-105914958D01*
X56860393Y-105655905D01*
X56845273Y-105607554D01*
X56789666Y-105277768D01*
X56806675Y-104958308D01*
X56890243Y-104661836D01*
X57034315Y-104401019D01*
X57232836Y-104188518D01*
X57479750Y-104036999D01*
X57619681Y-103988006D01*
X57793095Y-103961403D01*
X58006941Y-103956880D01*
X58226241Y-103972473D01*
G36*
X56147390Y-105163196D02*
G01*
X56258301Y-105474745D01*
X56358758Y-105758954D01*
X56445004Y-106005033D01*
X56513282Y-106202187D01*
X56559835Y-106339626D01*
X56580907Y-106406556D01*
X56581755Y-106410916D01*
X56542349Y-106431275D01*
X56444595Y-106442096D01*
X56413885Y-106442632D01*
X56246015Y-106442632D01*
X56118891Y-106084849D01*
X55991768Y-105727067D01*
X55435091Y-105739498D01*
X54878414Y-105751930D01*
X54757829Y-106086141D01*
X54696000Y-106252545D01*
X54648993Y-106352798D01*
X54602129Y-106404845D01*
X54540731Y-106426635D01*
X54473184Y-106434182D01*
X54366727Y-106432334D01*
X54311447Y-106410061D01*
X54309123Y-106402564D01*
X54323558Y-106350369D01*
X54364345Y-106225308D01*
X54427705Y-106038386D01*
X54509859Y-105800613D01*
X54607028Y-105522995D01*
X54665266Y-105358363D01*
X55022105Y-105358363D01*
X55063436Y-105364728D01*
X55174507Y-105369720D01*
X55335941Y-105372661D01*
X55444406Y-105373158D01*
X55866706Y-105373158D01*
X55667213Y-104810798D01*
X55593574Y-104601495D01*
X55531989Y-104423189D01*
X55488032Y-104292256D01*
X55467272Y-104225075D01*
X55466364Y-104220360D01*
X55451065Y-104233617D01*
X55412025Y-104313938D01*
X55355784Y-104444568D01*
X55288885Y-104608749D01*
X55217868Y-104789727D01*
X55149275Y-104970746D01*
X55089646Y-105135048D01*
X55045525Y-105265879D01*
X55023450Y-105346483D01*
X55022105Y-105358363D01*
X54665266Y-105358363D01*
X54715435Y-105216542D01*
X54738347Y-105152155D01*
X55167572Y-103947193D01*
X55713025Y-103947193D01*
X56147390Y-105163196D01*
X56147390Y-105163196D01*
G37*
X56147390Y-105163196D02*
X56258301Y-105474745D01*
X56358758Y-105758954D01*
X56445004Y-106005033D01*
X56513282Y-106202187D01*
X56559835Y-106339626D01*
X56580907Y-106406556D01*
X56581755Y-106410916D01*
X56542349Y-106431275D01*
X56444595Y-106442096D01*
X56413885Y-106442632D01*
X56246015Y-106442632D01*
X56118891Y-106084849D01*
X55991768Y-105727067D01*
X55435091Y-105739498D01*
X54878414Y-105751930D01*
X54757829Y-106086141D01*
X54696000Y-106252545D01*
X54648993Y-106352798D01*
X54602129Y-106404845D01*
X54540731Y-106426635D01*
X54473184Y-106434182D01*
X54366727Y-106432334D01*
X54311447Y-106410061D01*
X54309123Y-106402564D01*
X54323558Y-106350369D01*
X54364345Y-106225308D01*
X54427705Y-106038386D01*
X54509859Y-105800613D01*
X54607028Y-105522995D01*
X54665266Y-105358363D01*
X55022105Y-105358363D01*
X55063436Y-105364728D01*
X55174507Y-105369720D01*
X55335941Y-105372661D01*
X55444406Y-105373158D01*
X55866706Y-105373158D01*
X55667213Y-104810798D01*
X55593574Y-104601495D01*
X55531989Y-104423189D01*
X55488032Y-104292256D01*
X55467272Y-104225075D01*
X55466364Y-104220360D01*
X55451065Y-104233617D01*
X55412025Y-104313938D01*
X55355784Y-104444568D01*
X55288885Y-104608749D01*
X55217868Y-104789727D01*
X55149275Y-104970746D01*
X55089646Y-105135048D01*
X55045525Y-105265879D01*
X55023450Y-105346483D01*
X55022105Y-105358363D01*
X54665266Y-105358363D01*
X54715435Y-105216542D01*
X54738347Y-105152155D01*
X55167572Y-103947193D01*
X55713025Y-103947193D01*
X56147390Y-105163196D01*
G36*
X52927719Y-105375987D02*
G01*
X52404123Y-105363432D01*
X51880526Y-105350878D01*
X51866847Y-105186311D01*
X51850261Y-105076976D01*
X51805914Y-105027706D01*
X51704759Y-105009453D01*
X51688602Y-105008065D01*
X51524035Y-104994386D01*
X51511020Y-104649036D01*
X51498006Y-104303685D01*
X51858246Y-104303685D01*
X51858246Y-105016667D01*
X52927719Y-105016667D01*
X52927719Y-104303685D01*
X53284211Y-104303685D01*
X53284211Y-106086141D01*
X52927719Y-106086141D01*
X52927719Y-105375987D01*
X52927719Y-105375987D01*
G37*
X52927719Y-105375987D02*
X52404123Y-105363432D01*
X51880526Y-105350878D01*
X51866847Y-105186311D01*
X51850261Y-105076976D01*
X51805914Y-105027706D01*
X51704759Y-105009453D01*
X51688602Y-105008065D01*
X51524035Y-104994386D01*
X51511020Y-104649036D01*
X51498006Y-104303685D01*
X51858246Y-104303685D01*
X51858246Y-105016667D01*
X52927719Y-105016667D01*
X52927719Y-104303685D01*
X53284211Y-104303685D01*
X53284211Y-106086141D01*
X52927719Y-106086141D01*
X52927719Y-105375987D01*
G36*
X51858246Y-103947193D02*
G01*
X52927719Y-103947193D01*
X52927719Y-104303685D01*
X51858246Y-104303685D01*
X51858246Y-103947193D01*
X51858246Y-103947193D01*
G37*
X51858246Y-103947193D02*
X52927719Y-103947193D01*
X52927719Y-104303685D01*
X51858246Y-104303685D01*
X51858246Y-103947193D01*
G36*
X52927719Y-106442632D02*
G01*
X52422690Y-106442632D01*
X52218823Y-106440153D01*
X52048845Y-106433426D01*
X51931892Y-106423514D01*
X51887953Y-106412924D01*
X51867562Y-106351771D01*
X51858297Y-106243502D01*
X51858246Y-106234679D01*
X51858246Y-106086141D01*
X52927719Y-106086141D01*
X52927719Y-106442632D01*
X52927719Y-106442632D01*
G37*
X52927719Y-106442632D02*
X52422690Y-106442632D01*
X52218823Y-106440153D01*
X52048845Y-106433426D01*
X51931892Y-106423514D01*
X51887953Y-106412924D01*
X51867562Y-106351771D01*
X51858297Y-106243502D01*
X51858246Y-106234679D01*
X51858246Y-106086141D01*
X52927719Y-106086141D01*
X52927719Y-106442632D01*
G36*
X49719298Y-103947193D02*
G01*
X50788772Y-103947193D01*
X50788772Y-104303685D01*
X49719298Y-104303685D01*
X49719298Y-103947193D01*
X49719298Y-103947193D01*
G37*
X49719298Y-103947193D02*
X50788772Y-103947193D01*
X50788772Y-104303685D01*
X49719298Y-104303685D01*
X49719298Y-103947193D01*
G36*
X50075790Y-105016667D02*
G01*
X50788772Y-105016667D01*
X50788772Y-105373158D01*
X50075790Y-105373158D01*
X50075790Y-105016667D01*
X50075790Y-105016667D01*
G37*
X50075790Y-105016667D02*
X50788772Y-105016667D01*
X50788772Y-105373158D01*
X50075790Y-105373158D01*
X50075790Y-105016667D01*
G36*
X50788772Y-104303685D02*
G01*
X51145263Y-104303685D01*
X51145263Y-105016667D01*
X50788772Y-105016667D01*
X50788772Y-104303685D01*
X50788772Y-104303685D01*
G37*
X50788772Y-104303685D02*
X51145263Y-104303685D01*
X51145263Y-105016667D01*
X50788772Y-105016667D01*
X50788772Y-104303685D01*
G36*
X49719298Y-104665556D02*
G01*
X49552193Y-104651725D01*
X49441869Y-104635479D01*
X49391822Y-104592365D01*
X49373228Y-104493559D01*
X49371258Y-104470790D01*
X49357427Y-104303685D01*
X49719298Y-104303685D01*
X49719298Y-104665556D01*
X49719298Y-104665556D01*
G37*
X49719298Y-104665556D02*
X49552193Y-104651725D01*
X49441869Y-104635479D01*
X49391822Y-104592365D01*
X49373228Y-104493559D01*
X49371258Y-104470790D01*
X49357427Y-104303685D01*
X49719298Y-104303685D01*
X49719298Y-104665556D01*
G36*
X50075790Y-105729650D02*
G01*
X49719298Y-105729650D01*
X49719298Y-105373158D01*
X50075790Y-105373158D01*
X50075790Y-105729650D01*
X50075790Y-105729650D01*
G37*
X50075790Y-105729650D02*
X49719298Y-105729650D01*
X49719298Y-105373158D01*
X50075790Y-105373158D01*
X50075790Y-105729650D01*
G36*
X49727749Y-105896755D02*
G01*
X49741579Y-106063860D01*
X51145263Y-106088404D01*
X51145263Y-106442632D01*
X50283743Y-106442632D01*
X50015225Y-106441162D01*
X49777767Y-106437069D01*
X49585565Y-106430826D01*
X49452820Y-106422906D01*
X49393728Y-106413782D01*
X49392515Y-106412924D01*
X49378040Y-106356764D01*
X49367468Y-106236273D01*
X49362861Y-106076223D01*
X49362807Y-106056433D01*
X49362807Y-105729650D01*
X49713918Y-105729650D01*
X49727749Y-105896755D01*
X49727749Y-105896755D01*
G37*
X49727749Y-105896755D02*
X49741579Y-106063860D01*
X51145263Y-106088404D01*
X51145263Y-106442632D01*
X50283743Y-106442632D01*
X50015225Y-106441162D01*
X49777767Y-106437069D01*
X49585565Y-106430826D01*
X49452820Y-106422906D01*
X49393728Y-106413782D01*
X49392515Y-106412924D01*
X49378040Y-106356764D01*
X49367468Y-106236273D01*
X49362861Y-106076223D01*
X49362807Y-106056433D01*
X49362807Y-105729650D01*
X49713918Y-105729650D01*
X49727749Y-105896755D01*
G36*
X62196491Y-116825439D02*
G01*
X62191601Y-116939597D01*
X62162675Y-116990335D01*
X62088327Y-117003313D01*
X62047953Y-117003685D01*
X61937846Y-116995532D01*
X61871720Y-116975731D01*
X61869708Y-116973977D01*
X61849317Y-116912823D01*
X61840052Y-116804555D01*
X61840000Y-116795731D01*
X61845868Y-116700600D01*
X61880580Y-116658318D01*
X61969798Y-116647503D01*
X62018246Y-116647193D01*
X62196491Y-116647193D01*
X62196491Y-116825439D01*
X62196491Y-116825439D01*
G37*
X62196491Y-116825439D02*
X62191601Y-116939597D01*
X62162675Y-116990335D01*
X62088327Y-117003313D01*
X62047953Y-117003685D01*
X61937846Y-116995532D01*
X61871720Y-116975731D01*
X61869708Y-116973977D01*
X61849317Y-116912823D01*
X61840052Y-116804555D01*
X61840000Y-116795731D01*
X61845868Y-116700600D01*
X61880580Y-116658318D01*
X61969798Y-116647503D01*
X62018246Y-116647193D01*
X62196491Y-116647193D01*
X62196491Y-116825439D01*
G36*
X62196491Y-118251404D02*
G01*
X62191601Y-118365562D01*
X62162675Y-118416300D01*
X62088327Y-118429278D01*
X62047953Y-118429650D01*
X61937846Y-118421497D01*
X61871720Y-118401696D01*
X61869708Y-118399942D01*
X61849317Y-118338788D01*
X61840052Y-118230519D01*
X61840000Y-118221696D01*
X61845868Y-118126564D01*
X61880580Y-118084283D01*
X61969798Y-118073468D01*
X62018246Y-118073158D01*
X62196491Y-118073158D01*
X62196491Y-118251404D01*
X62196491Y-118251404D01*
G37*
X62196491Y-118251404D02*
X62191601Y-118365562D01*
X62162675Y-118416300D01*
X62088327Y-118429278D01*
X62047953Y-118429650D01*
X61937846Y-118421497D01*
X61871720Y-118401696D01*
X61869708Y-118399942D01*
X61849317Y-118338788D01*
X61840052Y-118230519D01*
X61840000Y-118221696D01*
X61845868Y-118126564D01*
X61880580Y-118084283D01*
X61969798Y-118073468D01*
X62018246Y-118073158D01*
X62196491Y-118073158D01*
X62196491Y-118251404D01*
G36*
X61089114Y-116707722D02*
G01*
X61286428Y-116828011D01*
X61442117Y-117003001D01*
X61542046Y-117224401D01*
X61572632Y-117452200D01*
X61572632Y-117627544D01*
X60971053Y-117627544D01*
X60710906Y-117629260D01*
X60530657Y-117637269D01*
X60421107Y-117655865D01*
X60373053Y-117689341D01*
X60377295Y-117741991D01*
X60424631Y-117818108D01*
X60460986Y-117865548D01*
X60599051Y-117975182D01*
X60785485Y-118037002D01*
X60992238Y-118049052D01*
X61191259Y-118009375D01*
X61341633Y-117926969D01*
X61376928Y-117913452D01*
X61390247Y-117960174D01*
X61386194Y-118076063D01*
X61366440Y-118210048D01*
X61321681Y-118285837D01*
X61260702Y-118323567D01*
X61045479Y-118385313D01*
X60803340Y-118399383D01*
X60681404Y-118385558D01*
X60420886Y-118296995D01*
X60218305Y-118143157D01*
X60079132Y-117930806D01*
X60008834Y-117666709D01*
X60001182Y-117544176D01*
X60024455Y-117335682D01*
X60369474Y-117335682D01*
X60410806Y-117346207D01*
X60521900Y-117354467D01*
X60683402Y-117359341D01*
X60792807Y-117360176D01*
X61012303Y-117355245D01*
X61154636Y-117340854D01*
X61214520Y-117317600D01*
X61216140Y-117312187D01*
X61186993Y-117252870D01*
X61114256Y-117163467D01*
X61085884Y-117133941D01*
X60922718Y-117029845D01*
X60729777Y-116999061D01*
X60571997Y-117031365D01*
X60508263Y-117085564D01*
X60436427Y-117182913D01*
X60382552Y-117284251D01*
X60369474Y-117335682D01*
X60024455Y-117335682D01*
X60033669Y-117253144D01*
X60134159Y-117009047D01*
X60298393Y-116820529D01*
X60388809Y-116757967D01*
X60626168Y-116664409D01*
X60864315Y-116650424D01*
X61089114Y-116707722D01*
X61089114Y-116707722D01*
G37*
X61089114Y-116707722D02*
X61286428Y-116828011D01*
X61442117Y-117003001D01*
X61542046Y-117224401D01*
X61572632Y-117452200D01*
X61572632Y-117627544D01*
X60971053Y-117627544D01*
X60710906Y-117629260D01*
X60530657Y-117637269D01*
X60421107Y-117655865D01*
X60373053Y-117689341D01*
X60377295Y-117741991D01*
X60424631Y-117818108D01*
X60460986Y-117865548D01*
X60599051Y-117975182D01*
X60785485Y-118037002D01*
X60992238Y-118049052D01*
X61191259Y-118009375D01*
X61341633Y-117926969D01*
X61376928Y-117913452D01*
X61390247Y-117960174D01*
X61386194Y-118076063D01*
X61366440Y-118210048D01*
X61321681Y-118285837D01*
X61260702Y-118323567D01*
X61045479Y-118385313D01*
X60803340Y-118399383D01*
X60681404Y-118385558D01*
X60420886Y-118296995D01*
X60218305Y-118143157D01*
X60079132Y-117930806D01*
X60008834Y-117666709D01*
X60001182Y-117544176D01*
X60024455Y-117335682D01*
X60369474Y-117335682D01*
X60410806Y-117346207D01*
X60521900Y-117354467D01*
X60683402Y-117359341D01*
X60792807Y-117360176D01*
X61012303Y-117355245D01*
X61154636Y-117340854D01*
X61214520Y-117317600D01*
X61216140Y-117312187D01*
X61186993Y-117252870D01*
X61114256Y-117163467D01*
X61085884Y-117133941D01*
X60922718Y-117029845D01*
X60729777Y-116999061D01*
X60571997Y-117031365D01*
X60508263Y-117085564D01*
X60436427Y-117182913D01*
X60382552Y-117284251D01*
X60369474Y-117335682D01*
X60024455Y-117335682D01*
X60033669Y-117253144D01*
X60134159Y-117009047D01*
X60298393Y-116820529D01*
X60388809Y-116757967D01*
X60626168Y-116664409D01*
X60864315Y-116650424D01*
X61089114Y-116707722D01*
G36*
X59701053Y-116992094D02*
G01*
X59495106Y-117015307D01*
X59313345Y-117060028D01*
X59168140Y-117159966D01*
X59151819Y-117175860D01*
X59094847Y-117235530D01*
X59055740Y-117292117D01*
X59030430Y-117363775D01*
X59014848Y-117468658D01*
X59004923Y-117624920D01*
X58996586Y-117850715D01*
X58995896Y-117871425D01*
X58977311Y-118429650D01*
X58834153Y-118429650D01*
X58725951Y-118421200D01*
X58662188Y-118400786D01*
X58661287Y-118399942D01*
X58652078Y-118348117D01*
X58644031Y-118221370D01*
X58637619Y-118033899D01*
X58633314Y-117799904D01*
X58631591Y-117533582D01*
X58631579Y-117508714D01*
X58631579Y-116647193D01*
X58988070Y-116647193D01*
X58990028Y-117204211D01*
X59074438Y-117018299D01*
X59197644Y-116827979D01*
X59367525Y-116709995D01*
X59540375Y-116661607D01*
X59701053Y-116635532D01*
X59701053Y-116992094D01*
X59701053Y-116992094D01*
G37*
X59701053Y-116992094D02*
X59495106Y-117015307D01*
X59313345Y-117060028D01*
X59168140Y-117159966D01*
X59151819Y-117175860D01*
X59094847Y-117235530D01*
X59055740Y-117292117D01*
X59030430Y-117363775D01*
X59014848Y-117468658D01*
X59004923Y-117624920D01*
X58996586Y-117850715D01*
X58995896Y-117871425D01*
X58977311Y-118429650D01*
X58834153Y-118429650D01*
X58725951Y-118421200D01*
X58662188Y-118400786D01*
X58661287Y-118399942D01*
X58652078Y-118348117D01*
X58644031Y-118221370D01*
X58637619Y-118033899D01*
X58633314Y-117799904D01*
X58631591Y-117533582D01*
X58631579Y-117508714D01*
X58631579Y-116647193D01*
X58988070Y-116647193D01*
X58990028Y-117204211D01*
X59074438Y-117018299D01*
X59197644Y-116827979D01*
X59367525Y-116709995D01*
X59540375Y-116661607D01*
X59701053Y-116635532D01*
X59701053Y-116992094D01*
G36*
X57205614Y-116647193D02*
G01*
X57452133Y-116647193D01*
X57718740Y-116676518D01*
X57956483Y-116758292D01*
X58112645Y-116860560D01*
X58230244Y-117015739D01*
X58314189Y-117226740D01*
X58358712Y-117464738D01*
X58358044Y-117700907D01*
X58316814Y-117880871D01*
X58221145Y-118045380D01*
X58072972Y-118204807D01*
X57904071Y-118325091D01*
X57900830Y-118326795D01*
X57807047Y-118356439D01*
X57658020Y-118383121D01*
X57476767Y-118405071D01*
X57286309Y-118420521D01*
X57109665Y-118427700D01*
X56969856Y-118424838D01*
X56889900Y-118410165D01*
X56882544Y-118405089D01*
X56873763Y-118353006D01*
X56865845Y-118223652D01*
X56859107Y-118028877D01*
X56853863Y-117780532D01*
X56852803Y-117690920D01*
X57212051Y-117690920D01*
X57213972Y-117861346D01*
X57220366Y-117980091D01*
X57227187Y-118020540D01*
X57284235Y-118057117D01*
X57397882Y-118066120D01*
X57541011Y-118050542D01*
X57686503Y-118013377D01*
X57807241Y-117957615D01*
X57809259Y-117956303D01*
X57928153Y-117840003D01*
X57991856Y-117675263D01*
X58007719Y-117486503D01*
X57993075Y-117353854D01*
X57936590Y-117245004D01*
X57853811Y-117152793D01*
X57754220Y-117061934D01*
X57667850Y-117018635D01*
X57555148Y-117008657D01*
X57463898Y-117012425D01*
X57227895Y-117025965D01*
X57215106Y-117490848D01*
X57212051Y-117690920D01*
X56852803Y-117690920D01*
X56850431Y-117490468D01*
X56849127Y-117170533D01*
X56849123Y-117152223D01*
X56849123Y-115934211D01*
X57205614Y-115934211D01*
X57205614Y-116647193D01*
X57205614Y-116647193D01*
G37*
X57205614Y-116647193D02*
X57452133Y-116647193D01*
X57718740Y-116676518D01*
X57956483Y-116758292D01*
X58112645Y-116860560D01*
X58230244Y-117015739D01*
X58314189Y-117226740D01*
X58358712Y-117464738D01*
X58358044Y-117700907D01*
X58316814Y-117880871D01*
X58221145Y-118045380D01*
X58072972Y-118204807D01*
X57904071Y-118325091D01*
X57900830Y-118326795D01*
X57807047Y-118356439D01*
X57658020Y-118383121D01*
X57476767Y-118405071D01*
X57286309Y-118420521D01*
X57109665Y-118427700D01*
X56969856Y-118424838D01*
X56889900Y-118410165D01*
X56882544Y-118405089D01*
X56873763Y-118353006D01*
X56865845Y-118223652D01*
X56859107Y-118028877D01*
X56853863Y-117780532D01*
X56852803Y-117690920D01*
X57212051Y-117690920D01*
X57213972Y-117861346D01*
X57220366Y-117980091D01*
X57227187Y-118020540D01*
X57284235Y-118057117D01*
X57397882Y-118066120D01*
X57541011Y-118050542D01*
X57686503Y-118013377D01*
X57807241Y-117957615D01*
X57809259Y-117956303D01*
X57928153Y-117840003D01*
X57991856Y-117675263D01*
X58007719Y-117486503D01*
X57993075Y-117353854D01*
X57936590Y-117245004D01*
X57853811Y-117152793D01*
X57754220Y-117061934D01*
X57667850Y-117018635D01*
X57555148Y-117008657D01*
X57463898Y-117012425D01*
X57227895Y-117025965D01*
X57215106Y-117490848D01*
X57212051Y-117690920D01*
X56852803Y-117690920D01*
X56850431Y-117490468D01*
X56849127Y-117170533D01*
X56849123Y-117152223D01*
X56849123Y-115934211D01*
X57205614Y-115934211D01*
X57205614Y-116647193D01*
G36*
X56285488Y-116696811D02*
G01*
X56375152Y-116764673D01*
X56492632Y-116882154D01*
X56492632Y-118435029D01*
X56325526Y-118421199D01*
X56158421Y-118407369D01*
X56146008Y-117764261D01*
X56137714Y-117505069D01*
X56124361Y-117293314D01*
X56107115Y-117142397D01*
X56087146Y-117065725D01*
X56084850Y-117062418D01*
X56009195Y-117021615D01*
X55893269Y-117003720D01*
X55888123Y-117003685D01*
X55785804Y-117013215D01*
X55710737Y-117049491D01*
X55658867Y-117124036D01*
X55626136Y-117248376D01*
X55608490Y-117434035D01*
X55601872Y-117692540D01*
X55601404Y-117818395D01*
X55601404Y-118435029D01*
X55434298Y-118421199D01*
X55267193Y-118407369D01*
X55242649Y-117003685D01*
X54710176Y-117003685D01*
X54710176Y-118429650D01*
X54561638Y-118429650D01*
X54451530Y-118421497D01*
X54385404Y-118401696D01*
X54383392Y-118399942D01*
X54374183Y-118348117D01*
X54366136Y-118221370D01*
X54359724Y-118033899D01*
X54355420Y-117799904D01*
X54353697Y-117533582D01*
X54353684Y-117508714D01*
X54353684Y-116647193D01*
X55601404Y-116647193D01*
X55602759Y-116814299D01*
X55606736Y-116916165D01*
X55620836Y-116939452D01*
X55651825Y-116894639D01*
X55653125Y-116892281D01*
X55776442Y-116746891D01*
X55938532Y-116663093D01*
X56116010Y-116645022D01*
X56285488Y-116696811D01*
X56285488Y-116696811D01*
G37*
X56285488Y-116696811D02*
X56375152Y-116764673D01*
X56492632Y-116882154D01*
X56492632Y-118435029D01*
X56325526Y-118421199D01*
X56158421Y-118407369D01*
X56146008Y-117764261D01*
X56137714Y-117505069D01*
X56124361Y-117293314D01*
X56107115Y-117142397D01*
X56087146Y-117065725D01*
X56084850Y-117062418D01*
X56009195Y-117021615D01*
X55893269Y-117003720D01*
X55888123Y-117003685D01*
X55785804Y-117013215D01*
X55710737Y-117049491D01*
X55658867Y-117124036D01*
X55626136Y-117248376D01*
X55608490Y-117434035D01*
X55601872Y-117692540D01*
X55601404Y-117818395D01*
X55601404Y-118435029D01*
X55434298Y-118421199D01*
X55267193Y-118407369D01*
X55242649Y-117003685D01*
X54710176Y-117003685D01*
X54710176Y-118429650D01*
X54561638Y-118429650D01*
X54451530Y-118421497D01*
X54385404Y-118401696D01*
X54383392Y-118399942D01*
X54374183Y-118348117D01*
X54366136Y-118221370D01*
X54359724Y-118033899D01*
X54355420Y-117799904D01*
X54353697Y-117533582D01*
X54353684Y-117508714D01*
X54353684Y-116647193D01*
X55601404Y-116647193D01*
X55602759Y-116814299D01*
X55606736Y-116916165D01*
X55620836Y-116939452D01*
X55651825Y-116894639D01*
X55653125Y-116892281D01*
X55776442Y-116746891D01*
X55938532Y-116663093D01*
X56116010Y-116645022D01*
X56285488Y-116696811D01*
G36*
X53324472Y-116657418D02*
G01*
X53568986Y-116714665D01*
X53775951Y-116815114D01*
X53834750Y-116860560D01*
X53954972Y-117019007D01*
X54038707Y-117232698D01*
X54080806Y-117473447D01*
X54076122Y-117713067D01*
X54026111Y-117908180D01*
X53945349Y-118039496D01*
X53822422Y-118174473D01*
X53684644Y-118287788D01*
X53559331Y-118354115D01*
X53539621Y-118359228D01*
X53307756Y-118396090D01*
X53125194Y-118400272D01*
X53016842Y-118386168D01*
X52756327Y-118296024D01*
X52552650Y-118140553D01*
X52413034Y-117928467D01*
X52344703Y-117668475D01*
X52338974Y-117568795D01*
X52342752Y-117494331D01*
X52682107Y-117494331D01*
X52705628Y-117674765D01*
X52795442Y-117857202D01*
X52940343Y-117982876D01*
X53122231Y-118045885D01*
X53323009Y-118040326D01*
X53524578Y-117960297D01*
X53543849Y-117948123D01*
X53657567Y-117830157D01*
X53717483Y-117655073D01*
X53729825Y-117486503D01*
X53714761Y-117352349D01*
X53656873Y-117242408D01*
X53578316Y-117155193D01*
X53463574Y-117056605D01*
X53354690Y-117012649D01*
X53232965Y-117003851D01*
X53008350Y-117040495D01*
X52835560Y-117142229D01*
X52723757Y-117297394D01*
X52682107Y-117494331D01*
X52342752Y-117494331D01*
X52347677Y-117397280D01*
X52372193Y-117234894D01*
X52388024Y-117174673D01*
X52477474Y-117008531D01*
X52620412Y-116848160D01*
X52785328Y-116726127D01*
X52852638Y-116694488D01*
X53074869Y-116648863D01*
X53324472Y-116657418D01*
X53324472Y-116657418D01*
G37*
X53324472Y-116657418D02*
X53568986Y-116714665D01*
X53775951Y-116815114D01*
X53834750Y-116860560D01*
X53954972Y-117019007D01*
X54038707Y-117232698D01*
X54080806Y-117473447D01*
X54076122Y-117713067D01*
X54026111Y-117908180D01*
X53945349Y-118039496D01*
X53822422Y-118174473D01*
X53684644Y-118287788D01*
X53559331Y-118354115D01*
X53539621Y-118359228D01*
X53307756Y-118396090D01*
X53125194Y-118400272D01*
X53016842Y-118386168D01*
X52756327Y-118296024D01*
X52552650Y-118140553D01*
X52413034Y-117928467D01*
X52344703Y-117668475D01*
X52338974Y-117568795D01*
X52342752Y-117494331D01*
X52682107Y-117494331D01*
X52705628Y-117674765D01*
X52795442Y-117857202D01*
X52940343Y-117982876D01*
X53122231Y-118045885D01*
X53323009Y-118040326D01*
X53524578Y-117960297D01*
X53543849Y-117948123D01*
X53657567Y-117830157D01*
X53717483Y-117655073D01*
X53729825Y-117486503D01*
X53714761Y-117352349D01*
X53656873Y-117242408D01*
X53578316Y-117155193D01*
X53463574Y-117056605D01*
X53354690Y-117012649D01*
X53232965Y-117003851D01*
X53008350Y-117040495D01*
X52835560Y-117142229D01*
X52723757Y-117297394D01*
X52682107Y-117494331D01*
X52342752Y-117494331D01*
X52347677Y-117397280D01*
X52372193Y-117234894D01*
X52388024Y-117174673D01*
X52477474Y-117008531D01*
X52620412Y-116848160D01*
X52785328Y-116726127D01*
X52852638Y-116694488D01*
X53074869Y-116648863D01*
X53324472Y-116657418D01*
G36*
X51147412Y-116803052D02*
G01*
X51657719Y-117671893D01*
X51669802Y-116803052D01*
X51681884Y-115934211D01*
X52036491Y-115934211D01*
X52036491Y-118429650D01*
X51869386Y-118428611D01*
X51702281Y-118427573D01*
X50632807Y-116624913D01*
X50620744Y-117527281D01*
X50608681Y-118429650D01*
X50461066Y-118429650D01*
X50351283Y-118421448D01*
X50285559Y-118401544D01*
X50283743Y-118399942D01*
X50275941Y-118349254D01*
X50268906Y-118221230D01*
X50262917Y-118027654D01*
X50258256Y-117780311D01*
X50255203Y-117490987D01*
X50254039Y-117171466D01*
X50254035Y-117152223D01*
X50254035Y-115934211D01*
X50637106Y-115934211D01*
X51147412Y-116803052D01*
X51147412Y-116803052D01*
G37*
X51147412Y-116803052D02*
X51657719Y-117671893D01*
X51669802Y-116803052D01*
X51681884Y-115934211D01*
X52036491Y-115934211D01*
X52036491Y-118429650D01*
X51869386Y-118428611D01*
X51702281Y-118427573D01*
X50632807Y-116624913D01*
X50620744Y-117527281D01*
X50608681Y-118429650D01*
X50461066Y-118429650D01*
X50351283Y-118421448D01*
X50285559Y-118401544D01*
X50283743Y-118399942D01*
X50275941Y-118349254D01*
X50268906Y-118221230D01*
X50262917Y-118027654D01*
X50258256Y-117780311D01*
X50255203Y-117490987D01*
X50254039Y-117171466D01*
X50254035Y-117152223D01*
X50254035Y-115934211D01*
X50637106Y-115934211D01*
X51147412Y-116803052D01*
G36*
X97310877Y-118919825D02*
G01*
X62954035Y-118919825D01*
X62954035Y-115711404D01*
X97310877Y-115711404D01*
X97310877Y-118919825D01*
X97310877Y-118919825D01*
G37*
X97310877Y-118919825D02*
X62954035Y-118919825D01*
X62954035Y-115711404D01*
X97310877Y-115711404D01*
X97310877Y-118919825D01*
G36*
X61127018Y-121103334D02*
G01*
X61122128Y-121217492D01*
X61093201Y-121268229D01*
X61018853Y-121281208D01*
X60978480Y-121281579D01*
X60868372Y-121273427D01*
X60802246Y-121253626D01*
X60800234Y-121251872D01*
X60779843Y-121190718D01*
X60770578Y-121082449D01*
X60770526Y-121073626D01*
X60776394Y-120978494D01*
X60811106Y-120936213D01*
X60900324Y-120925398D01*
X60948772Y-120925088D01*
X61127018Y-120925088D01*
X61127018Y-121103334D01*
X61127018Y-121103334D01*
G37*
X61127018Y-121103334D02*
X61122128Y-121217492D01*
X61093201Y-121268229D01*
X61018853Y-121281208D01*
X60978480Y-121281579D01*
X60868372Y-121273427D01*
X60802246Y-121253626D01*
X60800234Y-121251872D01*
X60779843Y-121190718D01*
X60770578Y-121082449D01*
X60770526Y-121073626D01*
X60776394Y-120978494D01*
X60811106Y-120936213D01*
X60900324Y-120925398D01*
X60948772Y-120925088D01*
X61127018Y-120925088D01*
X61127018Y-121103334D01*
G36*
X61127018Y-122529299D02*
G01*
X61122128Y-122643457D01*
X61093201Y-122694194D01*
X61018853Y-122707173D01*
X60978480Y-122707544D01*
X60868372Y-122699392D01*
X60802246Y-122679591D01*
X60800234Y-122677837D01*
X60779843Y-122616683D01*
X60770578Y-122508414D01*
X60770526Y-122499591D01*
X60776394Y-122404459D01*
X60811106Y-122362178D01*
X60900324Y-122351362D01*
X60948772Y-122351053D01*
X61127018Y-122351053D01*
X61127018Y-122529299D01*
X61127018Y-122529299D01*
G37*
X61127018Y-122529299D02*
X61122128Y-122643457D01*
X61093201Y-122694194D01*
X61018853Y-122707173D01*
X60978480Y-122707544D01*
X60868372Y-122699392D01*
X60802246Y-122679591D01*
X60800234Y-122677837D01*
X60779843Y-122616683D01*
X60770578Y-122508414D01*
X60770526Y-122499591D01*
X60776394Y-122404459D01*
X60811106Y-122362178D01*
X60900324Y-122351362D01*
X60948772Y-122351053D01*
X61127018Y-122351053D01*
X61127018Y-122529299D01*
G36*
X59741314Y-120935313D02*
G01*
X59985828Y-120992560D01*
X60192793Y-121093008D01*
X60251593Y-121138454D01*
X60371814Y-121296901D01*
X60455549Y-121510593D01*
X60497648Y-121751342D01*
X60492964Y-121990962D01*
X60442954Y-122186075D01*
X60362191Y-122317391D01*
X60239264Y-122452368D01*
X60101486Y-122565682D01*
X59976173Y-122632010D01*
X59956464Y-122637123D01*
X59724598Y-122673984D01*
X59542036Y-122678166D01*
X59433684Y-122664063D01*
X59173169Y-122573918D01*
X58969492Y-122418448D01*
X58829876Y-122206362D01*
X58761545Y-121946370D01*
X58755816Y-121846689D01*
X58759594Y-121772226D01*
X59098950Y-121772226D01*
X59122470Y-121952659D01*
X59212284Y-122135097D01*
X59357185Y-122260771D01*
X59539073Y-122323779D01*
X59739851Y-122318220D01*
X59941420Y-122238191D01*
X59960691Y-122226018D01*
X60074409Y-122108051D01*
X60134325Y-121932968D01*
X60146667Y-121764398D01*
X60131603Y-121630244D01*
X60073716Y-121520303D01*
X59995158Y-121433088D01*
X59880416Y-121334500D01*
X59771532Y-121290544D01*
X59649807Y-121281746D01*
X59425192Y-121318390D01*
X59252402Y-121420124D01*
X59140600Y-121575289D01*
X59098950Y-121772226D01*
X58759594Y-121772226D01*
X58764519Y-121675175D01*
X58789035Y-121512789D01*
X58804867Y-121452568D01*
X58894316Y-121286426D01*
X59037254Y-121126055D01*
X59202170Y-121004021D01*
X59269480Y-120972383D01*
X59491711Y-120926758D01*
X59741314Y-120935313D01*
X59741314Y-120935313D01*
G37*
X59741314Y-120935313D02*
X59985828Y-120992560D01*
X60192793Y-121093008D01*
X60251593Y-121138454D01*
X60371814Y-121296901D01*
X60455549Y-121510593D01*
X60497648Y-121751342D01*
X60492964Y-121990962D01*
X60442954Y-122186075D01*
X60362191Y-122317391D01*
X60239264Y-122452368D01*
X60101486Y-122565682D01*
X59976173Y-122632010D01*
X59956464Y-122637123D01*
X59724598Y-122673984D01*
X59542036Y-122678166D01*
X59433684Y-122664063D01*
X59173169Y-122573918D01*
X58969492Y-122418448D01*
X58829876Y-122206362D01*
X58761545Y-121946370D01*
X58755816Y-121846689D01*
X58759594Y-121772226D01*
X59098950Y-121772226D01*
X59122470Y-121952659D01*
X59212284Y-122135097D01*
X59357185Y-122260771D01*
X59539073Y-122323779D01*
X59739851Y-122318220D01*
X59941420Y-122238191D01*
X59960691Y-122226018D01*
X60074409Y-122108051D01*
X60134325Y-121932968D01*
X60146667Y-121764398D01*
X60131603Y-121630244D01*
X60073716Y-121520303D01*
X59995158Y-121433088D01*
X59880416Y-121334500D01*
X59771532Y-121290544D01*
X59649807Y-121281746D01*
X59425192Y-121318390D01*
X59252402Y-121420124D01*
X59140600Y-121575289D01*
X59098950Y-121772226D01*
X58759594Y-121772226D01*
X58764519Y-121675175D01*
X58789035Y-121512789D01*
X58804867Y-121452568D01*
X58894316Y-121286426D01*
X59037254Y-121126055D01*
X59202170Y-121004021D01*
X59269480Y-120972383D01*
X59491711Y-120926758D01*
X59741314Y-120935313D01*
G36*
X57927863Y-120557457D02*
G01*
X57940877Y-120902807D01*
X58197105Y-120916172D01*
X58453333Y-120929536D01*
X58453333Y-121281579D01*
X57915768Y-121281579D01*
X57928323Y-121805176D01*
X57940877Y-122328772D01*
X58197105Y-122342136D01*
X58453333Y-122355501D01*
X58453333Y-122707544D01*
X58263947Y-122700868D01*
X58112085Y-122692124D01*
X57977168Y-122678989D01*
X57955467Y-122675960D01*
X57804600Y-122611732D01*
X57678558Y-122483380D01*
X57599937Y-122315875D01*
X57590659Y-122272777D01*
X57578049Y-122151606D01*
X57568343Y-121973251D01*
X57563094Y-121769638D01*
X57562596Y-121696462D01*
X57562105Y-121286959D01*
X57395000Y-121273129D01*
X57284676Y-121256883D01*
X57234629Y-121213768D01*
X57216035Y-121114963D01*
X57214065Y-121092193D01*
X57200234Y-120925088D01*
X57562105Y-120925088D01*
X57562105Y-120212106D01*
X57914848Y-120212106D01*
X57927863Y-120557457D01*
X57927863Y-120557457D01*
G37*
X57927863Y-120557457D02*
X57940877Y-120902807D01*
X58197105Y-120916172D01*
X58453333Y-120929536D01*
X58453333Y-121281579D01*
X57915768Y-121281579D01*
X57928323Y-121805176D01*
X57940877Y-122328772D01*
X58197105Y-122342136D01*
X58453333Y-122355501D01*
X58453333Y-122707544D01*
X58263947Y-122700868D01*
X58112085Y-122692124D01*
X57977168Y-122678989D01*
X57955467Y-122675960D01*
X57804600Y-122611732D01*
X57678558Y-122483380D01*
X57599937Y-122315875D01*
X57590659Y-122272777D01*
X57578049Y-122151606D01*
X57568343Y-121973251D01*
X57563094Y-121769638D01*
X57562596Y-121696462D01*
X57562105Y-121286959D01*
X57395000Y-121273129D01*
X57284676Y-121256883D01*
X57234629Y-121213768D01*
X57216035Y-121114963D01*
X57214065Y-121092193D01*
X57200234Y-120925088D01*
X57562105Y-120925088D01*
X57562105Y-120212106D01*
X57914848Y-120212106D01*
X57927863Y-120557457D01*
G36*
X56593928Y-120940763D02*
G01*
X56682018Y-120953690D01*
X56790729Y-120978322D01*
X56837825Y-121023683D01*
X56848954Y-121120388D01*
X56849123Y-121153157D01*
X56849123Y-121325004D01*
X56523876Y-121297511D01*
X56345262Y-121286273D01*
X56231830Y-121291331D01*
X56160685Y-121315348D01*
X56124717Y-121343930D01*
X56073272Y-121423008D01*
X56093523Y-121493224D01*
X56190908Y-121560488D01*
X56370864Y-121630711D01*
X56396118Y-121638929D01*
X56647655Y-121738998D01*
X56817294Y-121854269D01*
X56911811Y-121990988D01*
X56938246Y-122138796D01*
X56902767Y-122358434D01*
X56798651Y-122523537D01*
X56629380Y-122631929D01*
X56398438Y-122681438D01*
X56109305Y-122669889D01*
X56091579Y-122667410D01*
X55926387Y-122636064D01*
X55831723Y-122591829D01*
X55789015Y-122519694D01*
X55779649Y-122415265D01*
X55783252Y-122313150D01*
X55792091Y-122262988D01*
X55793746Y-122261930D01*
X55841646Y-122269265D01*
X55950253Y-122288170D01*
X56049974Y-122306163D01*
X56276575Y-122330072D01*
X56440860Y-122309512D01*
X56536529Y-122246172D01*
X56559474Y-122169725D01*
X56549152Y-122109576D01*
X56506219Y-122063049D01*
X56412729Y-122018044D01*
X56253276Y-121963277D01*
X56088114Y-121903578D01*
X55948370Y-121841277D01*
X55864061Y-121789770D01*
X55863614Y-121789368D01*
X55762273Y-121641760D01*
X55723673Y-121455774D01*
X55753381Y-121261401D01*
X55761540Y-121239588D01*
X55871667Y-121077705D01*
X56048332Y-120973559D01*
X56289697Y-120927722D01*
X56593928Y-120940763D01*
X56593928Y-120940763D01*
G37*
X56593928Y-120940763D02*
X56682018Y-120953690D01*
X56790729Y-120978322D01*
X56837825Y-121023683D01*
X56848954Y-121120388D01*
X56849123Y-121153157D01*
X56849123Y-121325004D01*
X56523876Y-121297511D01*
X56345262Y-121286273D01*
X56231830Y-121291331D01*
X56160685Y-121315348D01*
X56124717Y-121343930D01*
X56073272Y-121423008D01*
X56093523Y-121493224D01*
X56190908Y-121560488D01*
X56370864Y-121630711D01*
X56396118Y-121638929D01*
X56647655Y-121738998D01*
X56817294Y-121854269D01*
X56911811Y-121990988D01*
X56938246Y-122138796D01*
X56902767Y-122358434D01*
X56798651Y-122523537D01*
X56629380Y-122631929D01*
X56398438Y-122681438D01*
X56109305Y-122669889D01*
X56091579Y-122667410D01*
X55926387Y-122636064D01*
X55831723Y-122591829D01*
X55789015Y-122519694D01*
X55779649Y-122415265D01*
X55783252Y-122313150D01*
X55792091Y-122262988D01*
X55793746Y-122261930D01*
X55841646Y-122269265D01*
X55950253Y-122288170D01*
X56049974Y-122306163D01*
X56276575Y-122330072D01*
X56440860Y-122309512D01*
X56536529Y-122246172D01*
X56559474Y-122169725D01*
X56549152Y-122109576D01*
X56506219Y-122063049D01*
X56412729Y-122018044D01*
X56253276Y-121963277D01*
X56088114Y-121903578D01*
X55948370Y-121841277D01*
X55864061Y-121789770D01*
X55863614Y-121789368D01*
X55762273Y-121641760D01*
X55723673Y-121455774D01*
X55753381Y-121261401D01*
X55761540Y-121239588D01*
X55871667Y-121077705D01*
X56048332Y-120973559D01*
X56289697Y-120927722D01*
X56593928Y-120940763D01*
G36*
X55028763Y-120985616D02*
G01*
X55226077Y-121105905D01*
X55381766Y-121280896D01*
X55481695Y-121502296D01*
X55512281Y-121730094D01*
X55512281Y-121905439D01*
X54910702Y-121905439D01*
X54650555Y-121907155D01*
X54470307Y-121915164D01*
X54360756Y-121933759D01*
X54312703Y-121967236D01*
X54316944Y-122019886D01*
X54364280Y-122096003D01*
X54400635Y-122143443D01*
X54538700Y-122253077D01*
X54725134Y-122314897D01*
X54931887Y-122326947D01*
X55130908Y-122287270D01*
X55281282Y-122204864D01*
X55316577Y-122191347D01*
X55329896Y-122238069D01*
X55325843Y-122353957D01*
X55306089Y-122487943D01*
X55261330Y-122563732D01*
X55200351Y-122601462D01*
X54985128Y-122663208D01*
X54742989Y-122677277D01*
X54621053Y-122663452D01*
X54360535Y-122574890D01*
X54157955Y-122421051D01*
X54018781Y-122208701D01*
X53948483Y-121944603D01*
X53940831Y-121822071D01*
X53964104Y-121613577D01*
X54309123Y-121613577D01*
X54350455Y-121624102D01*
X54461549Y-121632362D01*
X54623051Y-121637236D01*
X54732456Y-121638071D01*
X54951952Y-121633140D01*
X55094285Y-121618748D01*
X55154169Y-121595495D01*
X55155790Y-121590081D01*
X55126642Y-121530765D01*
X55053905Y-121441362D01*
X55025533Y-121411836D01*
X54862367Y-121307739D01*
X54669426Y-121276956D01*
X54511646Y-121309260D01*
X54447912Y-121363458D01*
X54376076Y-121460808D01*
X54322201Y-121562145D01*
X54309123Y-121613577D01*
X53964104Y-121613577D01*
X53973318Y-121531038D01*
X54073808Y-121286942D01*
X54238042Y-121098424D01*
X54328458Y-121035862D01*
X54565817Y-120942304D01*
X54803964Y-120928319D01*
X55028763Y-120985616D01*
X55028763Y-120985616D01*
G37*
X55028763Y-120985616D02*
X55226077Y-121105905D01*
X55381766Y-121280896D01*
X55481695Y-121502296D01*
X55512281Y-121730094D01*
X55512281Y-121905439D01*
X54910702Y-121905439D01*
X54650555Y-121907155D01*
X54470307Y-121915164D01*
X54360756Y-121933759D01*
X54312703Y-121967236D01*
X54316944Y-122019886D01*
X54364280Y-122096003D01*
X54400635Y-122143443D01*
X54538700Y-122253077D01*
X54725134Y-122314897D01*
X54931887Y-122326947D01*
X55130908Y-122287270D01*
X55281282Y-122204864D01*
X55316577Y-122191347D01*
X55329896Y-122238069D01*
X55325843Y-122353957D01*
X55306089Y-122487943D01*
X55261330Y-122563732D01*
X55200351Y-122601462D01*
X54985128Y-122663208D01*
X54742989Y-122677277D01*
X54621053Y-122663452D01*
X54360535Y-122574890D01*
X54157955Y-122421051D01*
X54018781Y-122208701D01*
X53948483Y-121944603D01*
X53940831Y-121822071D01*
X53964104Y-121613577D01*
X54309123Y-121613577D01*
X54350455Y-121624102D01*
X54461549Y-121632362D01*
X54623051Y-121637236D01*
X54732456Y-121638071D01*
X54951952Y-121633140D01*
X55094285Y-121618748D01*
X55154169Y-121595495D01*
X55155790Y-121590081D01*
X55126642Y-121530765D01*
X55053905Y-121441362D01*
X55025533Y-121411836D01*
X54862367Y-121307739D01*
X54669426Y-121276956D01*
X54511646Y-121309260D01*
X54447912Y-121363458D01*
X54376076Y-121460808D01*
X54322201Y-121562145D01*
X54309123Y-121613577D01*
X53964104Y-121613577D01*
X53973318Y-121531038D01*
X54073808Y-121286942D01*
X54238042Y-121098424D01*
X54328458Y-121035862D01*
X54565817Y-120942304D01*
X54803964Y-120928319D01*
X55028763Y-120985616D01*
G36*
X52578916Y-121525557D02*
G01*
X52585969Y-121770548D01*
X52594980Y-121942928D01*
X52608636Y-122059205D01*
X52629622Y-122135887D01*
X52660628Y-122189483D01*
X52692782Y-122225171D01*
X52827903Y-122304222D01*
X52990004Y-122322220D01*
X53142126Y-122277946D01*
X53192871Y-122241655D01*
X53229512Y-122201641D01*
X53254839Y-122148884D01*
X53270911Y-122067609D01*
X53279789Y-121942045D01*
X53283530Y-121756417D01*
X53284211Y-121542041D01*
X53284211Y-120925088D01*
X53640702Y-120925088D01*
X53640702Y-122712924D01*
X53473597Y-122699094D01*
X53365456Y-122683311D01*
X53312840Y-122641542D01*
X53288287Y-122546137D01*
X53282830Y-122507018D01*
X53265536Y-122402254D01*
X53248676Y-122377384D01*
X53225960Y-122423432D01*
X53225391Y-122425049D01*
X53137815Y-122549531D01*
X52988745Y-122636690D01*
X52801575Y-122676352D01*
X52660935Y-122670487D01*
X52481803Y-122602226D01*
X52337815Y-122469264D01*
X52261111Y-122315712D01*
X52243982Y-122209650D01*
X52229721Y-122036884D01*
X52219655Y-121819818D01*
X52215114Y-121580856D01*
X52214985Y-121537807D01*
X52214737Y-120925088D01*
X52564323Y-120925088D01*
X52578916Y-121525557D01*
X52578916Y-121525557D01*
G37*
X52578916Y-121525557D02*
X52585969Y-121770548D01*
X52594980Y-121942928D01*
X52608636Y-122059205D01*
X52629622Y-122135887D01*
X52660628Y-122189483D01*
X52692782Y-122225171D01*
X52827903Y-122304222D01*
X52990004Y-122322220D01*
X53142126Y-122277946D01*
X53192871Y-122241655D01*
X53229512Y-122201641D01*
X53254839Y-122148884D01*
X53270911Y-122067609D01*
X53279789Y-121942045D01*
X53283530Y-121756417D01*
X53284211Y-121542041D01*
X53284211Y-120925088D01*
X53640702Y-120925088D01*
X53640702Y-122712924D01*
X53473597Y-122699094D01*
X53365456Y-122683311D01*
X53312840Y-122641542D01*
X53288287Y-122546137D01*
X53282830Y-122507018D01*
X53265536Y-122402254D01*
X53248676Y-122377384D01*
X53225960Y-122423432D01*
X53225391Y-122425049D01*
X53137815Y-122549531D01*
X52988745Y-122636690D01*
X52801575Y-122676352D01*
X52660935Y-122670487D01*
X52481803Y-122602226D01*
X52337815Y-122469264D01*
X52261111Y-122315712D01*
X52243982Y-122209650D01*
X52229721Y-122036884D01*
X52219655Y-121819818D01*
X52215114Y-121580856D01*
X52214985Y-121537807D01*
X52214737Y-120925088D01*
X52564323Y-120925088D01*
X52578916Y-121525557D01*
G36*
X51128396Y-120216444D02*
G01*
X51349819Y-120232190D01*
X51515648Y-120263439D01*
X51642496Y-120314285D01*
X51746977Y-120388823D01*
X51811664Y-120452890D01*
X51879202Y-120547416D01*
X51917407Y-120666576D01*
X51936236Y-120841893D01*
X51936617Y-120848545D01*
X51929037Y-121097040D01*
X51870347Y-121290064D01*
X51753524Y-121433673D01*
X51571549Y-121533924D01*
X51317399Y-121596874D01*
X51035596Y-121625805D01*
X50610526Y-121651165D01*
X50610526Y-122707544D01*
X50461988Y-122707544D01*
X50351881Y-122699392D01*
X50285755Y-122679591D01*
X50283743Y-122677837D01*
X50275941Y-122627149D01*
X50268906Y-122499124D01*
X50262917Y-122305549D01*
X50258256Y-122058206D01*
X50255203Y-121768882D01*
X50254039Y-121449360D01*
X50254035Y-121430117D01*
X50254035Y-120568597D01*
X50610526Y-120568597D01*
X50610526Y-121292756D01*
X50984548Y-121273124D01*
X51246633Y-121247801D01*
X51422695Y-121203746D01*
X51474723Y-121177386D01*
X51555406Y-121103287D01*
X51587541Y-121000723D01*
X51590877Y-120924061D01*
X51576966Y-120776195D01*
X51526775Y-120674504D01*
X51427617Y-120611204D01*
X51266804Y-120578509D01*
X51031650Y-120568635D01*
X51011579Y-120568597D01*
X50610526Y-120568597D01*
X50254035Y-120568597D01*
X50254035Y-120212106D01*
X50834765Y-120212106D01*
X51128396Y-120216444D01*
X51128396Y-120216444D01*
G37*
X51128396Y-120216444D02*
X51349819Y-120232190D01*
X51515648Y-120263439D01*
X51642496Y-120314285D01*
X51746977Y-120388823D01*
X51811664Y-120452890D01*
X51879202Y-120547416D01*
X51917407Y-120666576D01*
X51936236Y-120841893D01*
X51936617Y-120848545D01*
X51929037Y-121097040D01*
X51870347Y-121290064D01*
X51753524Y-121433673D01*
X51571549Y-121533924D01*
X51317399Y-121596874D01*
X51035596Y-121625805D01*
X50610526Y-121651165D01*
X50610526Y-122707544D01*
X50461988Y-122707544D01*
X50351881Y-122699392D01*
X50285755Y-122679591D01*
X50283743Y-122677837D01*
X50275941Y-122627149D01*
X50268906Y-122499124D01*
X50262917Y-122305549D01*
X50258256Y-122058206D01*
X50255203Y-121768882D01*
X50254039Y-121449360D01*
X50254035Y-121430117D01*
X50254035Y-120568597D01*
X50610526Y-120568597D01*
X50610526Y-121292756D01*
X50984548Y-121273124D01*
X51246633Y-121247801D01*
X51422695Y-121203746D01*
X51474723Y-121177386D01*
X51555406Y-121103287D01*
X51587541Y-121000723D01*
X51590877Y-120924061D01*
X51576966Y-120776195D01*
X51526775Y-120674504D01*
X51427617Y-120611204D01*
X51266804Y-120578509D01*
X51031650Y-120568635D01*
X51011579Y-120568597D01*
X50610526Y-120568597D01*
X50254035Y-120568597D01*
X50254035Y-120212106D01*
X50834765Y-120212106D01*
X51128396Y-120216444D01*
G36*
X78862456Y-123554211D02*
G01*
X62954035Y-123554211D01*
X62954035Y-120345790D01*
X78862456Y-120345790D01*
X78862456Y-123554211D01*
X78862456Y-123554211D01*
G37*
X78862456Y-123554211D02*
X62954035Y-123554211D01*
X62954035Y-120345790D01*
X78862456Y-120345790D01*
X78862456Y-123554211D01*
M02*
