%TF.GenerationSoftware,KiCad,Pcbnew,(5.1.2)-2*%
%TF.CreationDate,2019-08-12T12:17:33+02:00*%
%TF.ProjectId,badge,62616467-652e-46b6-9963-61645f706362,1*%
%TF.SameCoordinates,Original*%
%TF.FileFunction,Copper,L1,Top*%
%TF.FilePolarity,Positive*%
%FSLAX46Y46*%
G04 Gerber Fmt 4.6, Leading zero omitted, Abs format (unit mm)*
G04 Created by KiCad (PCBNEW (5.1.2)-2) date 2019-08-12 12:17:33*
%MOMM*%
%LPD*%
G04 APERTURE LIST*
%ADD10C,0.038100*%
%ADD11C,0.152400*%
%ADD12O,1.600000X1.600000*%
%ADD13C,1.600000*%
%ADD14C,1.800000*%
%ADD15R,1.800000X1.800000*%
%ADD16C,4.370000*%
%ADD17R,0.560000X3.000000*%
%ADD18R,0.560000X4.000000*%
%ADD19C,32.000000*%
%ADD20C,0.600000*%
%ADD21C,0.200000*%
%ADD22C,0.254000*%
G04 APERTURE END LIST*
D10*
X45760000Y-54640000D02*
G75*
G02X50400000Y-50000000I4640000J0D01*
G01*
X93570000Y-50000000D02*
G75*
G02X98210000Y-54640000I0J-4640000D01*
G01*
X98220000Y-130190000D02*
G75*
G02X93580000Y-134830000I-4640000J0D01*
G01*
X50390000Y-134830000D02*
G75*
G02X45750000Y-130190000I0J4640000D01*
G01*
X45760000Y-54640000D02*
X45750000Y-130190000D01*
X93570000Y-50000000D02*
X50400000Y-50000000D01*
X98220000Y-130190000D02*
X98210000Y-54640000D01*
X50390000Y-134830000D02*
X93580000Y-134830000D01*
D11*
G36*
X69818760Y-134145860D02*
G01*
X69816220Y-127905080D01*
X74190100Y-127900000D01*
X74190100Y-134145860D01*
X69818760Y-134145860D01*
G37*
G36*
X58378760Y-134145860D02*
G01*
X58376220Y-127905080D01*
X62750100Y-127900000D01*
X62750100Y-134145860D01*
X58378760Y-134145860D01*
G37*
G36*
X81258760Y-134145860D02*
G01*
X81256220Y-127905080D01*
X85630100Y-127900000D01*
X85630100Y-134145860D01*
X81258760Y-134145860D01*
G37*
G36*
X48208760Y-134145860D02*
G01*
X48206220Y-127905080D01*
X52580100Y-127900000D01*
X52580100Y-134145860D01*
X48208760Y-134145860D01*
G37*
G36*
X91428760Y-134145860D02*
G01*
X91426220Y-127905080D01*
X95800100Y-127900000D01*
X95800100Y-134145860D01*
X91428760Y-134145860D01*
G37*
G36*
X91428760Y-134145860D02*
G01*
X91426220Y-127905080D01*
X95800100Y-127900000D01*
X95800100Y-134145860D01*
X91428760Y-134145860D01*
G37*
G36*
X81258760Y-134145860D02*
G01*
X81256220Y-127905080D01*
X85630100Y-127900000D01*
X85630100Y-134145860D01*
X81258760Y-134145860D01*
G37*
G36*
X69818760Y-134145860D02*
G01*
X69816220Y-127905080D01*
X74190100Y-127900000D01*
X74190100Y-134145860D01*
X69818760Y-134145860D01*
G37*
G36*
X58378760Y-134145860D02*
G01*
X58376220Y-127905080D01*
X62750100Y-127900000D01*
X62750100Y-134145860D01*
X58378760Y-134145860D01*
G37*
G36*
X48208760Y-134145860D02*
G01*
X48206220Y-127905080D01*
X52580100Y-127900000D01*
X52580100Y-134145860D01*
X48208760Y-134145860D01*
G37*
D12*
X85976400Y-62600000D03*
D13*
X96136400Y-62600000D03*
D12*
X58560000Y-62800000D03*
D13*
X48400000Y-62800000D03*
D14*
X53800000Y-56460000D03*
D15*
X53800000Y-59000000D03*
D14*
X90736400Y-56460000D03*
D15*
X90736400Y-59000000D03*
D16*
X93623320Y-127889840D03*
X83453320Y-127889840D03*
X72013320Y-127889840D03*
X60573320Y-127889840D03*
X50403320Y-127889840D03*
D17*
X47233920Y-131650000D03*
D18*
X57393920Y-132163640D03*
X53583920Y-132163640D03*
X56123920Y-132163640D03*
X63743920Y-132163640D03*
X65013920Y-132163640D03*
X66283920Y-132163640D03*
X54853920Y-132163640D03*
X67553920Y-132163640D03*
X80253920Y-132163640D03*
X68823920Y-132163640D03*
X78983920Y-132163640D03*
D17*
X96763920Y-131650000D03*
D18*
X86603920Y-132163640D03*
X90413920Y-132163640D03*
X89143920Y-132163640D03*
X76443920Y-132163640D03*
X87873920Y-132163640D03*
X75173920Y-132163640D03*
X77713920Y-132163640D03*
D19*
X72000000Y-74900000D03*
D20*
X46460000Y-111540000D03*
X46480000Y-112600000D03*
X86500000Y-122500000D03*
X86500000Y-121000000D03*
X80500000Y-122500000D03*
X80500000Y-121000000D03*
X46500000Y-68250000D03*
X47750000Y-68250000D03*
D21*
X52200000Y-59000000D02*
X48400000Y-62800000D01*
X53800000Y-59000000D02*
X52200000Y-59000000D01*
X93400000Y-59000000D02*
X97000000Y-62600000D01*
X91600000Y-59000000D02*
X93400000Y-59000000D01*
D22*
G36*
X94205839Y-51209303D02*
G01*
X94820390Y-51382625D01*
X95393064Y-51665036D01*
X95904676Y-52047075D01*
X96338105Y-52515956D01*
X96678830Y-53055970D01*
X96915440Y-53649037D01*
X97044429Y-54297509D01*
X97063954Y-54670086D01*
X97064779Y-60902740D01*
X97049177Y-60892315D01*
X97012265Y-60877026D01*
X94310239Y-58175000D01*
X94271817Y-58128183D01*
X94084983Y-57974851D01*
X93871824Y-57860916D01*
X93640534Y-57790755D01*
X93460268Y-57773000D01*
X93460260Y-57773000D01*
X93400000Y-57767065D01*
X93339740Y-57773000D01*
X92714917Y-57773000D01*
X92682650Y-57666629D01*
X92578000Y-57470843D01*
X92533941Y-57417158D01*
X92685504Y-57051254D01*
X92763400Y-56659642D01*
X92763400Y-56260358D01*
X92685504Y-55868746D01*
X92532704Y-55499855D01*
X92310874Y-55167863D01*
X92028537Y-54885526D01*
X91696545Y-54663696D01*
X91327654Y-54510896D01*
X90936042Y-54433000D01*
X90536758Y-54433000D01*
X90145146Y-54510896D01*
X89776255Y-54663696D01*
X89444263Y-54885526D01*
X89161926Y-55167863D01*
X88940096Y-55499855D01*
X88787296Y-55868746D01*
X88709400Y-56260358D01*
X88709400Y-56659642D01*
X88787296Y-57051254D01*
X88938859Y-57417158D01*
X88894800Y-57470843D01*
X88790150Y-57666629D01*
X88725707Y-57879069D01*
X88703947Y-58100000D01*
X88703947Y-59900000D01*
X88725707Y-60120931D01*
X88790150Y-60333371D01*
X88894800Y-60529157D01*
X89035635Y-60700765D01*
X89207243Y-60841600D01*
X89403029Y-60946250D01*
X89615469Y-61010693D01*
X89836400Y-61032453D01*
X91636400Y-61032453D01*
X91857331Y-61010693D01*
X92069771Y-60946250D01*
X92265557Y-60841600D01*
X92437165Y-60700765D01*
X92578000Y-60529157D01*
X92682650Y-60333371D01*
X92714917Y-60227000D01*
X92891761Y-60227000D01*
X94406241Y-61741480D01*
X94283453Y-62037915D01*
X94209400Y-62410207D01*
X94209400Y-62789793D01*
X94283453Y-63162085D01*
X94428715Y-63512777D01*
X94639601Y-63828391D01*
X94908009Y-64096799D01*
X95223623Y-64307685D01*
X95574315Y-64452947D01*
X95946607Y-64527000D01*
X96326193Y-64527000D01*
X96698485Y-64452947D01*
X97049177Y-64307685D01*
X97065229Y-64296960D01*
X97073796Y-129020490D01*
X97043920Y-129017547D01*
X96927100Y-129017547D01*
X96927100Y-128257368D01*
X96935320Y-128216043D01*
X96935320Y-127563637D01*
X96808041Y-126923765D01*
X96558376Y-126321020D01*
X96195918Y-125778563D01*
X95734597Y-125317242D01*
X95192140Y-124954784D01*
X94589395Y-124705119D01*
X93949523Y-124577840D01*
X93297117Y-124577840D01*
X92657245Y-124705119D01*
X92054500Y-124954784D01*
X91512043Y-125317242D01*
X91050722Y-125778563D01*
X90688264Y-126321020D01*
X90438599Y-126923765D01*
X90311320Y-127563637D01*
X90311320Y-127782283D01*
X90311053Y-127784857D01*
X90299324Y-127889804D01*
X90299268Y-127898240D01*
X90299239Y-127898521D01*
X90299265Y-127898798D01*
X90299220Y-127905539D01*
X90299678Y-129031187D01*
X90133920Y-129031187D01*
X89912989Y-129052947D01*
X89778920Y-129093616D01*
X89644851Y-129052947D01*
X89423920Y-129031187D01*
X88863920Y-129031187D01*
X88642989Y-129052947D01*
X88508920Y-129093616D01*
X88374851Y-129052947D01*
X88153920Y-129031187D01*
X87593920Y-129031187D01*
X87372989Y-129052947D01*
X87238920Y-129093616D01*
X87104851Y-129052947D01*
X86883920Y-129031187D01*
X86757100Y-129031187D01*
X86757100Y-127900000D01*
X86746694Y-127793873D01*
X86736892Y-127687535D01*
X86735957Y-127684372D01*
X86735636Y-127681098D01*
X86704823Y-127579041D01*
X86674545Y-127476605D01*
X86673015Y-127473686D01*
X86672063Y-127470534D01*
X86622000Y-127376379D01*
X86572416Y-127281801D01*
X86570347Y-127279234D01*
X86568802Y-127276328D01*
X86501444Y-127193739D01*
X86434395Y-127110544D01*
X86431865Y-127108426D01*
X86429786Y-127105877D01*
X86347696Y-127037966D01*
X86265738Y-126969358D01*
X86262844Y-126967772D01*
X86260310Y-126965675D01*
X86166571Y-126914990D01*
X86090720Y-126873405D01*
X86065191Y-126790903D01*
X85818133Y-126328684D01*
X85432426Y-126090340D01*
X84748742Y-126774023D01*
X84389114Y-126774441D01*
X85252820Y-125910734D01*
X85014476Y-125525027D01*
X84523127Y-125265900D01*
X83990665Y-125107610D01*
X83437554Y-125056240D01*
X82885049Y-125113763D01*
X82354383Y-125277969D01*
X81892164Y-125525027D01*
X81653820Y-125910734D01*
X82519698Y-126776612D01*
X82160903Y-126777029D01*
X81474214Y-126090340D01*
X81088507Y-126328684D01*
X80829380Y-126820033D01*
X80814705Y-126869396D01*
X80732390Y-126913286D01*
X80638732Y-126962298D01*
X80635319Y-126965044D01*
X80631458Y-126967103D01*
X80549745Y-127033905D01*
X80467371Y-127100190D01*
X80464555Y-127103549D01*
X80461169Y-127106317D01*
X80394002Y-127187701D01*
X80326058Y-127268741D01*
X80323948Y-127272583D01*
X80321164Y-127275956D01*
X80271064Y-127368870D01*
X80220173Y-127461529D01*
X80218850Y-127465704D01*
X80216773Y-127469557D01*
X80185650Y-127570516D01*
X80153753Y-127671213D01*
X80153267Y-127675563D01*
X80151977Y-127679747D01*
X80141053Y-127784857D01*
X80129324Y-127889804D01*
X80129268Y-127898240D01*
X80129239Y-127898521D01*
X80129265Y-127898798D01*
X80129220Y-127905539D01*
X80129678Y-129031187D01*
X79973920Y-129031187D01*
X79752989Y-129052947D01*
X79618920Y-129093616D01*
X79484851Y-129052947D01*
X79263920Y-129031187D01*
X78703920Y-129031187D01*
X78482989Y-129052947D01*
X78348920Y-129093616D01*
X78214851Y-129052947D01*
X77993920Y-129031187D01*
X77433920Y-129031187D01*
X77212989Y-129052947D01*
X77078920Y-129093616D01*
X76944851Y-129052947D01*
X76723920Y-129031187D01*
X76163920Y-129031187D01*
X75942989Y-129052947D01*
X75808920Y-129093616D01*
X75674851Y-129052947D01*
X75453920Y-129031187D01*
X75317100Y-129031187D01*
X75317100Y-128257368D01*
X75325320Y-128216043D01*
X75325320Y-127563637D01*
X75198041Y-126923765D01*
X74948376Y-126321020D01*
X74585918Y-125778563D01*
X74124597Y-125317242D01*
X73582140Y-124954784D01*
X72979395Y-124705119D01*
X72339523Y-124577840D01*
X71687117Y-124577840D01*
X71047245Y-124705119D01*
X70444500Y-124954784D01*
X69902043Y-125317242D01*
X69440722Y-125778563D01*
X69078264Y-126321020D01*
X68828599Y-126923765D01*
X68701320Y-127563637D01*
X68701320Y-127782283D01*
X68701053Y-127784857D01*
X68689324Y-127889804D01*
X68689268Y-127898240D01*
X68689239Y-127898521D01*
X68689265Y-127898798D01*
X68689220Y-127905539D01*
X68689678Y-129031187D01*
X68543920Y-129031187D01*
X68322989Y-129052947D01*
X68188920Y-129093616D01*
X68054851Y-129052947D01*
X67833920Y-129031187D01*
X67273920Y-129031187D01*
X67052989Y-129052947D01*
X66918920Y-129093616D01*
X66784851Y-129052947D01*
X66563920Y-129031187D01*
X66003920Y-129031187D01*
X65782989Y-129052947D01*
X65648920Y-129093616D01*
X65514851Y-129052947D01*
X65293920Y-129031187D01*
X64733920Y-129031187D01*
X64512989Y-129052947D01*
X64378920Y-129093616D01*
X64244851Y-129052947D01*
X64023920Y-129031187D01*
X63877100Y-129031187D01*
X63877100Y-128257368D01*
X63885320Y-128216043D01*
X63885320Y-127563637D01*
X63758041Y-126923765D01*
X63508376Y-126321020D01*
X63145918Y-125778563D01*
X62684597Y-125317242D01*
X62142140Y-124954784D01*
X61539395Y-124705119D01*
X60899523Y-124577840D01*
X60247117Y-124577840D01*
X59607245Y-124705119D01*
X59004500Y-124954784D01*
X58462043Y-125317242D01*
X58000722Y-125778563D01*
X57638264Y-126321020D01*
X57388599Y-126923765D01*
X57261320Y-127563637D01*
X57261320Y-127782283D01*
X57261053Y-127784857D01*
X57249324Y-127889804D01*
X57249268Y-127898240D01*
X57249239Y-127898521D01*
X57249265Y-127898798D01*
X57249220Y-127905539D01*
X57249678Y-129031187D01*
X57113920Y-129031187D01*
X56892989Y-129052947D01*
X56758920Y-129093616D01*
X56624851Y-129052947D01*
X56403920Y-129031187D01*
X55843920Y-129031187D01*
X55622989Y-129052947D01*
X55488920Y-129093616D01*
X55354851Y-129052947D01*
X55133920Y-129031187D01*
X54573920Y-129031187D01*
X54352989Y-129052947D01*
X54218920Y-129093616D01*
X54084851Y-129052947D01*
X53863920Y-129031187D01*
X53707100Y-129031187D01*
X53707100Y-128257368D01*
X53715320Y-128216043D01*
X53715320Y-127563637D01*
X53588041Y-126923765D01*
X53338376Y-126321020D01*
X52975918Y-125778563D01*
X52514597Y-125317242D01*
X51972140Y-124954784D01*
X51369395Y-124705119D01*
X50729523Y-124577840D01*
X50077117Y-124577840D01*
X49437245Y-124705119D01*
X48834500Y-124954784D01*
X48292043Y-125317242D01*
X47830722Y-125778563D01*
X47468264Y-126321020D01*
X47218599Y-126923765D01*
X47091320Y-127563637D01*
X47091320Y-127782283D01*
X47091053Y-127784857D01*
X47079324Y-127889804D01*
X47079268Y-127898240D01*
X47079239Y-127898521D01*
X47079265Y-127898798D01*
X47079220Y-127905539D01*
X47079673Y-129017547D01*
X46953920Y-129017547D01*
X46896204Y-129023232D01*
X46903591Y-73213138D01*
X54873000Y-73213138D01*
X54873000Y-76586862D01*
X55531181Y-79895762D01*
X56822250Y-83012677D01*
X58696591Y-85817826D01*
X61082174Y-88203409D01*
X63887323Y-90077750D01*
X67004238Y-91368819D01*
X70313138Y-92027000D01*
X73686862Y-92027000D01*
X76995762Y-91368819D01*
X80112677Y-90077750D01*
X82917826Y-88203409D01*
X85303409Y-85817826D01*
X87177750Y-83012677D01*
X88468819Y-79895762D01*
X89127000Y-76586862D01*
X89127000Y-73213138D01*
X88468819Y-69904238D01*
X87177750Y-66787323D01*
X85652354Y-64504407D01*
X85881742Y-64527000D01*
X86071058Y-64527000D01*
X86354158Y-64499117D01*
X86717399Y-64388929D01*
X87052163Y-64209994D01*
X87345587Y-63969187D01*
X87586394Y-63675763D01*
X87765329Y-63340999D01*
X87875517Y-62977758D01*
X87912723Y-62600000D01*
X87875517Y-62222242D01*
X87765329Y-61859001D01*
X87586394Y-61524237D01*
X87345587Y-61230813D01*
X87052163Y-60990006D01*
X86717399Y-60811071D01*
X86354158Y-60700883D01*
X86071058Y-60673000D01*
X85881742Y-60673000D01*
X85598642Y-60700883D01*
X85235401Y-60811071D01*
X84900637Y-60990006D01*
X84607213Y-61230813D01*
X84366406Y-61524237D01*
X84187471Y-61859001D01*
X84077283Y-62222242D01*
X84040077Y-62600000D01*
X84053061Y-62731826D01*
X82917826Y-61596591D01*
X80112677Y-59722250D01*
X76995762Y-58431181D01*
X73686862Y-57773000D01*
X72342865Y-57773000D01*
X72955866Y-57651067D01*
X73552242Y-57404040D01*
X74088966Y-57045412D01*
X74545412Y-56588966D01*
X74904040Y-56052242D01*
X75151067Y-55455866D01*
X75277000Y-54822756D01*
X75277000Y-54177244D01*
X75151067Y-53544134D01*
X74904040Y-52947758D01*
X74545412Y-52411034D01*
X74088966Y-51954588D01*
X73552242Y-51595960D01*
X72955866Y-51348933D01*
X72322756Y-51223000D01*
X71677244Y-51223000D01*
X71044134Y-51348933D01*
X70447758Y-51595960D01*
X69911034Y-51954588D01*
X69454588Y-52411034D01*
X69095960Y-52947758D01*
X68848933Y-53544134D01*
X68723000Y-54177244D01*
X68723000Y-54822756D01*
X68848933Y-55455866D01*
X69095960Y-56052242D01*
X69454588Y-56588966D01*
X69911034Y-57045412D01*
X70447758Y-57404040D01*
X71044134Y-57651067D01*
X71657135Y-57773000D01*
X70313138Y-57773000D01*
X67004238Y-58431181D01*
X63887323Y-59722250D01*
X61082174Y-61596591D01*
X60411964Y-62266801D01*
X60348929Y-62059001D01*
X60169994Y-61724237D01*
X59929187Y-61430813D01*
X59635763Y-61190006D01*
X59300999Y-61011071D01*
X58937758Y-60900883D01*
X58654658Y-60873000D01*
X58465342Y-60873000D01*
X58182242Y-60900883D01*
X57819001Y-61011071D01*
X57484237Y-61190006D01*
X57190813Y-61430813D01*
X56950006Y-61724237D01*
X56771071Y-62059001D01*
X56660883Y-62422242D01*
X56623677Y-62800000D01*
X56660883Y-63177758D01*
X56771071Y-63540999D01*
X56950006Y-63875763D01*
X57190813Y-64169187D01*
X57484237Y-64409994D01*
X57819001Y-64588929D01*
X58182242Y-64699117D01*
X58215365Y-64702379D01*
X56822250Y-66787323D01*
X55531181Y-69904238D01*
X54873000Y-73213138D01*
X46903591Y-73213138D01*
X46904807Y-64029997D01*
X47171609Y-64296799D01*
X47487223Y-64507685D01*
X47837915Y-64652947D01*
X48210207Y-64727000D01*
X48589793Y-64727000D01*
X48962085Y-64652947D01*
X49312777Y-64507685D01*
X49628391Y-64296799D01*
X49896799Y-64028391D01*
X50107685Y-63712777D01*
X50252947Y-63362085D01*
X50327000Y-62989793D01*
X50327000Y-62610207D01*
X50326674Y-62608566D01*
X52173515Y-60761725D01*
X52270843Y-60841600D01*
X52466629Y-60946250D01*
X52679069Y-61010693D01*
X52900000Y-61032453D01*
X54700000Y-61032453D01*
X54920931Y-61010693D01*
X55133371Y-60946250D01*
X55329157Y-60841600D01*
X55500765Y-60700765D01*
X55641600Y-60529157D01*
X55746250Y-60333371D01*
X55810693Y-60120931D01*
X55832453Y-59900000D01*
X55832453Y-58100000D01*
X55810693Y-57879069D01*
X55746250Y-57666629D01*
X55641600Y-57470843D01*
X55597541Y-57417158D01*
X55749104Y-57051254D01*
X55827000Y-56659642D01*
X55827000Y-56260358D01*
X55749104Y-55868746D01*
X55596304Y-55499855D01*
X55374474Y-55167863D01*
X55092137Y-54885526D01*
X54760145Y-54663696D01*
X54391254Y-54510896D01*
X53999642Y-54433000D01*
X53600358Y-54433000D01*
X53208746Y-54510896D01*
X52839855Y-54663696D01*
X52507863Y-54885526D01*
X52225526Y-55167863D01*
X52003696Y-55499855D01*
X51850896Y-55868746D01*
X51773000Y-56260358D01*
X51773000Y-56659642D01*
X51850896Y-57051254D01*
X52002459Y-57417158D01*
X51958400Y-57470843D01*
X51853750Y-57666629D01*
X51801567Y-57838653D01*
X51728176Y-57860916D01*
X51515017Y-57974851D01*
X51328183Y-58128183D01*
X51289765Y-58174995D01*
X48591434Y-60873326D01*
X48589793Y-60873000D01*
X48210207Y-60873000D01*
X47837915Y-60947053D01*
X47487223Y-61092315D01*
X47171609Y-61303201D01*
X46905132Y-61569678D01*
X46906043Y-54692620D01*
X46969303Y-54004161D01*
X47142625Y-53389610D01*
X47425036Y-52816936D01*
X47807075Y-52305324D01*
X48275956Y-51871895D01*
X48815970Y-51531170D01*
X49409037Y-51294560D01*
X50057509Y-51165571D01*
X50430002Y-51146050D01*
X93517460Y-51146050D01*
X94205839Y-51209303D01*
X94205839Y-51209303D01*
G37*
X94205839Y-51209303D02*
X94820390Y-51382625D01*
X95393064Y-51665036D01*
X95904676Y-52047075D01*
X96338105Y-52515956D01*
X96678830Y-53055970D01*
X96915440Y-53649037D01*
X97044429Y-54297509D01*
X97063954Y-54670086D01*
X97064779Y-60902740D01*
X97049177Y-60892315D01*
X97012265Y-60877026D01*
X94310239Y-58175000D01*
X94271817Y-58128183D01*
X94084983Y-57974851D01*
X93871824Y-57860916D01*
X93640534Y-57790755D01*
X93460268Y-57773000D01*
X93460260Y-57773000D01*
X93400000Y-57767065D01*
X93339740Y-57773000D01*
X92714917Y-57773000D01*
X92682650Y-57666629D01*
X92578000Y-57470843D01*
X92533941Y-57417158D01*
X92685504Y-57051254D01*
X92763400Y-56659642D01*
X92763400Y-56260358D01*
X92685504Y-55868746D01*
X92532704Y-55499855D01*
X92310874Y-55167863D01*
X92028537Y-54885526D01*
X91696545Y-54663696D01*
X91327654Y-54510896D01*
X90936042Y-54433000D01*
X90536758Y-54433000D01*
X90145146Y-54510896D01*
X89776255Y-54663696D01*
X89444263Y-54885526D01*
X89161926Y-55167863D01*
X88940096Y-55499855D01*
X88787296Y-55868746D01*
X88709400Y-56260358D01*
X88709400Y-56659642D01*
X88787296Y-57051254D01*
X88938859Y-57417158D01*
X88894800Y-57470843D01*
X88790150Y-57666629D01*
X88725707Y-57879069D01*
X88703947Y-58100000D01*
X88703947Y-59900000D01*
X88725707Y-60120931D01*
X88790150Y-60333371D01*
X88894800Y-60529157D01*
X89035635Y-60700765D01*
X89207243Y-60841600D01*
X89403029Y-60946250D01*
X89615469Y-61010693D01*
X89836400Y-61032453D01*
X91636400Y-61032453D01*
X91857331Y-61010693D01*
X92069771Y-60946250D01*
X92265557Y-60841600D01*
X92437165Y-60700765D01*
X92578000Y-60529157D01*
X92682650Y-60333371D01*
X92714917Y-60227000D01*
X92891761Y-60227000D01*
X94406241Y-61741480D01*
X94283453Y-62037915D01*
X94209400Y-62410207D01*
X94209400Y-62789793D01*
X94283453Y-63162085D01*
X94428715Y-63512777D01*
X94639601Y-63828391D01*
X94908009Y-64096799D01*
X95223623Y-64307685D01*
X95574315Y-64452947D01*
X95946607Y-64527000D01*
X96326193Y-64527000D01*
X96698485Y-64452947D01*
X97049177Y-64307685D01*
X97065229Y-64296960D01*
X97073796Y-129020490D01*
X97043920Y-129017547D01*
X96927100Y-129017547D01*
X96927100Y-128257368D01*
X96935320Y-128216043D01*
X96935320Y-127563637D01*
X96808041Y-126923765D01*
X96558376Y-126321020D01*
X96195918Y-125778563D01*
X95734597Y-125317242D01*
X95192140Y-124954784D01*
X94589395Y-124705119D01*
X93949523Y-124577840D01*
X93297117Y-124577840D01*
X92657245Y-124705119D01*
X92054500Y-124954784D01*
X91512043Y-125317242D01*
X91050722Y-125778563D01*
X90688264Y-126321020D01*
X90438599Y-126923765D01*
X90311320Y-127563637D01*
X90311320Y-127782283D01*
X90311053Y-127784857D01*
X90299324Y-127889804D01*
X90299268Y-127898240D01*
X90299239Y-127898521D01*
X90299265Y-127898798D01*
X90299220Y-127905539D01*
X90299678Y-129031187D01*
X90133920Y-129031187D01*
X89912989Y-129052947D01*
X89778920Y-129093616D01*
X89644851Y-129052947D01*
X89423920Y-129031187D01*
X88863920Y-129031187D01*
X88642989Y-129052947D01*
X88508920Y-129093616D01*
X88374851Y-129052947D01*
X88153920Y-129031187D01*
X87593920Y-129031187D01*
X87372989Y-129052947D01*
X87238920Y-129093616D01*
X87104851Y-129052947D01*
X86883920Y-129031187D01*
X86757100Y-129031187D01*
X86757100Y-127900000D01*
X86746694Y-127793873D01*
X86736892Y-127687535D01*
X86735957Y-127684372D01*
X86735636Y-127681098D01*
X86704823Y-127579041D01*
X86674545Y-127476605D01*
X86673015Y-127473686D01*
X86672063Y-127470534D01*
X86622000Y-127376379D01*
X86572416Y-127281801D01*
X86570347Y-127279234D01*
X86568802Y-127276328D01*
X86501444Y-127193739D01*
X86434395Y-127110544D01*
X86431865Y-127108426D01*
X86429786Y-127105877D01*
X86347696Y-127037966D01*
X86265738Y-126969358D01*
X86262844Y-126967772D01*
X86260310Y-126965675D01*
X86166571Y-126914990D01*
X86090720Y-126873405D01*
X86065191Y-126790903D01*
X85818133Y-126328684D01*
X85432426Y-126090340D01*
X84748742Y-126774023D01*
X84389114Y-126774441D01*
X85252820Y-125910734D01*
X85014476Y-125525027D01*
X84523127Y-125265900D01*
X83990665Y-125107610D01*
X83437554Y-125056240D01*
X82885049Y-125113763D01*
X82354383Y-125277969D01*
X81892164Y-125525027D01*
X81653820Y-125910734D01*
X82519698Y-126776612D01*
X82160903Y-126777029D01*
X81474214Y-126090340D01*
X81088507Y-126328684D01*
X80829380Y-126820033D01*
X80814705Y-126869396D01*
X80732390Y-126913286D01*
X80638732Y-126962298D01*
X80635319Y-126965044D01*
X80631458Y-126967103D01*
X80549745Y-127033905D01*
X80467371Y-127100190D01*
X80464555Y-127103549D01*
X80461169Y-127106317D01*
X80394002Y-127187701D01*
X80326058Y-127268741D01*
X80323948Y-127272583D01*
X80321164Y-127275956D01*
X80271064Y-127368870D01*
X80220173Y-127461529D01*
X80218850Y-127465704D01*
X80216773Y-127469557D01*
X80185650Y-127570516D01*
X80153753Y-127671213D01*
X80153267Y-127675563D01*
X80151977Y-127679747D01*
X80141053Y-127784857D01*
X80129324Y-127889804D01*
X80129268Y-127898240D01*
X80129239Y-127898521D01*
X80129265Y-127898798D01*
X80129220Y-127905539D01*
X80129678Y-129031187D01*
X79973920Y-129031187D01*
X79752989Y-129052947D01*
X79618920Y-129093616D01*
X79484851Y-129052947D01*
X79263920Y-129031187D01*
X78703920Y-129031187D01*
X78482989Y-129052947D01*
X78348920Y-129093616D01*
X78214851Y-129052947D01*
X77993920Y-129031187D01*
X77433920Y-129031187D01*
X77212989Y-129052947D01*
X77078920Y-129093616D01*
X76944851Y-129052947D01*
X76723920Y-129031187D01*
X76163920Y-129031187D01*
X75942989Y-129052947D01*
X75808920Y-129093616D01*
X75674851Y-129052947D01*
X75453920Y-129031187D01*
X75317100Y-129031187D01*
X75317100Y-128257368D01*
X75325320Y-128216043D01*
X75325320Y-127563637D01*
X75198041Y-126923765D01*
X74948376Y-126321020D01*
X74585918Y-125778563D01*
X74124597Y-125317242D01*
X73582140Y-124954784D01*
X72979395Y-124705119D01*
X72339523Y-124577840D01*
X71687117Y-124577840D01*
X71047245Y-124705119D01*
X70444500Y-124954784D01*
X69902043Y-125317242D01*
X69440722Y-125778563D01*
X69078264Y-126321020D01*
X68828599Y-126923765D01*
X68701320Y-127563637D01*
X68701320Y-127782283D01*
X68701053Y-127784857D01*
X68689324Y-127889804D01*
X68689268Y-127898240D01*
X68689239Y-127898521D01*
X68689265Y-127898798D01*
X68689220Y-127905539D01*
X68689678Y-129031187D01*
X68543920Y-129031187D01*
X68322989Y-129052947D01*
X68188920Y-129093616D01*
X68054851Y-129052947D01*
X67833920Y-129031187D01*
X67273920Y-129031187D01*
X67052989Y-129052947D01*
X66918920Y-129093616D01*
X66784851Y-129052947D01*
X66563920Y-129031187D01*
X66003920Y-129031187D01*
X65782989Y-129052947D01*
X65648920Y-129093616D01*
X65514851Y-129052947D01*
X65293920Y-129031187D01*
X64733920Y-129031187D01*
X64512989Y-129052947D01*
X64378920Y-129093616D01*
X64244851Y-129052947D01*
X64023920Y-129031187D01*
X63877100Y-129031187D01*
X63877100Y-128257368D01*
X63885320Y-128216043D01*
X63885320Y-127563637D01*
X63758041Y-126923765D01*
X63508376Y-126321020D01*
X63145918Y-125778563D01*
X62684597Y-125317242D01*
X62142140Y-124954784D01*
X61539395Y-124705119D01*
X60899523Y-124577840D01*
X60247117Y-124577840D01*
X59607245Y-124705119D01*
X59004500Y-124954784D01*
X58462043Y-125317242D01*
X58000722Y-125778563D01*
X57638264Y-126321020D01*
X57388599Y-126923765D01*
X57261320Y-127563637D01*
X57261320Y-127782283D01*
X57261053Y-127784857D01*
X57249324Y-127889804D01*
X57249268Y-127898240D01*
X57249239Y-127898521D01*
X57249265Y-127898798D01*
X57249220Y-127905539D01*
X57249678Y-129031187D01*
X57113920Y-129031187D01*
X56892989Y-129052947D01*
X56758920Y-129093616D01*
X56624851Y-129052947D01*
X56403920Y-129031187D01*
X55843920Y-129031187D01*
X55622989Y-129052947D01*
X55488920Y-129093616D01*
X55354851Y-129052947D01*
X55133920Y-129031187D01*
X54573920Y-129031187D01*
X54352989Y-129052947D01*
X54218920Y-129093616D01*
X54084851Y-129052947D01*
X53863920Y-129031187D01*
X53707100Y-129031187D01*
X53707100Y-128257368D01*
X53715320Y-128216043D01*
X53715320Y-127563637D01*
X53588041Y-126923765D01*
X53338376Y-126321020D01*
X52975918Y-125778563D01*
X52514597Y-125317242D01*
X51972140Y-124954784D01*
X51369395Y-124705119D01*
X50729523Y-124577840D01*
X50077117Y-124577840D01*
X49437245Y-124705119D01*
X48834500Y-124954784D01*
X48292043Y-125317242D01*
X47830722Y-125778563D01*
X47468264Y-126321020D01*
X47218599Y-126923765D01*
X47091320Y-127563637D01*
X47091320Y-127782283D01*
X47091053Y-127784857D01*
X47079324Y-127889804D01*
X47079268Y-127898240D01*
X47079239Y-127898521D01*
X47079265Y-127898798D01*
X47079220Y-127905539D01*
X47079673Y-129017547D01*
X46953920Y-129017547D01*
X46896204Y-129023232D01*
X46903591Y-73213138D01*
X54873000Y-73213138D01*
X54873000Y-76586862D01*
X55531181Y-79895762D01*
X56822250Y-83012677D01*
X58696591Y-85817826D01*
X61082174Y-88203409D01*
X63887323Y-90077750D01*
X67004238Y-91368819D01*
X70313138Y-92027000D01*
X73686862Y-92027000D01*
X76995762Y-91368819D01*
X80112677Y-90077750D01*
X82917826Y-88203409D01*
X85303409Y-85817826D01*
X87177750Y-83012677D01*
X88468819Y-79895762D01*
X89127000Y-76586862D01*
X89127000Y-73213138D01*
X88468819Y-69904238D01*
X87177750Y-66787323D01*
X85652354Y-64504407D01*
X85881742Y-64527000D01*
X86071058Y-64527000D01*
X86354158Y-64499117D01*
X86717399Y-64388929D01*
X87052163Y-64209994D01*
X87345587Y-63969187D01*
X87586394Y-63675763D01*
X87765329Y-63340999D01*
X87875517Y-62977758D01*
X87912723Y-62600000D01*
X87875517Y-62222242D01*
X87765329Y-61859001D01*
X87586394Y-61524237D01*
X87345587Y-61230813D01*
X87052163Y-60990006D01*
X86717399Y-60811071D01*
X86354158Y-60700883D01*
X86071058Y-60673000D01*
X85881742Y-60673000D01*
X85598642Y-60700883D01*
X85235401Y-60811071D01*
X84900637Y-60990006D01*
X84607213Y-61230813D01*
X84366406Y-61524237D01*
X84187471Y-61859001D01*
X84077283Y-62222242D01*
X84040077Y-62600000D01*
X84053061Y-62731826D01*
X82917826Y-61596591D01*
X80112677Y-59722250D01*
X76995762Y-58431181D01*
X73686862Y-57773000D01*
X72342865Y-57773000D01*
X72955866Y-57651067D01*
X73552242Y-57404040D01*
X74088966Y-57045412D01*
X74545412Y-56588966D01*
X74904040Y-56052242D01*
X75151067Y-55455866D01*
X75277000Y-54822756D01*
X75277000Y-54177244D01*
X75151067Y-53544134D01*
X74904040Y-52947758D01*
X74545412Y-52411034D01*
X74088966Y-51954588D01*
X73552242Y-51595960D01*
X72955866Y-51348933D01*
X72322756Y-51223000D01*
X71677244Y-51223000D01*
X71044134Y-51348933D01*
X70447758Y-51595960D01*
X69911034Y-51954588D01*
X69454588Y-52411034D01*
X69095960Y-52947758D01*
X68848933Y-53544134D01*
X68723000Y-54177244D01*
X68723000Y-54822756D01*
X68848933Y-55455866D01*
X69095960Y-56052242D01*
X69454588Y-56588966D01*
X69911034Y-57045412D01*
X70447758Y-57404040D01*
X71044134Y-57651067D01*
X71657135Y-57773000D01*
X70313138Y-57773000D01*
X67004238Y-58431181D01*
X63887323Y-59722250D01*
X61082174Y-61596591D01*
X60411964Y-62266801D01*
X60348929Y-62059001D01*
X60169994Y-61724237D01*
X59929187Y-61430813D01*
X59635763Y-61190006D01*
X59300999Y-61011071D01*
X58937758Y-60900883D01*
X58654658Y-60873000D01*
X58465342Y-60873000D01*
X58182242Y-60900883D01*
X57819001Y-61011071D01*
X57484237Y-61190006D01*
X57190813Y-61430813D01*
X56950006Y-61724237D01*
X56771071Y-62059001D01*
X56660883Y-62422242D01*
X56623677Y-62800000D01*
X56660883Y-63177758D01*
X56771071Y-63540999D01*
X56950006Y-63875763D01*
X57190813Y-64169187D01*
X57484237Y-64409994D01*
X57819001Y-64588929D01*
X58182242Y-64699117D01*
X58215365Y-64702379D01*
X56822250Y-66787323D01*
X55531181Y-69904238D01*
X54873000Y-73213138D01*
X46903591Y-73213138D01*
X46904807Y-64029997D01*
X47171609Y-64296799D01*
X47487223Y-64507685D01*
X47837915Y-64652947D01*
X48210207Y-64727000D01*
X48589793Y-64727000D01*
X48962085Y-64652947D01*
X49312777Y-64507685D01*
X49628391Y-64296799D01*
X49896799Y-64028391D01*
X50107685Y-63712777D01*
X50252947Y-63362085D01*
X50327000Y-62989793D01*
X50327000Y-62610207D01*
X50326674Y-62608566D01*
X52173515Y-60761725D01*
X52270843Y-60841600D01*
X52466629Y-60946250D01*
X52679069Y-61010693D01*
X52900000Y-61032453D01*
X54700000Y-61032453D01*
X54920931Y-61010693D01*
X55133371Y-60946250D01*
X55329157Y-60841600D01*
X55500765Y-60700765D01*
X55641600Y-60529157D01*
X55746250Y-60333371D01*
X55810693Y-60120931D01*
X55832453Y-59900000D01*
X55832453Y-58100000D01*
X55810693Y-57879069D01*
X55746250Y-57666629D01*
X55641600Y-57470843D01*
X55597541Y-57417158D01*
X55749104Y-57051254D01*
X55827000Y-56659642D01*
X55827000Y-56260358D01*
X55749104Y-55868746D01*
X55596304Y-55499855D01*
X55374474Y-55167863D01*
X55092137Y-54885526D01*
X54760145Y-54663696D01*
X54391254Y-54510896D01*
X53999642Y-54433000D01*
X53600358Y-54433000D01*
X53208746Y-54510896D01*
X52839855Y-54663696D01*
X52507863Y-54885526D01*
X52225526Y-55167863D01*
X52003696Y-55499855D01*
X51850896Y-55868746D01*
X51773000Y-56260358D01*
X51773000Y-56659642D01*
X51850896Y-57051254D01*
X52002459Y-57417158D01*
X51958400Y-57470843D01*
X51853750Y-57666629D01*
X51801567Y-57838653D01*
X51728176Y-57860916D01*
X51515017Y-57974851D01*
X51328183Y-58128183D01*
X51289765Y-58174995D01*
X48591434Y-60873326D01*
X48589793Y-60873000D01*
X48210207Y-60873000D01*
X47837915Y-60947053D01*
X47487223Y-61092315D01*
X47171609Y-61303201D01*
X46905132Y-61569678D01*
X46906043Y-54692620D01*
X46969303Y-54004161D01*
X47142625Y-53389610D01*
X47425036Y-52816936D01*
X47807075Y-52305324D01*
X48275956Y-51871895D01*
X48815970Y-51531170D01*
X49409037Y-51294560D01*
X50057509Y-51165571D01*
X50430002Y-51146050D01*
X93517460Y-51146050D01*
X94205839Y-51209303D01*
M02*
