%TF.GenerationSoftware,KiCad,Pcbnew,(5.1.2)-2*%
%TF.CreationDate,2019-08-12T12:17:33+02:00*%
%TF.ProjectId,badge,62616467-652e-46b6-9963-61645f706362,1*%
%TF.SameCoordinates,Original*%
%TF.FileFunction,Soldermask,Top*%
%TF.FilePolarity,Negative*%
%FSLAX46Y46*%
G04 Gerber Fmt 4.6, Leading zero omitted, Abs format (unit mm)*
G04 Created by KiCad (PCBNEW (5.1.2)-2) date 2019-08-12 12:17:33*
%MOMM*%
%LPD*%
G04 APERTURE LIST*
%ADD10C,0.038100*%
%ADD11C,0.152400*%
%ADD12C,0.010000*%
G04 APERTURE END LIST*
D10*
X45760000Y-54640000D02*
G75*
G02X50400000Y-50000000I4640000J0D01*
G01*
X93570000Y-50000000D02*
G75*
G02X98210000Y-54640000I0J-4640000D01*
G01*
X98220000Y-130190000D02*
G75*
G02X93580000Y-134830000I-4640000J0D01*
G01*
X50390000Y-134830000D02*
G75*
G02X45750000Y-130190000I0J4640000D01*
G01*
X45760000Y-54640000D02*
X45750000Y-130190000D01*
X93570000Y-50000000D02*
X50400000Y-50000000D01*
X98220000Y-130190000D02*
X98210000Y-54640000D01*
X50390000Y-134830000D02*
X93580000Y-134830000D01*
D11*
G36*
X91325100Y-134145860D02*
G01*
X91322560Y-127905080D01*
X95696440Y-127900000D01*
X95696440Y-134145860D01*
X91325100Y-134145860D01*
G37*
G36*
X81159860Y-134145860D02*
G01*
X81157320Y-127905080D01*
X85531200Y-127900000D01*
X85531200Y-134145860D01*
X81159860Y-134145860D01*
G37*
G36*
X69745420Y-134145860D02*
G01*
X69742880Y-127905080D01*
X74116760Y-127900000D01*
X74116760Y-134145860D01*
X69745420Y-134145860D01*
G37*
G36*
X58345900Y-134150940D02*
G01*
X58343360Y-127910160D01*
X62717240Y-127905080D01*
X62717240Y-134150940D01*
X58345900Y-134150940D01*
G37*
G36*
X48224000Y-134163640D02*
G01*
X48221460Y-127922860D01*
X52595340Y-127917780D01*
X52595340Y-134163640D01*
X48224000Y-134163640D01*
G37*
D12*
G36*
X72176273Y-68705654D02*
G01*
X72679856Y-68877660D01*
X73084394Y-69175397D01*
X73405314Y-69607415D01*
X73457032Y-69703288D01*
X73549420Y-69920088D01*
X73594623Y-70148900D01*
X73600918Y-70450193D01*
X73590305Y-70676954D01*
X73476757Y-71344556D01*
X73222830Y-71918799D01*
X72830744Y-72396199D01*
X72302721Y-72773268D01*
X72230585Y-72811478D01*
X71919471Y-72921363D01*
X71516959Y-72997405D01*
X71089467Y-73033279D01*
X70703413Y-73022663D01*
X70475452Y-72978590D01*
X69928875Y-72725885D01*
X69513701Y-72373635D01*
X69236667Y-71930563D01*
X69104511Y-71405387D01*
X69093679Y-71190000D01*
X69172968Y-70534985D01*
X69404229Y-69929784D01*
X69736510Y-69448855D01*
X70181648Y-69042481D01*
X70681710Y-68784564D01*
X71262906Y-68663622D01*
X71558219Y-68650827D01*
X72176273Y-68705654D01*
X72176273Y-68705654D01*
G37*
X72176273Y-68705654D02*
X72679856Y-68877660D01*
X73084394Y-69175397D01*
X73405314Y-69607415D01*
X73457032Y-69703288D01*
X73549420Y-69920088D01*
X73594623Y-70148900D01*
X73600918Y-70450193D01*
X73590305Y-70676954D01*
X73476757Y-71344556D01*
X73222830Y-71918799D01*
X72830744Y-72396199D01*
X72302721Y-72773268D01*
X72230585Y-72811478D01*
X71919471Y-72921363D01*
X71516959Y-72997405D01*
X71089467Y-73033279D01*
X70703413Y-73022663D01*
X70475452Y-72978590D01*
X69928875Y-72725885D01*
X69513701Y-72373635D01*
X69236667Y-71930563D01*
X69104511Y-71405387D01*
X69093679Y-71190000D01*
X69172968Y-70534985D01*
X69404229Y-69929784D01*
X69736510Y-69448855D01*
X70181648Y-69042481D01*
X70681710Y-68784564D01*
X71262906Y-68663622D01*
X71558219Y-68650827D01*
X72176273Y-68705654D01*
G36*
X70175200Y-76740907D02*
G01*
X70630430Y-76828023D01*
X70865016Y-76922644D01*
X71331762Y-77255697D01*
X71660692Y-77677171D01*
X71847532Y-78171368D01*
X71888009Y-78722593D01*
X71777847Y-79315148D01*
X71624649Y-79712426D01*
X71286978Y-80252227D01*
X70840385Y-80675926D01*
X70309256Y-80971175D01*
X69717978Y-81125624D01*
X69090937Y-81126926D01*
X68894968Y-81094684D01*
X68396504Y-80938642D01*
X67997418Y-80681800D01*
X67788197Y-80472587D01*
X67519949Y-80080604D01*
X67381872Y-79645461D01*
X67362225Y-79126057D01*
X67371092Y-79012515D01*
X67510775Y-78360932D01*
X67797000Y-77791698D01*
X68223784Y-77313612D01*
X68782667Y-76936759D01*
X69187686Y-76795706D01*
X69673074Y-76730278D01*
X70175200Y-76740907D01*
X70175200Y-76740907D01*
G37*
X70175200Y-76740907D02*
X70630430Y-76828023D01*
X70865016Y-76922644D01*
X71331762Y-77255697D01*
X71660692Y-77677171D01*
X71847532Y-78171368D01*
X71888009Y-78722593D01*
X71777847Y-79315148D01*
X71624649Y-79712426D01*
X71286978Y-80252227D01*
X70840385Y-80675926D01*
X70309256Y-80971175D01*
X69717978Y-81125624D01*
X69090937Y-81126926D01*
X68894968Y-81094684D01*
X68396504Y-80938642D01*
X67997418Y-80681800D01*
X67788197Y-80472587D01*
X67519949Y-80080604D01*
X67381872Y-79645461D01*
X67362225Y-79126057D01*
X67371092Y-79012515D01*
X67510775Y-78360932D01*
X67797000Y-77791698D01*
X68223784Y-77313612D01*
X68782667Y-76936759D01*
X69187686Y-76795706D01*
X69673074Y-76730278D01*
X70175200Y-76740907D01*
G36*
X64213454Y-75725576D02*
G01*
X64482073Y-75749479D01*
X64689516Y-75802878D01*
X64889774Y-75896668D01*
X64991583Y-75954750D01*
X65409431Y-76295386D01*
X65626583Y-76589750D01*
X65753708Y-76831526D01*
X65824354Y-77055897D01*
X65853331Y-77329536D01*
X65856499Y-77624667D01*
X65786619Y-78250434D01*
X65579029Y-78792515D01*
X65220254Y-79282287D01*
X65085815Y-79419201D01*
X64592742Y-79782233D01*
X64028029Y-80008892D01*
X63426483Y-80093292D01*
X62822914Y-80029547D01*
X62380425Y-79876617D01*
X61939829Y-79586791D01*
X61618056Y-79198671D01*
X61417586Y-78736996D01*
X61340896Y-78226509D01*
X61390466Y-77691951D01*
X61568774Y-77158061D01*
X61878301Y-76649582D01*
X62038125Y-76460238D01*
X62383868Y-76125497D01*
X62719077Y-75905311D01*
X63093832Y-75778993D01*
X63558212Y-75725859D01*
X63829667Y-75720274D01*
X64213454Y-75725576D01*
X64213454Y-75725576D01*
G37*
X64213454Y-75725576D02*
X64482073Y-75749479D01*
X64689516Y-75802878D01*
X64889774Y-75896668D01*
X64991583Y-75954750D01*
X65409431Y-76295386D01*
X65626583Y-76589750D01*
X65753708Y-76831526D01*
X65824354Y-77055897D01*
X65853331Y-77329536D01*
X65856499Y-77624667D01*
X65786619Y-78250434D01*
X65579029Y-78792515D01*
X65220254Y-79282287D01*
X65085815Y-79419201D01*
X64592742Y-79782233D01*
X64028029Y-80008892D01*
X63426483Y-80093292D01*
X62822914Y-80029547D01*
X62380425Y-79876617D01*
X61939829Y-79586791D01*
X61618056Y-79198671D01*
X61417586Y-78736996D01*
X61340896Y-78226509D01*
X61390466Y-77691951D01*
X61568774Y-77158061D01*
X61878301Y-76649582D01*
X62038125Y-76460238D01*
X62383868Y-76125497D01*
X62719077Y-75905311D01*
X63093832Y-75778993D01*
X63558212Y-75725859D01*
X63829667Y-75720274D01*
X64213454Y-75725576D01*
G36*
X72402220Y-59444154D02*
G01*
X73184703Y-59476898D01*
X73920310Y-59532669D01*
X74555848Y-59609838D01*
X74709333Y-59635184D01*
X76267483Y-59995593D01*
X77760052Y-60507072D01*
X79178804Y-61161366D01*
X80515501Y-61950216D01*
X81761907Y-62865367D01*
X82909784Y-63898561D01*
X83950895Y-65041541D01*
X84877004Y-66286050D01*
X85679874Y-67623830D01*
X86351267Y-69046625D01*
X86882947Y-70546179D01*
X87266676Y-72114233D01*
X87291827Y-72248333D01*
X87364959Y-72782533D01*
X87416796Y-73441907D01*
X87447340Y-74183806D01*
X87456595Y-74965583D01*
X87444562Y-75744591D01*
X87411245Y-76478179D01*
X87356646Y-77123702D01*
X87291495Y-77582333D01*
X86919492Y-79157659D01*
X86397485Y-80668933D01*
X85733070Y-82106737D01*
X84933845Y-83461652D01*
X84007406Y-84724260D01*
X82961348Y-85885144D01*
X81803268Y-86934884D01*
X80540763Y-87864064D01*
X79181428Y-88663264D01*
X77864126Y-89270675D01*
X77469034Y-89423670D01*
X77041307Y-89578017D01*
X76611767Y-89723957D01*
X76211234Y-89851729D01*
X75870529Y-89951571D01*
X75620471Y-90013724D01*
X75491880Y-90028427D01*
X75483292Y-90024668D01*
X75531516Y-89956775D01*
X75680356Y-89768393D01*
X75921965Y-89469070D01*
X76248494Y-89068351D01*
X76652096Y-88575785D01*
X77124923Y-88000917D01*
X77659126Y-87353296D01*
X78246859Y-86642467D01*
X78880272Y-85877977D01*
X79551519Y-85069374D01*
X80012959Y-84514361D01*
X80844074Y-83515259D01*
X81573426Y-82638287D01*
X82207573Y-81875416D01*
X82753073Y-81218620D01*
X83216485Y-80659872D01*
X83604366Y-80191147D01*
X83923276Y-79804416D01*
X84179771Y-79491654D01*
X84380410Y-79244834D01*
X84531751Y-79055930D01*
X84640353Y-78916914D01*
X84712773Y-78819760D01*
X84755570Y-78756441D01*
X84775301Y-78718932D01*
X84778525Y-78699204D01*
X84772136Y-78689508D01*
X84677195Y-78661789D01*
X84479393Y-78624362D01*
X84422492Y-78615260D01*
X84102651Y-78565886D01*
X82583615Y-80385300D01*
X82133231Y-80922666D01*
X81778268Y-81340390D01*
X81507378Y-81650261D01*
X81309215Y-81864069D01*
X81172430Y-81993605D01*
X81085678Y-82050659D01*
X81037611Y-82047020D01*
X81019802Y-82010190D01*
X80992779Y-81870705D01*
X80942848Y-81592076D01*
X80874860Y-81202200D01*
X80793666Y-80728976D01*
X80704119Y-80200301D01*
X80676789Y-80037667D01*
X80586005Y-79499024D01*
X80502527Y-79008583D01*
X80431126Y-78593979D01*
X80376570Y-78282847D01*
X80343630Y-78102823D01*
X80338676Y-78078515D01*
X80259527Y-77943241D01*
X80070617Y-77871516D01*
X79980566Y-77857698D01*
X79769553Y-77836791D01*
X79646954Y-77834877D01*
X79637689Y-77837715D01*
X79645264Y-77922800D01*
X79678551Y-78154167D01*
X79734254Y-78511267D01*
X79809078Y-78973551D01*
X79899730Y-79520471D01*
X80002914Y-80131477D01*
X80044176Y-80372985D01*
X80168678Y-81106732D01*
X80264530Y-81691324D01*
X80333831Y-82144121D01*
X80378681Y-82482487D01*
X80401178Y-82723783D01*
X80403420Y-82885372D01*
X80387506Y-82984616D01*
X80365154Y-83028283D01*
X80291348Y-83118343D01*
X80119537Y-83326052D01*
X79860077Y-83638942D01*
X79523329Y-84044544D01*
X79119649Y-84530389D01*
X78659398Y-85084009D01*
X78152932Y-85692933D01*
X77610612Y-86344694D01*
X77321698Y-86691805D01*
X76665962Y-87476229D01*
X76072679Y-88179235D01*
X75548261Y-88793486D01*
X75099116Y-89311648D01*
X74731657Y-89726388D01*
X74452293Y-90030370D01*
X74267434Y-90216259D01*
X74189032Y-90276052D01*
X73983533Y-90310577D01*
X73640828Y-90337567D01*
X73192879Y-90356955D01*
X72671646Y-90368673D01*
X72109093Y-90372653D01*
X71537180Y-90368829D01*
X70987871Y-90357131D01*
X70493127Y-90337493D01*
X70084909Y-90309847D01*
X69864267Y-90285197D01*
X68276759Y-89975231D01*
X66753871Y-89513419D01*
X65303628Y-88907508D01*
X63934054Y-88165247D01*
X62653176Y-87294384D01*
X61469018Y-86302669D01*
X60389605Y-85197850D01*
X59422962Y-83987675D01*
X58577115Y-82679894D01*
X58547806Y-82622764D01*
X76098027Y-82622764D01*
X76107045Y-82758711D01*
X76155504Y-82832473D01*
X76241515Y-82860611D01*
X76363191Y-82859683D01*
X76434283Y-82853724D01*
X76506485Y-82843742D01*
X76569115Y-82816352D01*
X76629517Y-82753777D01*
X76695038Y-82638241D01*
X76773024Y-82451969D01*
X76870819Y-82177186D01*
X76995770Y-81796115D01*
X77155222Y-81290981D01*
X77356521Y-80644008D01*
X77383985Y-80555521D01*
X77568517Y-79964503D01*
X77738373Y-79427270D01*
X77886744Y-78964820D01*
X78006822Y-78598148D01*
X78091798Y-78348252D01*
X78134863Y-78236128D01*
X78137257Y-78232520D01*
X78239081Y-78220673D01*
X78456881Y-78236917D01*
X78698360Y-78270713D01*
X78981811Y-78314025D01*
X79143463Y-78318747D01*
X79228336Y-78275354D01*
X79281450Y-78174319D01*
X79292759Y-78144946D01*
X79343424Y-77938096D01*
X79289694Y-77804389D01*
X79109191Y-77721301D01*
X78822390Y-77671503D01*
X78551587Y-77621185D01*
X78385098Y-77556480D01*
X78351399Y-77512741D01*
X78376272Y-77395677D01*
X78442655Y-77154424D01*
X78539986Y-76825924D01*
X78640159Y-76502545D01*
X78927519Y-75592091D01*
X78730123Y-75542548D01*
X78539200Y-75507283D01*
X78394911Y-75527428D01*
X78278183Y-75625792D01*
X78169948Y-75825184D01*
X78051135Y-76148413D01*
X77944873Y-76481761D01*
X77828642Y-76851597D01*
X77730144Y-77156697D01*
X77660270Y-77363880D01*
X77630536Y-77439582D01*
X77540529Y-77440695D01*
X77336597Y-77414932D01*
X77167292Y-77386537D01*
X76910372Y-77345096D01*
X76769532Y-77350036D01*
X76694825Y-77414433D01*
X76647140Y-77522722D01*
X76594673Y-77748068D01*
X76661777Y-77886759D01*
X76868571Y-77965612D01*
X76995014Y-77986419D01*
X77223608Y-78025101D01*
X77370398Y-78064870D01*
X77390493Y-78076271D01*
X77377144Y-78164814D01*
X77318476Y-78394057D01*
X77220461Y-78743320D01*
X77089070Y-79191924D01*
X76930272Y-79719189D01*
X76750040Y-80304435D01*
X76710679Y-80430681D01*
X76494154Y-81125943D01*
X76326515Y-81676222D01*
X76205873Y-82098079D01*
X76130340Y-82408073D01*
X76098027Y-82622764D01*
X58547806Y-82622764D01*
X58229412Y-82002145D01*
X59483805Y-82002145D01*
X59495119Y-82045062D01*
X59648987Y-82091907D01*
X59850333Y-82109482D01*
X60104333Y-82109556D01*
X60117832Y-82064959D01*
X72222726Y-82064959D01*
X72295083Y-82140188D01*
X72523386Y-82217558D01*
X72774204Y-82271316D01*
X72817657Y-82198868D01*
X72899413Y-81993106D01*
X73008971Y-81682863D01*
X73135826Y-81296971D01*
X73179207Y-81159500D01*
X73425010Y-80390535D01*
X73637908Y-79766799D01*
X73825842Y-79269186D01*
X73996753Y-78878593D01*
X74158583Y-78575914D01*
X74319271Y-78342045D01*
X74381145Y-78267857D01*
X74709555Y-77951993D01*
X75037210Y-77776273D01*
X75415382Y-77719698D01*
X75684807Y-77733891D01*
X75959320Y-77754082D01*
X76125342Y-77732255D01*
X76241664Y-77652666D01*
X76316767Y-77564670D01*
X76452168Y-77369504D01*
X76460492Y-77251737D01*
X76331968Y-77166651D01*
X76220699Y-77124949D01*
X75724447Y-77038271D01*
X75209609Y-77104385D01*
X74715320Y-77316892D01*
X74603500Y-77389382D01*
X74440359Y-77481534D01*
X74378032Y-77450644D01*
X74409459Y-77286761D01*
X74450012Y-77172995D01*
X74486742Y-77012949D01*
X74410909Y-76935920D01*
X74344179Y-76914639D01*
X74207898Y-76877805D01*
X74095837Y-76858657D01*
X73999875Y-76872666D01*
X73911892Y-76935303D01*
X73823769Y-77062038D01*
X73727385Y-77268342D01*
X73614620Y-77569685D01*
X73477354Y-77981538D01*
X73307466Y-78519372D01*
X73096838Y-79198658D01*
X73027059Y-79424048D01*
X72832472Y-80053590D01*
X72654494Y-80631992D01*
X72499228Y-81139213D01*
X72372778Y-81555213D01*
X72281248Y-81859950D01*
X72230742Y-82033385D01*
X72222726Y-82064959D01*
X60117832Y-82064959D01*
X60520417Y-80734945D01*
X60661230Y-80276804D01*
X60788720Y-79875182D01*
X60893616Y-79558262D01*
X60966645Y-79354229D01*
X60995027Y-79292123D01*
X61061803Y-79312790D01*
X61148092Y-79453273D01*
X61159378Y-79479394D01*
X61362883Y-79803949D01*
X61682178Y-80126657D01*
X62068160Y-80407142D01*
X62471728Y-80605027D01*
X62565555Y-80635688D01*
X63235247Y-80747558D01*
X63896893Y-80705312D01*
X64529714Y-80523689D01*
X65112933Y-80217426D01*
X65625770Y-79801261D01*
X66047447Y-79289934D01*
X66184928Y-79027277D01*
X66684123Y-79027277D01*
X66699247Y-79657138D01*
X66840735Y-80198715D01*
X67120645Y-80688652D01*
X67304475Y-80912649D01*
X67718607Y-81295748D01*
X68171255Y-81549447D01*
X68699242Y-81688885D01*
X69290667Y-81729290D01*
X69669805Y-81723122D01*
X69946703Y-81692818D01*
X70188178Y-81623904D01*
X70461047Y-81501906D01*
X70553023Y-81455833D01*
X70821621Y-81321276D01*
X71023470Y-81223234D01*
X71118629Y-81181065D01*
X71120767Y-81180667D01*
X71110817Y-81251651D01*
X71056536Y-81430795D01*
X71022577Y-81529978D01*
X70947716Y-81747432D01*
X70903986Y-81884660D01*
X70899333Y-81904770D01*
X70972505Y-81950486D01*
X71146100Y-81986468D01*
X71351233Y-81999922D01*
X71401818Y-81998114D01*
X71462316Y-81986302D01*
X71519436Y-81947856D01*
X71579806Y-81865973D01*
X71650053Y-81723848D01*
X71736806Y-81504678D01*
X71846692Y-81191660D01*
X71986339Y-80767988D01*
X72162375Y-80216860D01*
X72381429Y-79521472D01*
X72392148Y-79487333D01*
X72626894Y-78737150D01*
X72813708Y-78132778D01*
X72956549Y-77658843D01*
X73059374Y-77299967D01*
X73126140Y-77040775D01*
X73160804Y-76865892D01*
X73167324Y-76759941D01*
X73149657Y-76707547D01*
X73111760Y-76693335D01*
X73111250Y-76693333D01*
X72981182Y-76677962D01*
X72785959Y-76643092D01*
X72649044Y-76623931D01*
X72560438Y-76656813D01*
X72492431Y-76775103D01*
X72417312Y-77012165D01*
X72385299Y-77125495D01*
X72235847Y-77658140D01*
X72125761Y-77396322D01*
X71833508Y-76911656D01*
X71415176Y-76526769D01*
X70888438Y-76251948D01*
X70270966Y-76097478D01*
X69841000Y-76066565D01*
X69460889Y-76072784D01*
X69172846Y-76110049D01*
X68900258Y-76194523D01*
X68592949Y-76329864D01*
X67944218Y-76719979D01*
X67417716Y-77214055D01*
X67024095Y-77797039D01*
X66774007Y-78453880D01*
X66684123Y-79027277D01*
X66184928Y-79027277D01*
X66357186Y-78698182D01*
X66534207Y-78040743D01*
X66560676Y-77801968D01*
X66555198Y-77213974D01*
X66437079Y-76705001D01*
X66191218Y-76215650D01*
X66135682Y-76130215D01*
X65755453Y-75706252D01*
X65262917Y-75374748D01*
X64696163Y-75150346D01*
X64093277Y-75047690D01*
X63492349Y-75081422D01*
X63436177Y-75092371D01*
X63089737Y-75191553D01*
X62714350Y-75338647D01*
X62538500Y-75423861D01*
X62303670Y-75545588D01*
X62142572Y-75622253D01*
X62094000Y-75637501D01*
X62119496Y-75551003D01*
X62183786Y-75360412D01*
X62218518Y-75261035D01*
X62288453Y-75031825D01*
X62272158Y-74906014D01*
X62141421Y-74845034D01*
X61890459Y-74812504D01*
X61644585Y-74788333D01*
X60519245Y-78384525D01*
X60229732Y-79315106D01*
X59991388Y-80093564D01*
X59801831Y-80728417D01*
X59658678Y-81228183D01*
X59559544Y-81601380D01*
X59502048Y-81856528D01*
X59483805Y-82002145D01*
X58229412Y-82002145D01*
X57860088Y-81282254D01*
X57279907Y-79802505D01*
X56844596Y-78248394D01*
X56708173Y-77582333D01*
X56635226Y-77049365D01*
X56583464Y-76391010D01*
X56552889Y-75649883D01*
X56543506Y-74868601D01*
X56555318Y-74089778D01*
X56588330Y-73356032D01*
X56617913Y-73003493D01*
X67774433Y-73003493D01*
X67872570Y-73039825D01*
X68070873Y-73086138D01*
X68119827Y-73095620D01*
X68430654Y-73153675D01*
X68575245Y-72638354D01*
X68719837Y-72123034D01*
X68984085Y-72563386D01*
X69356908Y-73028132D01*
X69834037Y-73378569D01*
X70388873Y-73607801D01*
X70994814Y-73708932D01*
X71625262Y-73675067D01*
X72253616Y-73499308D01*
X72381720Y-73444227D01*
X72847239Y-73169011D01*
X73308507Y-72789306D01*
X73690704Y-72375333D01*
X74485881Y-72375333D01*
X74499756Y-72970405D01*
X74666456Y-73504027D01*
X74976054Y-73961489D01*
X75418619Y-74328077D01*
X75978785Y-74587303D01*
X76284052Y-74635276D01*
X76676094Y-74627578D01*
X77084473Y-74571449D01*
X77438751Y-74474129D01*
X77548157Y-74426001D01*
X77810513Y-74274203D01*
X78037846Y-74098090D01*
X78240553Y-73878758D01*
X78429028Y-73597301D01*
X78613669Y-73234813D01*
X78804870Y-72772388D01*
X79013028Y-72191121D01*
X79248539Y-71472107D01*
X79350863Y-71147667D01*
X79530311Y-70568911D01*
X79658226Y-70132270D01*
X79735058Y-69818702D01*
X79761257Y-69609165D01*
X79737275Y-69484617D01*
X79663561Y-69426016D01*
X79540565Y-69414320D01*
X79391537Y-69427751D01*
X79185080Y-69519033D01*
X79103266Y-69666000D01*
X78826031Y-70573002D01*
X78587436Y-71331660D01*
X78380895Y-71956808D01*
X78199822Y-72463285D01*
X78037631Y-72865927D01*
X77887736Y-73179571D01*
X77743551Y-73419053D01*
X77598491Y-73599210D01*
X77445968Y-73734880D01*
X77279397Y-73840898D01*
X77240969Y-73861325D01*
X76857569Y-73975902D01*
X76427356Y-73972922D01*
X75998343Y-73865975D01*
X75618542Y-73668649D01*
X75335965Y-73394534D01*
X75281234Y-73306667D01*
X75190790Y-73075636D01*
X75153006Y-72797365D01*
X75170732Y-72451720D01*
X75246820Y-72018563D01*
X75384118Y-71477759D01*
X75585478Y-70809172D01*
X75673469Y-70535560D01*
X75825978Y-70061055D01*
X75958183Y-69637633D01*
X76061629Y-69293367D01*
X76127861Y-69056332D01*
X76148667Y-68957670D01*
X76076006Y-68872663D01*
X75906046Y-68804988D01*
X75710819Y-68772516D01*
X75562359Y-68793121D01*
X75542402Y-68807248D01*
X75487653Y-68917505D01*
X75398082Y-69161408D01*
X75282558Y-69509002D01*
X75149950Y-69930333D01*
X75009128Y-70395445D01*
X74868962Y-70874386D01*
X74738320Y-71337200D01*
X74626073Y-71753934D01*
X74541091Y-72094632D01*
X74492241Y-72329342D01*
X74485881Y-72375333D01*
X73690704Y-72375333D01*
X73705625Y-72359172D01*
X73907321Y-72067401D01*
X74042089Y-71780210D01*
X74169785Y-71413681D01*
X74248156Y-71111063D01*
X74315907Y-70430104D01*
X74224338Y-69804881D01*
X73974119Y-69237699D01*
X73565920Y-68730865D01*
X73552341Y-68717678D01*
X73090861Y-68357521D01*
X72578943Y-68132603D01*
X71982014Y-68029879D01*
X71703667Y-68020050D01*
X71319986Y-68028875D01*
X71027341Y-68069235D01*
X70748095Y-68157738D01*
X70454833Y-68287197D01*
X70182298Y-68408461D01*
X69980755Y-68484544D01*
X69887137Y-68501832D01*
X69884598Y-68497385D01*
X69908895Y-68400502D01*
X69975290Y-68170282D01*
X70075369Y-67835012D01*
X70200722Y-67422981D01*
X70297222Y-67109782D01*
X70454063Y-66599173D01*
X70559954Y-66228101D01*
X70613939Y-65974316D01*
X70615067Y-65815572D01*
X70562383Y-65729620D01*
X70454934Y-65694211D01*
X70291766Y-65687099D01*
X70236242Y-65687148D01*
X70181820Y-65690421D01*
X70131707Y-65709265D01*
X70080703Y-65757588D01*
X70023608Y-65849302D01*
X69955223Y-65998316D01*
X69870348Y-66218540D01*
X69763785Y-66523883D01*
X69630333Y-66928255D01*
X69464793Y-67445567D01*
X69261965Y-68089728D01*
X69016651Y-68874647D01*
X68875100Y-69328526D01*
X68641930Y-70079457D01*
X68426397Y-70779627D01*
X68233383Y-71412728D01*
X68067773Y-71962456D01*
X67934450Y-72412503D01*
X67838298Y-72746564D01*
X67784202Y-72948333D01*
X67774433Y-73003493D01*
X56617913Y-73003493D01*
X56642544Y-72709978D01*
X56707703Y-72248333D01*
X57077820Y-70676171D01*
X57600101Y-69161666D01*
X58267415Y-67716403D01*
X59072629Y-66351971D01*
X60008612Y-65079955D01*
X61068229Y-63911942D01*
X62244350Y-62859520D01*
X62707055Y-62502154D01*
X63055144Y-62254503D01*
X63451014Y-61989737D01*
X63869432Y-61722788D01*
X64285166Y-61468588D01*
X64672985Y-61242069D01*
X65007656Y-61058161D01*
X65263947Y-60931797D01*
X65416627Y-60877908D01*
X65445300Y-60881744D01*
X65428623Y-60968258D01*
X65364951Y-61201337D01*
X65258762Y-61566225D01*
X65114534Y-62048168D01*
X64936744Y-62632409D01*
X64729871Y-63304193D01*
X64498391Y-64048764D01*
X64246783Y-64851366D01*
X64086627Y-65359048D01*
X63819470Y-66207779D01*
X63565496Y-67022012D01*
X63329819Y-67784851D01*
X63117552Y-68479397D01*
X62933812Y-69088752D01*
X62783710Y-69596017D01*
X62672363Y-69984295D01*
X62604884Y-70236687D01*
X62589126Y-70307003D01*
X62557440Y-70885179D01*
X62686270Y-71410105D01*
X62974870Y-71879390D01*
X63131292Y-72047516D01*
X63542472Y-72341667D01*
X64059046Y-72553888D01*
X64634799Y-72677667D01*
X65223512Y-72706491D01*
X65778970Y-72633848D01*
X66204139Y-72480521D01*
X66600448Y-72206607D01*
X66984828Y-71814657D01*
X67313692Y-71352981D01*
X67448120Y-71101756D01*
X67522625Y-70918724D01*
X67633442Y-70613096D01*
X67773285Y-70207794D01*
X67934871Y-69725742D01*
X68110915Y-69189865D01*
X68294132Y-68623085D01*
X68477239Y-68048326D01*
X68652950Y-67488512D01*
X68813983Y-66966567D01*
X68953051Y-66505413D01*
X69062872Y-66127975D01*
X69136160Y-65857177D01*
X69165632Y-65715941D01*
X69164195Y-65701306D01*
X69063225Y-65674689D01*
X68861168Y-65656258D01*
X68811164Y-65654244D01*
X68495285Y-65644333D01*
X67845560Y-67731077D01*
X67655078Y-68336643D01*
X67466553Y-68924686D01*
X67290105Y-69464479D01*
X67135854Y-69925295D01*
X67013920Y-70276408D01*
X66953233Y-70440410D01*
X66647474Y-71054720D01*
X66269068Y-71518698D01*
X65821069Y-71830444D01*
X65306532Y-71988058D01*
X64728510Y-71989640D01*
X64519221Y-71954537D01*
X64013271Y-71782124D01*
X63640572Y-71506593D01*
X63405655Y-71134849D01*
X63313052Y-70673798D01*
X63356292Y-70182391D01*
X63403184Y-69994762D01*
X63494026Y-69673322D01*
X63623318Y-69235398D01*
X63785563Y-68698315D01*
X63975261Y-68079399D01*
X64186914Y-67395976D01*
X64415023Y-66665373D01*
X64654090Y-65904915D01*
X64898616Y-65131929D01*
X65143103Y-64363740D01*
X65382052Y-63617675D01*
X65609964Y-62911059D01*
X65821342Y-62261219D01*
X66010685Y-61685481D01*
X66172497Y-61201170D01*
X66301277Y-60825612D01*
X66391528Y-60576135D01*
X66437751Y-60470062D01*
X66439062Y-60468582D01*
X66622900Y-60357620D01*
X66946407Y-60229979D01*
X67381584Y-60092672D01*
X67900433Y-59952709D01*
X68474954Y-59817102D01*
X69077148Y-59692863D01*
X69679017Y-59587002D01*
X70252562Y-59506532D01*
X70305441Y-59500362D01*
X70909396Y-59454257D01*
X71626053Y-59436064D01*
X72402220Y-59444154D01*
X72402220Y-59444154D01*
G37*
X72402220Y-59444154D02*
X73184703Y-59476898D01*
X73920310Y-59532669D01*
X74555848Y-59609838D01*
X74709333Y-59635184D01*
X76267483Y-59995593D01*
X77760052Y-60507072D01*
X79178804Y-61161366D01*
X80515501Y-61950216D01*
X81761907Y-62865367D01*
X82909784Y-63898561D01*
X83950895Y-65041541D01*
X84877004Y-66286050D01*
X85679874Y-67623830D01*
X86351267Y-69046625D01*
X86882947Y-70546179D01*
X87266676Y-72114233D01*
X87291827Y-72248333D01*
X87364959Y-72782533D01*
X87416796Y-73441907D01*
X87447340Y-74183806D01*
X87456595Y-74965583D01*
X87444562Y-75744591D01*
X87411245Y-76478179D01*
X87356646Y-77123702D01*
X87291495Y-77582333D01*
X86919492Y-79157659D01*
X86397485Y-80668933D01*
X85733070Y-82106737D01*
X84933845Y-83461652D01*
X84007406Y-84724260D01*
X82961348Y-85885144D01*
X81803268Y-86934884D01*
X80540763Y-87864064D01*
X79181428Y-88663264D01*
X77864126Y-89270675D01*
X77469034Y-89423670D01*
X77041307Y-89578017D01*
X76611767Y-89723957D01*
X76211234Y-89851729D01*
X75870529Y-89951571D01*
X75620471Y-90013724D01*
X75491880Y-90028427D01*
X75483292Y-90024668D01*
X75531516Y-89956775D01*
X75680356Y-89768393D01*
X75921965Y-89469070D01*
X76248494Y-89068351D01*
X76652096Y-88575785D01*
X77124923Y-88000917D01*
X77659126Y-87353296D01*
X78246859Y-86642467D01*
X78880272Y-85877977D01*
X79551519Y-85069374D01*
X80012959Y-84514361D01*
X80844074Y-83515259D01*
X81573426Y-82638287D01*
X82207573Y-81875416D01*
X82753073Y-81218620D01*
X83216485Y-80659872D01*
X83604366Y-80191147D01*
X83923276Y-79804416D01*
X84179771Y-79491654D01*
X84380410Y-79244834D01*
X84531751Y-79055930D01*
X84640353Y-78916914D01*
X84712773Y-78819760D01*
X84755570Y-78756441D01*
X84775301Y-78718932D01*
X84778525Y-78699204D01*
X84772136Y-78689508D01*
X84677195Y-78661789D01*
X84479393Y-78624362D01*
X84422492Y-78615260D01*
X84102651Y-78565886D01*
X82583615Y-80385300D01*
X82133231Y-80922666D01*
X81778268Y-81340390D01*
X81507378Y-81650261D01*
X81309215Y-81864069D01*
X81172430Y-81993605D01*
X81085678Y-82050659D01*
X81037611Y-82047020D01*
X81019802Y-82010190D01*
X80992779Y-81870705D01*
X80942848Y-81592076D01*
X80874860Y-81202200D01*
X80793666Y-80728976D01*
X80704119Y-80200301D01*
X80676789Y-80037667D01*
X80586005Y-79499024D01*
X80502527Y-79008583D01*
X80431126Y-78593979D01*
X80376570Y-78282847D01*
X80343630Y-78102823D01*
X80338676Y-78078515D01*
X80259527Y-77943241D01*
X80070617Y-77871516D01*
X79980566Y-77857698D01*
X79769553Y-77836791D01*
X79646954Y-77834877D01*
X79637689Y-77837715D01*
X79645264Y-77922800D01*
X79678551Y-78154167D01*
X79734254Y-78511267D01*
X79809078Y-78973551D01*
X79899730Y-79520471D01*
X80002914Y-80131477D01*
X80044176Y-80372985D01*
X80168678Y-81106732D01*
X80264530Y-81691324D01*
X80333831Y-82144121D01*
X80378681Y-82482487D01*
X80401178Y-82723783D01*
X80403420Y-82885372D01*
X80387506Y-82984616D01*
X80365154Y-83028283D01*
X80291348Y-83118343D01*
X80119537Y-83326052D01*
X79860077Y-83638942D01*
X79523329Y-84044544D01*
X79119649Y-84530389D01*
X78659398Y-85084009D01*
X78152932Y-85692933D01*
X77610612Y-86344694D01*
X77321698Y-86691805D01*
X76665962Y-87476229D01*
X76072679Y-88179235D01*
X75548261Y-88793486D01*
X75099116Y-89311648D01*
X74731657Y-89726388D01*
X74452293Y-90030370D01*
X74267434Y-90216259D01*
X74189032Y-90276052D01*
X73983533Y-90310577D01*
X73640828Y-90337567D01*
X73192879Y-90356955D01*
X72671646Y-90368673D01*
X72109093Y-90372653D01*
X71537180Y-90368829D01*
X70987871Y-90357131D01*
X70493127Y-90337493D01*
X70084909Y-90309847D01*
X69864267Y-90285197D01*
X68276759Y-89975231D01*
X66753871Y-89513419D01*
X65303628Y-88907508D01*
X63934054Y-88165247D01*
X62653176Y-87294384D01*
X61469018Y-86302669D01*
X60389605Y-85197850D01*
X59422962Y-83987675D01*
X58577115Y-82679894D01*
X58547806Y-82622764D01*
X76098027Y-82622764D01*
X76107045Y-82758711D01*
X76155504Y-82832473D01*
X76241515Y-82860611D01*
X76363191Y-82859683D01*
X76434283Y-82853724D01*
X76506485Y-82843742D01*
X76569115Y-82816352D01*
X76629517Y-82753777D01*
X76695038Y-82638241D01*
X76773024Y-82451969D01*
X76870819Y-82177186D01*
X76995770Y-81796115D01*
X77155222Y-81290981D01*
X77356521Y-80644008D01*
X77383985Y-80555521D01*
X77568517Y-79964503D01*
X77738373Y-79427270D01*
X77886744Y-78964820D01*
X78006822Y-78598148D01*
X78091798Y-78348252D01*
X78134863Y-78236128D01*
X78137257Y-78232520D01*
X78239081Y-78220673D01*
X78456881Y-78236917D01*
X78698360Y-78270713D01*
X78981811Y-78314025D01*
X79143463Y-78318747D01*
X79228336Y-78275354D01*
X79281450Y-78174319D01*
X79292759Y-78144946D01*
X79343424Y-77938096D01*
X79289694Y-77804389D01*
X79109191Y-77721301D01*
X78822390Y-77671503D01*
X78551587Y-77621185D01*
X78385098Y-77556480D01*
X78351399Y-77512741D01*
X78376272Y-77395677D01*
X78442655Y-77154424D01*
X78539986Y-76825924D01*
X78640159Y-76502545D01*
X78927519Y-75592091D01*
X78730123Y-75542548D01*
X78539200Y-75507283D01*
X78394911Y-75527428D01*
X78278183Y-75625792D01*
X78169948Y-75825184D01*
X78051135Y-76148413D01*
X77944873Y-76481761D01*
X77828642Y-76851597D01*
X77730144Y-77156697D01*
X77660270Y-77363880D01*
X77630536Y-77439582D01*
X77540529Y-77440695D01*
X77336597Y-77414932D01*
X77167292Y-77386537D01*
X76910372Y-77345096D01*
X76769532Y-77350036D01*
X76694825Y-77414433D01*
X76647140Y-77522722D01*
X76594673Y-77748068D01*
X76661777Y-77886759D01*
X76868571Y-77965612D01*
X76995014Y-77986419D01*
X77223608Y-78025101D01*
X77370398Y-78064870D01*
X77390493Y-78076271D01*
X77377144Y-78164814D01*
X77318476Y-78394057D01*
X77220461Y-78743320D01*
X77089070Y-79191924D01*
X76930272Y-79719189D01*
X76750040Y-80304435D01*
X76710679Y-80430681D01*
X76494154Y-81125943D01*
X76326515Y-81676222D01*
X76205873Y-82098079D01*
X76130340Y-82408073D01*
X76098027Y-82622764D01*
X58547806Y-82622764D01*
X58229412Y-82002145D01*
X59483805Y-82002145D01*
X59495119Y-82045062D01*
X59648987Y-82091907D01*
X59850333Y-82109482D01*
X60104333Y-82109556D01*
X60117832Y-82064959D01*
X72222726Y-82064959D01*
X72295083Y-82140188D01*
X72523386Y-82217558D01*
X72774204Y-82271316D01*
X72817657Y-82198868D01*
X72899413Y-81993106D01*
X73008971Y-81682863D01*
X73135826Y-81296971D01*
X73179207Y-81159500D01*
X73425010Y-80390535D01*
X73637908Y-79766799D01*
X73825842Y-79269186D01*
X73996753Y-78878593D01*
X74158583Y-78575914D01*
X74319271Y-78342045D01*
X74381145Y-78267857D01*
X74709555Y-77951993D01*
X75037210Y-77776273D01*
X75415382Y-77719698D01*
X75684807Y-77733891D01*
X75959320Y-77754082D01*
X76125342Y-77732255D01*
X76241664Y-77652666D01*
X76316767Y-77564670D01*
X76452168Y-77369504D01*
X76460492Y-77251737D01*
X76331968Y-77166651D01*
X76220699Y-77124949D01*
X75724447Y-77038271D01*
X75209609Y-77104385D01*
X74715320Y-77316892D01*
X74603500Y-77389382D01*
X74440359Y-77481534D01*
X74378032Y-77450644D01*
X74409459Y-77286761D01*
X74450012Y-77172995D01*
X74486742Y-77012949D01*
X74410909Y-76935920D01*
X74344179Y-76914639D01*
X74207898Y-76877805D01*
X74095837Y-76858657D01*
X73999875Y-76872666D01*
X73911892Y-76935303D01*
X73823769Y-77062038D01*
X73727385Y-77268342D01*
X73614620Y-77569685D01*
X73477354Y-77981538D01*
X73307466Y-78519372D01*
X73096838Y-79198658D01*
X73027059Y-79424048D01*
X72832472Y-80053590D01*
X72654494Y-80631992D01*
X72499228Y-81139213D01*
X72372778Y-81555213D01*
X72281248Y-81859950D01*
X72230742Y-82033385D01*
X72222726Y-82064959D01*
X60117832Y-82064959D01*
X60520417Y-80734945D01*
X60661230Y-80276804D01*
X60788720Y-79875182D01*
X60893616Y-79558262D01*
X60966645Y-79354229D01*
X60995027Y-79292123D01*
X61061803Y-79312790D01*
X61148092Y-79453273D01*
X61159378Y-79479394D01*
X61362883Y-79803949D01*
X61682178Y-80126657D01*
X62068160Y-80407142D01*
X62471728Y-80605027D01*
X62565555Y-80635688D01*
X63235247Y-80747558D01*
X63896893Y-80705312D01*
X64529714Y-80523689D01*
X65112933Y-80217426D01*
X65625770Y-79801261D01*
X66047447Y-79289934D01*
X66184928Y-79027277D01*
X66684123Y-79027277D01*
X66699247Y-79657138D01*
X66840735Y-80198715D01*
X67120645Y-80688652D01*
X67304475Y-80912649D01*
X67718607Y-81295748D01*
X68171255Y-81549447D01*
X68699242Y-81688885D01*
X69290667Y-81729290D01*
X69669805Y-81723122D01*
X69946703Y-81692818D01*
X70188178Y-81623904D01*
X70461047Y-81501906D01*
X70553023Y-81455833D01*
X70821621Y-81321276D01*
X71023470Y-81223234D01*
X71118629Y-81181065D01*
X71120767Y-81180667D01*
X71110817Y-81251651D01*
X71056536Y-81430795D01*
X71022577Y-81529978D01*
X70947716Y-81747432D01*
X70903986Y-81884660D01*
X70899333Y-81904770D01*
X70972505Y-81950486D01*
X71146100Y-81986468D01*
X71351233Y-81999922D01*
X71401818Y-81998114D01*
X71462316Y-81986302D01*
X71519436Y-81947856D01*
X71579806Y-81865973D01*
X71650053Y-81723848D01*
X71736806Y-81504678D01*
X71846692Y-81191660D01*
X71986339Y-80767988D01*
X72162375Y-80216860D01*
X72381429Y-79521472D01*
X72392148Y-79487333D01*
X72626894Y-78737150D01*
X72813708Y-78132778D01*
X72956549Y-77658843D01*
X73059374Y-77299967D01*
X73126140Y-77040775D01*
X73160804Y-76865892D01*
X73167324Y-76759941D01*
X73149657Y-76707547D01*
X73111760Y-76693335D01*
X73111250Y-76693333D01*
X72981182Y-76677962D01*
X72785959Y-76643092D01*
X72649044Y-76623931D01*
X72560438Y-76656813D01*
X72492431Y-76775103D01*
X72417312Y-77012165D01*
X72385299Y-77125495D01*
X72235847Y-77658140D01*
X72125761Y-77396322D01*
X71833508Y-76911656D01*
X71415176Y-76526769D01*
X70888438Y-76251948D01*
X70270966Y-76097478D01*
X69841000Y-76066565D01*
X69460889Y-76072784D01*
X69172846Y-76110049D01*
X68900258Y-76194523D01*
X68592949Y-76329864D01*
X67944218Y-76719979D01*
X67417716Y-77214055D01*
X67024095Y-77797039D01*
X66774007Y-78453880D01*
X66684123Y-79027277D01*
X66184928Y-79027277D01*
X66357186Y-78698182D01*
X66534207Y-78040743D01*
X66560676Y-77801968D01*
X66555198Y-77213974D01*
X66437079Y-76705001D01*
X66191218Y-76215650D01*
X66135682Y-76130215D01*
X65755453Y-75706252D01*
X65262917Y-75374748D01*
X64696163Y-75150346D01*
X64093277Y-75047690D01*
X63492349Y-75081422D01*
X63436177Y-75092371D01*
X63089737Y-75191553D01*
X62714350Y-75338647D01*
X62538500Y-75423861D01*
X62303670Y-75545588D01*
X62142572Y-75622253D01*
X62094000Y-75637501D01*
X62119496Y-75551003D01*
X62183786Y-75360412D01*
X62218518Y-75261035D01*
X62288453Y-75031825D01*
X62272158Y-74906014D01*
X62141421Y-74845034D01*
X61890459Y-74812504D01*
X61644585Y-74788333D01*
X60519245Y-78384525D01*
X60229732Y-79315106D01*
X59991388Y-80093564D01*
X59801831Y-80728417D01*
X59658678Y-81228183D01*
X59559544Y-81601380D01*
X59502048Y-81856528D01*
X59483805Y-82002145D01*
X58229412Y-82002145D01*
X57860088Y-81282254D01*
X57279907Y-79802505D01*
X56844596Y-78248394D01*
X56708173Y-77582333D01*
X56635226Y-77049365D01*
X56583464Y-76391010D01*
X56552889Y-75649883D01*
X56543506Y-74868601D01*
X56555318Y-74089778D01*
X56588330Y-73356032D01*
X56617913Y-73003493D01*
X67774433Y-73003493D01*
X67872570Y-73039825D01*
X68070873Y-73086138D01*
X68119827Y-73095620D01*
X68430654Y-73153675D01*
X68575245Y-72638354D01*
X68719837Y-72123034D01*
X68984085Y-72563386D01*
X69356908Y-73028132D01*
X69834037Y-73378569D01*
X70388873Y-73607801D01*
X70994814Y-73708932D01*
X71625262Y-73675067D01*
X72253616Y-73499308D01*
X72381720Y-73444227D01*
X72847239Y-73169011D01*
X73308507Y-72789306D01*
X73690704Y-72375333D01*
X74485881Y-72375333D01*
X74499756Y-72970405D01*
X74666456Y-73504027D01*
X74976054Y-73961489D01*
X75418619Y-74328077D01*
X75978785Y-74587303D01*
X76284052Y-74635276D01*
X76676094Y-74627578D01*
X77084473Y-74571449D01*
X77438751Y-74474129D01*
X77548157Y-74426001D01*
X77810513Y-74274203D01*
X78037846Y-74098090D01*
X78240553Y-73878758D01*
X78429028Y-73597301D01*
X78613669Y-73234813D01*
X78804870Y-72772388D01*
X79013028Y-72191121D01*
X79248539Y-71472107D01*
X79350863Y-71147667D01*
X79530311Y-70568911D01*
X79658226Y-70132270D01*
X79735058Y-69818702D01*
X79761257Y-69609165D01*
X79737275Y-69484617D01*
X79663561Y-69426016D01*
X79540565Y-69414320D01*
X79391537Y-69427751D01*
X79185080Y-69519033D01*
X79103266Y-69666000D01*
X78826031Y-70573002D01*
X78587436Y-71331660D01*
X78380895Y-71956808D01*
X78199822Y-72463285D01*
X78037631Y-72865927D01*
X77887736Y-73179571D01*
X77743551Y-73419053D01*
X77598491Y-73599210D01*
X77445968Y-73734880D01*
X77279397Y-73840898D01*
X77240969Y-73861325D01*
X76857569Y-73975902D01*
X76427356Y-73972922D01*
X75998343Y-73865975D01*
X75618542Y-73668649D01*
X75335965Y-73394534D01*
X75281234Y-73306667D01*
X75190790Y-73075636D01*
X75153006Y-72797365D01*
X75170732Y-72451720D01*
X75246820Y-72018563D01*
X75384118Y-71477759D01*
X75585478Y-70809172D01*
X75673469Y-70535560D01*
X75825978Y-70061055D01*
X75958183Y-69637633D01*
X76061629Y-69293367D01*
X76127861Y-69056332D01*
X76148667Y-68957670D01*
X76076006Y-68872663D01*
X75906046Y-68804988D01*
X75710819Y-68772516D01*
X75562359Y-68793121D01*
X75542402Y-68807248D01*
X75487653Y-68917505D01*
X75398082Y-69161408D01*
X75282558Y-69509002D01*
X75149950Y-69930333D01*
X75009128Y-70395445D01*
X74868962Y-70874386D01*
X74738320Y-71337200D01*
X74626073Y-71753934D01*
X74541091Y-72094632D01*
X74492241Y-72329342D01*
X74485881Y-72375333D01*
X73690704Y-72375333D01*
X73705625Y-72359172D01*
X73907321Y-72067401D01*
X74042089Y-71780210D01*
X74169785Y-71413681D01*
X74248156Y-71111063D01*
X74315907Y-70430104D01*
X74224338Y-69804881D01*
X73974119Y-69237699D01*
X73565920Y-68730865D01*
X73552341Y-68717678D01*
X73090861Y-68357521D01*
X72578943Y-68132603D01*
X71982014Y-68029879D01*
X71703667Y-68020050D01*
X71319986Y-68028875D01*
X71027341Y-68069235D01*
X70748095Y-68157738D01*
X70454833Y-68287197D01*
X70182298Y-68408461D01*
X69980755Y-68484544D01*
X69887137Y-68501832D01*
X69884598Y-68497385D01*
X69908895Y-68400502D01*
X69975290Y-68170282D01*
X70075369Y-67835012D01*
X70200722Y-67422981D01*
X70297222Y-67109782D01*
X70454063Y-66599173D01*
X70559954Y-66228101D01*
X70613939Y-65974316D01*
X70615067Y-65815572D01*
X70562383Y-65729620D01*
X70454934Y-65694211D01*
X70291766Y-65687099D01*
X70236242Y-65687148D01*
X70181820Y-65690421D01*
X70131707Y-65709265D01*
X70080703Y-65757588D01*
X70023608Y-65849302D01*
X69955223Y-65998316D01*
X69870348Y-66218540D01*
X69763785Y-66523883D01*
X69630333Y-66928255D01*
X69464793Y-67445567D01*
X69261965Y-68089728D01*
X69016651Y-68874647D01*
X68875100Y-69328526D01*
X68641930Y-70079457D01*
X68426397Y-70779627D01*
X68233383Y-71412728D01*
X68067773Y-71962456D01*
X67934450Y-72412503D01*
X67838298Y-72746564D01*
X67784202Y-72948333D01*
X67774433Y-73003493D01*
X56617913Y-73003493D01*
X56642544Y-72709978D01*
X56707703Y-72248333D01*
X57077820Y-70676171D01*
X57600101Y-69161666D01*
X58267415Y-67716403D01*
X59072629Y-66351971D01*
X60008612Y-65079955D01*
X61068229Y-63911942D01*
X62244350Y-62859520D01*
X62707055Y-62502154D01*
X63055144Y-62254503D01*
X63451014Y-61989737D01*
X63869432Y-61722788D01*
X64285166Y-61468588D01*
X64672985Y-61242069D01*
X65007656Y-61058161D01*
X65263947Y-60931797D01*
X65416627Y-60877908D01*
X65445300Y-60881744D01*
X65428623Y-60968258D01*
X65364951Y-61201337D01*
X65258762Y-61566225D01*
X65114534Y-62048168D01*
X64936744Y-62632409D01*
X64729871Y-63304193D01*
X64498391Y-64048764D01*
X64246783Y-64851366D01*
X64086627Y-65359048D01*
X63819470Y-66207779D01*
X63565496Y-67022012D01*
X63329819Y-67784851D01*
X63117552Y-68479397D01*
X62933812Y-69088752D01*
X62783710Y-69596017D01*
X62672363Y-69984295D01*
X62604884Y-70236687D01*
X62589126Y-70307003D01*
X62557440Y-70885179D01*
X62686270Y-71410105D01*
X62974870Y-71879390D01*
X63131292Y-72047516D01*
X63542472Y-72341667D01*
X64059046Y-72553888D01*
X64634799Y-72677667D01*
X65223512Y-72706491D01*
X65778970Y-72633848D01*
X66204139Y-72480521D01*
X66600448Y-72206607D01*
X66984828Y-71814657D01*
X67313692Y-71352981D01*
X67448120Y-71101756D01*
X67522625Y-70918724D01*
X67633442Y-70613096D01*
X67773285Y-70207794D01*
X67934871Y-69725742D01*
X68110915Y-69189865D01*
X68294132Y-68623085D01*
X68477239Y-68048326D01*
X68652950Y-67488512D01*
X68813983Y-66966567D01*
X68953051Y-66505413D01*
X69062872Y-66127975D01*
X69136160Y-65857177D01*
X69165632Y-65715941D01*
X69164195Y-65701306D01*
X69063225Y-65674689D01*
X68861168Y-65656258D01*
X68811164Y-65654244D01*
X68495285Y-65644333D01*
X67845560Y-67731077D01*
X67655078Y-68336643D01*
X67466553Y-68924686D01*
X67290105Y-69464479D01*
X67135854Y-69925295D01*
X67013920Y-70276408D01*
X66953233Y-70440410D01*
X66647474Y-71054720D01*
X66269068Y-71518698D01*
X65821069Y-71830444D01*
X65306532Y-71988058D01*
X64728510Y-71989640D01*
X64519221Y-71954537D01*
X64013271Y-71782124D01*
X63640572Y-71506593D01*
X63405655Y-71134849D01*
X63313052Y-70673798D01*
X63356292Y-70182391D01*
X63403184Y-69994762D01*
X63494026Y-69673322D01*
X63623318Y-69235398D01*
X63785563Y-68698315D01*
X63975261Y-68079399D01*
X64186914Y-67395976D01*
X64415023Y-66665373D01*
X64654090Y-65904915D01*
X64898616Y-65131929D01*
X65143103Y-64363740D01*
X65382052Y-63617675D01*
X65609964Y-62911059D01*
X65821342Y-62261219D01*
X66010685Y-61685481D01*
X66172497Y-61201170D01*
X66301277Y-60825612D01*
X66391528Y-60576135D01*
X66437751Y-60470062D01*
X66439062Y-60468582D01*
X66622900Y-60357620D01*
X66946407Y-60229979D01*
X67381584Y-60092672D01*
X67900433Y-59952709D01*
X68474954Y-59817102D01*
X69077148Y-59692863D01*
X69679017Y-59587002D01*
X70252562Y-59506532D01*
X70305441Y-59500362D01*
X70909396Y-59454257D01*
X71626053Y-59436064D01*
X72402220Y-59444154D01*
D11*
G36*
X75453920Y-134163640D02*
G01*
X74893920Y-134163640D01*
X74893920Y-130163640D01*
X75453920Y-130163640D01*
X75453920Y-134163640D01*
X75453920Y-134163640D01*
G37*
G36*
X55133920Y-134163640D02*
G01*
X54573920Y-134163640D01*
X54573920Y-130163640D01*
X55133920Y-130163640D01*
X55133920Y-134163640D01*
X55133920Y-134163640D01*
G37*
G36*
X66563920Y-134163640D02*
G01*
X66003920Y-134163640D01*
X66003920Y-130163640D01*
X66563920Y-130163640D01*
X66563920Y-134163640D01*
X66563920Y-134163640D01*
G37*
G36*
X65293920Y-134163640D02*
G01*
X64733920Y-134163640D01*
X64733920Y-130163640D01*
X65293920Y-130163640D01*
X65293920Y-134163640D01*
X65293920Y-134163640D01*
G37*
G36*
X64023920Y-134163640D02*
G01*
X63463920Y-134163640D01*
X63463920Y-130163640D01*
X64023920Y-130163640D01*
X64023920Y-134163640D01*
X64023920Y-134163640D01*
G37*
G36*
X56403920Y-134163640D02*
G01*
X55843920Y-134163640D01*
X55843920Y-130163640D01*
X56403920Y-130163640D01*
X56403920Y-134163640D01*
X56403920Y-134163640D01*
G37*
G36*
X53863920Y-134163640D02*
G01*
X53303920Y-134163640D01*
X53303920Y-130163640D01*
X53863920Y-130163640D01*
X53863920Y-134163640D01*
X53863920Y-134163640D01*
G37*
G36*
X57673920Y-134163640D02*
G01*
X57113920Y-134163640D01*
X57113920Y-130163640D01*
X57673920Y-130163640D01*
X57673920Y-134163640D01*
X57673920Y-134163640D01*
G37*
G36*
X67833920Y-134163640D02*
G01*
X67273920Y-134163640D01*
X67273920Y-130163640D01*
X67833920Y-130163640D01*
X67833920Y-134163640D01*
X67833920Y-134163640D01*
G37*
G36*
X69103920Y-134163640D02*
G01*
X68543920Y-134163640D01*
X68543920Y-130163640D01*
X69103920Y-130163640D01*
X69103920Y-134163640D01*
X69103920Y-134163640D01*
G37*
G36*
X79263920Y-134163640D02*
G01*
X78703920Y-134163640D01*
X78703920Y-130163640D01*
X79263920Y-130163640D01*
X79263920Y-134163640D01*
X79263920Y-134163640D01*
G37*
G36*
X86883920Y-134163640D02*
G01*
X86323920Y-134163640D01*
X86323920Y-130163640D01*
X86883920Y-130163640D01*
X86883920Y-134163640D01*
X86883920Y-134163640D01*
G37*
G36*
X90693920Y-134163640D02*
G01*
X90133920Y-134163640D01*
X90133920Y-130163640D01*
X90693920Y-130163640D01*
X90693920Y-134163640D01*
X90693920Y-134163640D01*
G37*
G36*
X89423920Y-134163640D02*
G01*
X88863920Y-134163640D01*
X88863920Y-130163640D01*
X89423920Y-130163640D01*
X89423920Y-134163640D01*
X89423920Y-134163640D01*
G37*
G36*
X76723920Y-134163640D02*
G01*
X76163920Y-134163640D01*
X76163920Y-130163640D01*
X76723920Y-130163640D01*
X76723920Y-134163640D01*
X76723920Y-134163640D01*
G37*
G36*
X88153920Y-134163640D02*
G01*
X87593920Y-134163640D01*
X87593920Y-130163640D01*
X88153920Y-130163640D01*
X88153920Y-134163640D01*
X88153920Y-134163640D01*
G37*
G36*
X80533920Y-134163640D02*
G01*
X79973920Y-134163640D01*
X79973920Y-130163640D01*
X80533920Y-130163640D01*
X80533920Y-134163640D01*
X80533920Y-134163640D01*
G37*
G36*
X77993920Y-134163640D02*
G01*
X77433920Y-134163640D01*
X77433920Y-130163640D01*
X77993920Y-130163640D01*
X77993920Y-134163640D01*
X77993920Y-134163640D01*
G37*
G36*
X47513920Y-133150000D02*
G01*
X46953920Y-133150000D01*
X46953920Y-130150000D01*
X47513920Y-130150000D01*
X47513920Y-133150000D01*
X47513920Y-133150000D01*
G37*
G36*
X97043920Y-133150000D02*
G01*
X96483920Y-133150000D01*
X96483920Y-130150000D01*
X97043920Y-130150000D01*
X97043920Y-133150000D01*
X97043920Y-133150000D01*
G37*
G36*
X94260659Y-125788808D02*
G01*
X94658308Y-125953518D01*
X95016175Y-126192638D01*
X95320522Y-126496985D01*
X95559642Y-126854852D01*
X95724352Y-127252501D01*
X95808320Y-127674635D01*
X95808320Y-128105045D01*
X95724352Y-128527179D01*
X95559642Y-128924828D01*
X95320522Y-129282695D01*
X95016175Y-129587042D01*
X94658308Y-129826162D01*
X94260659Y-129990872D01*
X93838525Y-130074840D01*
X93408115Y-130074840D01*
X92985981Y-129990872D01*
X92588332Y-129826162D01*
X92230465Y-129587042D01*
X91926118Y-129282695D01*
X91686998Y-128924828D01*
X91522288Y-128527179D01*
X91438320Y-128105045D01*
X91438320Y-127674635D01*
X91522288Y-127252501D01*
X91686998Y-126854852D01*
X91926118Y-126496985D01*
X92230465Y-126192638D01*
X92588332Y-125953518D01*
X92985981Y-125788808D01*
X93408115Y-125704840D01*
X93838525Y-125704840D01*
X94260659Y-125788808D01*
X94260659Y-125788808D01*
G37*
G36*
X84090659Y-125788808D02*
G01*
X84488308Y-125953518D01*
X84846175Y-126192638D01*
X85150522Y-126496985D01*
X85389642Y-126854852D01*
X85554352Y-127252501D01*
X85638320Y-127674635D01*
X85638320Y-128105045D01*
X85554352Y-128527179D01*
X85389642Y-128924828D01*
X85150522Y-129282695D01*
X84846175Y-129587042D01*
X84488308Y-129826162D01*
X84090659Y-129990872D01*
X83668525Y-130074840D01*
X83238115Y-130074840D01*
X82815981Y-129990872D01*
X82418332Y-129826162D01*
X82060465Y-129587042D01*
X81756118Y-129282695D01*
X81516998Y-128924828D01*
X81352288Y-128527179D01*
X81268320Y-128105045D01*
X81268320Y-127674635D01*
X81352288Y-127252501D01*
X81516998Y-126854852D01*
X81756118Y-126496985D01*
X82060465Y-126192638D01*
X82418332Y-125953518D01*
X82815981Y-125788808D01*
X83238115Y-125704840D01*
X83668525Y-125704840D01*
X84090659Y-125788808D01*
X84090659Y-125788808D01*
G37*
G36*
X72650659Y-125788808D02*
G01*
X73048308Y-125953518D01*
X73406175Y-126192638D01*
X73710522Y-126496985D01*
X73949642Y-126854852D01*
X74114352Y-127252501D01*
X74198320Y-127674635D01*
X74198320Y-128105045D01*
X74114352Y-128527179D01*
X73949642Y-128924828D01*
X73710522Y-129282695D01*
X73406175Y-129587042D01*
X73048308Y-129826162D01*
X72650659Y-129990872D01*
X72228525Y-130074840D01*
X71798115Y-130074840D01*
X71375981Y-129990872D01*
X70978332Y-129826162D01*
X70620465Y-129587042D01*
X70316118Y-129282695D01*
X70076998Y-128924828D01*
X69912288Y-128527179D01*
X69828320Y-128105045D01*
X69828320Y-127674635D01*
X69912288Y-127252501D01*
X70076998Y-126854852D01*
X70316118Y-126496985D01*
X70620465Y-126192638D01*
X70978332Y-125953518D01*
X71375981Y-125788808D01*
X71798115Y-125704840D01*
X72228525Y-125704840D01*
X72650659Y-125788808D01*
X72650659Y-125788808D01*
G37*
G36*
X61210659Y-125788808D02*
G01*
X61608308Y-125953518D01*
X61966175Y-126192638D01*
X62270522Y-126496985D01*
X62509642Y-126854852D01*
X62674352Y-127252501D01*
X62758320Y-127674635D01*
X62758320Y-128105045D01*
X62674352Y-128527179D01*
X62509642Y-128924828D01*
X62270522Y-129282695D01*
X61966175Y-129587042D01*
X61608308Y-129826162D01*
X61210659Y-129990872D01*
X60788525Y-130074840D01*
X60358115Y-130074840D01*
X59935981Y-129990872D01*
X59538332Y-129826162D01*
X59180465Y-129587042D01*
X58876118Y-129282695D01*
X58636998Y-128924828D01*
X58472288Y-128527179D01*
X58388320Y-128105045D01*
X58388320Y-127674635D01*
X58472288Y-127252501D01*
X58636998Y-126854852D01*
X58876118Y-126496985D01*
X59180465Y-126192638D01*
X59538332Y-125953518D01*
X59935981Y-125788808D01*
X60358115Y-125704840D01*
X60788525Y-125704840D01*
X61210659Y-125788808D01*
X61210659Y-125788808D01*
G37*
G36*
X51040659Y-125788808D02*
G01*
X51438308Y-125953518D01*
X51796175Y-126192638D01*
X52100522Y-126496985D01*
X52339642Y-126854852D01*
X52504352Y-127252501D01*
X52588320Y-127674635D01*
X52588320Y-128105045D01*
X52504352Y-128527179D01*
X52339642Y-128924828D01*
X52100522Y-129282695D01*
X51796175Y-129587042D01*
X51438308Y-129826162D01*
X51040659Y-129990872D01*
X50618525Y-130074840D01*
X50188115Y-130074840D01*
X49765981Y-129990872D01*
X49368332Y-129826162D01*
X49010465Y-129587042D01*
X48706118Y-129282695D01*
X48466998Y-128924828D01*
X48302288Y-128527179D01*
X48218320Y-128105045D01*
X48218320Y-127674635D01*
X48302288Y-127252501D01*
X48466998Y-126854852D01*
X48706118Y-126496985D01*
X49010465Y-126192638D01*
X49368332Y-125953518D01*
X49765981Y-125788808D01*
X50188115Y-125704840D01*
X50618525Y-125704840D01*
X51040659Y-125788808D01*
X51040659Y-125788808D01*
G37*
G36*
X48530312Y-62010248D02*
G01*
X48633351Y-62030743D01*
X48778942Y-62091049D01*
X48909970Y-62178599D01*
X49021401Y-62290030D01*
X49108951Y-62421058D01*
X49169257Y-62566649D01*
X49169257Y-62566651D01*
X49200000Y-62721206D01*
X49200000Y-62878794D01*
X49189752Y-62930312D01*
X49169257Y-63033351D01*
X49108951Y-63178942D01*
X49021401Y-63309970D01*
X48909970Y-63421401D01*
X48778942Y-63508951D01*
X48633351Y-63569257D01*
X48536990Y-63588424D01*
X48478794Y-63600000D01*
X48321206Y-63600000D01*
X48263010Y-63588424D01*
X48166649Y-63569257D01*
X48021058Y-63508951D01*
X47890030Y-63421401D01*
X47778599Y-63309970D01*
X47691049Y-63178942D01*
X47630743Y-63033351D01*
X47610248Y-62930312D01*
X47600000Y-62878794D01*
X47600000Y-62721206D01*
X47630743Y-62566651D01*
X47630743Y-62566649D01*
X47691049Y-62421058D01*
X47778599Y-62290030D01*
X47890030Y-62178599D01*
X48021058Y-62091049D01*
X48166649Y-62030743D01*
X48269688Y-62010248D01*
X48321206Y-62000000D01*
X48478794Y-62000000D01*
X48530312Y-62010248D01*
X48530312Y-62010248D01*
G37*
G36*
X58716824Y-62011575D02*
G01*
X58867633Y-62057322D01*
X59006604Y-62131604D01*
X59128422Y-62231578D01*
X59228396Y-62353396D01*
X59302678Y-62492367D01*
X59348425Y-62643176D01*
X59363871Y-62800000D01*
X59348425Y-62956824D01*
X59302678Y-63107633D01*
X59228396Y-63246604D01*
X59128422Y-63368422D01*
X59006604Y-63468396D01*
X58867633Y-63542678D01*
X58716824Y-63588425D01*
X58599299Y-63600000D01*
X58520701Y-63600000D01*
X58403176Y-63588425D01*
X58252367Y-63542678D01*
X58113396Y-63468396D01*
X57991578Y-63368422D01*
X57891604Y-63246604D01*
X57817322Y-63107633D01*
X57771575Y-62956824D01*
X57756129Y-62800000D01*
X57771575Y-62643176D01*
X57817322Y-62492367D01*
X57891604Y-62353396D01*
X57991578Y-62231578D01*
X58113396Y-62131604D01*
X58252367Y-62057322D01*
X58403176Y-62011575D01*
X58520701Y-62000000D01*
X58599299Y-62000000D01*
X58716824Y-62011575D01*
X58716824Y-62011575D01*
G37*
G36*
X86133224Y-61811575D02*
G01*
X86284033Y-61857322D01*
X86423004Y-61931604D01*
X86544822Y-62031578D01*
X86644796Y-62153396D01*
X86719078Y-62292367D01*
X86764825Y-62443176D01*
X86780271Y-62600000D01*
X86764825Y-62756824D01*
X86719078Y-62907633D01*
X86644796Y-63046604D01*
X86544822Y-63168422D01*
X86423004Y-63268396D01*
X86284033Y-63342678D01*
X86133224Y-63388425D01*
X86015699Y-63400000D01*
X85937101Y-63400000D01*
X85819576Y-63388425D01*
X85668767Y-63342678D01*
X85529796Y-63268396D01*
X85407978Y-63168422D01*
X85308004Y-63046604D01*
X85233722Y-62907633D01*
X85187975Y-62756824D01*
X85172529Y-62600000D01*
X85187975Y-62443176D01*
X85233722Y-62292367D01*
X85308004Y-62153396D01*
X85407978Y-62031578D01*
X85529796Y-61931604D01*
X85668767Y-61857322D01*
X85819576Y-61811575D01*
X85937101Y-61800000D01*
X86015699Y-61800000D01*
X86133224Y-61811575D01*
X86133224Y-61811575D01*
G37*
G36*
X96266712Y-61810248D02*
G01*
X96369751Y-61830743D01*
X96515342Y-61891049D01*
X96646370Y-61978599D01*
X96757801Y-62090030D01*
X96845351Y-62221058D01*
X96905657Y-62366649D01*
X96905657Y-62366651D01*
X96936400Y-62521206D01*
X96936400Y-62678794D01*
X96926152Y-62730312D01*
X96905657Y-62833351D01*
X96845351Y-62978942D01*
X96757801Y-63109970D01*
X96646370Y-63221401D01*
X96515342Y-63308951D01*
X96369751Y-63369257D01*
X96273390Y-63388424D01*
X96215194Y-63400000D01*
X96057606Y-63400000D01*
X95999410Y-63388424D01*
X95903049Y-63369257D01*
X95757458Y-63308951D01*
X95626430Y-63221401D01*
X95514999Y-63109970D01*
X95427449Y-62978942D01*
X95367143Y-62833351D01*
X95346648Y-62730312D01*
X95336400Y-62678794D01*
X95336400Y-62521206D01*
X95367143Y-62366651D01*
X95367143Y-62366649D01*
X95427449Y-62221058D01*
X95514999Y-62090030D01*
X95626430Y-61978599D01*
X95757458Y-61891049D01*
X95903049Y-61830743D01*
X96006088Y-61810248D01*
X96057606Y-61800000D01*
X96215194Y-61800000D01*
X96266712Y-61810248D01*
X96266712Y-61810248D01*
G37*
G36*
X91636400Y-59900000D02*
G01*
X89836400Y-59900000D01*
X89836400Y-58100000D01*
X91636400Y-58100000D01*
X91636400Y-59900000D01*
X91636400Y-59900000D01*
G37*
G36*
X54700000Y-59900000D02*
G01*
X52900000Y-59900000D01*
X52900000Y-58100000D01*
X54700000Y-58100000D01*
X54700000Y-59900000D01*
X54700000Y-59900000D01*
G37*
G36*
X90911981Y-55577293D02*
G01*
X90998920Y-55594586D01*
X91162710Y-55662430D01*
X91162712Y-55662431D01*
X91236414Y-55711677D01*
X91310117Y-55760924D01*
X91435476Y-55886283D01*
X91533970Y-56033690D01*
X91601814Y-56197480D01*
X91601814Y-56197482D01*
X91636400Y-56371356D01*
X91636400Y-56548644D01*
X91619107Y-56635581D01*
X91601814Y-56722520D01*
X91533970Y-56886310D01*
X91435476Y-57033717D01*
X91310117Y-57159076D01*
X91236413Y-57208323D01*
X91162712Y-57257569D01*
X91162711Y-57257570D01*
X91162710Y-57257570D01*
X90998920Y-57325414D01*
X90911981Y-57342707D01*
X90825044Y-57360000D01*
X90647756Y-57360000D01*
X90560819Y-57342707D01*
X90473880Y-57325414D01*
X90310090Y-57257570D01*
X90310089Y-57257570D01*
X90310088Y-57257569D01*
X90236387Y-57208323D01*
X90162683Y-57159076D01*
X90037324Y-57033717D01*
X89938830Y-56886310D01*
X89870986Y-56722520D01*
X89853693Y-56635581D01*
X89836400Y-56548644D01*
X89836400Y-56371356D01*
X89870986Y-56197482D01*
X89870986Y-56197480D01*
X89938830Y-56033690D01*
X90037324Y-55886283D01*
X90162683Y-55760924D01*
X90236386Y-55711677D01*
X90310088Y-55662431D01*
X90310090Y-55662430D01*
X90473880Y-55594586D01*
X90560819Y-55577293D01*
X90647756Y-55560000D01*
X90825044Y-55560000D01*
X90911981Y-55577293D01*
X90911981Y-55577293D01*
G37*
G36*
X53975581Y-55577293D02*
G01*
X54062520Y-55594586D01*
X54226310Y-55662430D01*
X54226312Y-55662431D01*
X54300014Y-55711677D01*
X54373717Y-55760924D01*
X54499076Y-55886283D01*
X54597570Y-56033690D01*
X54665414Y-56197480D01*
X54665414Y-56197482D01*
X54700000Y-56371356D01*
X54700000Y-56548644D01*
X54682707Y-56635581D01*
X54665414Y-56722520D01*
X54597570Y-56886310D01*
X54499076Y-57033717D01*
X54373717Y-57159076D01*
X54300013Y-57208323D01*
X54226312Y-57257569D01*
X54226311Y-57257570D01*
X54226310Y-57257570D01*
X54062520Y-57325414D01*
X53975581Y-57342707D01*
X53888644Y-57360000D01*
X53711356Y-57360000D01*
X53624419Y-57342707D01*
X53537480Y-57325414D01*
X53373690Y-57257570D01*
X53373689Y-57257570D01*
X53373688Y-57257569D01*
X53299987Y-57208323D01*
X53226283Y-57159076D01*
X53100924Y-57033717D01*
X53002430Y-56886310D01*
X52934586Y-56722520D01*
X52917293Y-56635581D01*
X52900000Y-56548644D01*
X52900000Y-56371356D01*
X52934586Y-56197482D01*
X52934586Y-56197480D01*
X53002430Y-56033690D01*
X53100924Y-55886283D01*
X53226283Y-55760924D01*
X53299986Y-55711677D01*
X53373688Y-55662431D01*
X53373690Y-55662430D01*
X53537480Y-55594586D01*
X53624419Y-55577293D01*
X53711356Y-55560000D01*
X53888644Y-55560000D01*
X53975581Y-55577293D01*
X53975581Y-55577293D01*
G37*
G36*
X72350215Y-52377541D02*
G01*
X72627132Y-52432623D01*
X73018407Y-52594695D01*
X73370545Y-52829986D01*
X73670014Y-53129455D01*
X73905305Y-53481593D01*
X74067377Y-53872868D01*
X74150000Y-54288243D01*
X74150000Y-54711757D01*
X74067377Y-55127132D01*
X73905305Y-55518407D01*
X73670014Y-55870545D01*
X73370545Y-56170014D01*
X73018407Y-56405305D01*
X72627132Y-56567377D01*
X72350215Y-56622459D01*
X72211758Y-56650000D01*
X71788242Y-56650000D01*
X71649785Y-56622459D01*
X71372868Y-56567377D01*
X70981593Y-56405305D01*
X70629455Y-56170014D01*
X70329986Y-55870545D01*
X70094695Y-55518407D01*
X69932623Y-55127132D01*
X69850000Y-54711757D01*
X69850000Y-54288243D01*
X69932623Y-53872868D01*
X70094695Y-53481593D01*
X70329986Y-53129455D01*
X70629455Y-52829986D01*
X70981593Y-52594695D01*
X71372868Y-52432623D01*
X71649785Y-52377541D01*
X71788242Y-52350000D01*
X72211758Y-52350000D01*
X72350215Y-52377541D01*
X72350215Y-52377541D01*
G37*
M02*
