%TF.GenerationSoftware,KiCad,Pcbnew,(5.1.2)-2*%
%TF.CreationDate,2019-08-12T12:17:33+02:00*%
%TF.ProjectId,badge,62616467-652e-46b6-9963-61645f706362,1*%
%TF.SameCoordinates,Original*%
%TF.FileFunction,Legend,Bot*%
%TF.FilePolarity,Positive*%
%FSLAX46Y46*%
G04 Gerber Fmt 4.6, Leading zero omitted, Abs format (unit mm)*
G04 Created by KiCad (PCBNEW (5.1.2)-2) date 2019-08-12 12:17:33*
%MOMM*%
%LPD*%
G04 APERTURE LIST*
%ADD10C,0.304800*%
%ADD11C,0.038100*%
%ADD12C,0.152400*%
%ADD13C,0.200000*%
G04 APERTURE END LIST*
D10*
X96911142Y-66488000D02*
X97056285Y-66415428D01*
X97274000Y-66415428D01*
X97491714Y-66488000D01*
X97636857Y-66633142D01*
X97709428Y-66778285D01*
X97782000Y-67068571D01*
X97782000Y-67286285D01*
X97709428Y-67576571D01*
X97636857Y-67721714D01*
X97491714Y-67866857D01*
X97274000Y-67939428D01*
X97128857Y-67939428D01*
X96911142Y-67866857D01*
X96838571Y-67794285D01*
X96838571Y-67286285D01*
X97128857Y-67286285D01*
X96185428Y-67939428D02*
X96185428Y-66415428D01*
X95314571Y-67939428D01*
X95314571Y-66415428D01*
X94588857Y-67939428D02*
X94588857Y-66415428D01*
X94226000Y-66415428D01*
X94008285Y-66488000D01*
X93863142Y-66633142D01*
X93790571Y-66778285D01*
X93718000Y-67068571D01*
X93718000Y-67286285D01*
X93790571Y-67576571D01*
X93863142Y-67721714D01*
X94008285Y-67866857D01*
X94226000Y-67939428D01*
X94588857Y-67939428D01*
X50032000Y-65915428D02*
X49524000Y-67439428D01*
X49016000Y-65915428D01*
X47637142Y-67294285D02*
X47709714Y-67366857D01*
X47927428Y-67439428D01*
X48072571Y-67439428D01*
X48290285Y-67366857D01*
X48435428Y-67221714D01*
X48508000Y-67076571D01*
X48580571Y-66786285D01*
X48580571Y-66568571D01*
X48508000Y-66278285D01*
X48435428Y-66133142D01*
X48290285Y-65988000D01*
X48072571Y-65915428D01*
X47927428Y-65915428D01*
X47709714Y-65988000D01*
X47637142Y-66060571D01*
X46113142Y-67294285D02*
X46185714Y-67366857D01*
X46403428Y-67439428D01*
X46548571Y-67439428D01*
X46766285Y-67366857D01*
X46911428Y-67221714D01*
X46984000Y-67076571D01*
X47056571Y-66786285D01*
X47056571Y-66568571D01*
X46984000Y-66278285D01*
X46911428Y-66133142D01*
X46766285Y-65988000D01*
X46548571Y-65915428D01*
X46403428Y-65915428D01*
X46185714Y-65988000D01*
X46113142Y-66060571D01*
D11*
X45760000Y-54640000D02*
G75*
G02X50400000Y-50000000I4640000J0D01*
G01*
X93570000Y-50000000D02*
G75*
G02X98210000Y-54640000I0J-4640000D01*
G01*
X98220000Y-130190000D02*
G75*
G02X93580000Y-134830000I-4640000J0D01*
G01*
X50390000Y-134830000D02*
G75*
G02X45750000Y-130190000I0J4640000D01*
G01*
D12*
X92003759Y-53410515D02*
X91732825Y-54223315D01*
X91461892Y-53410515D01*
X90842616Y-54184610D02*
X90920025Y-54223315D01*
X91074844Y-54223315D01*
X91152254Y-54184610D01*
X91190959Y-54145905D01*
X91229663Y-54068496D01*
X91229663Y-53836267D01*
X91190959Y-53758858D01*
X91152254Y-53720153D01*
X91074844Y-53681448D01*
X90920025Y-53681448D01*
X90842616Y-53720153D01*
X90145930Y-54184610D02*
X90223340Y-54223315D01*
X90378159Y-54223315D01*
X90455568Y-54184610D01*
X90494273Y-54145905D01*
X90532978Y-54068496D01*
X90532978Y-53836267D01*
X90494273Y-53758858D01*
X90455568Y-53720153D01*
X90378159Y-53681448D01*
X90223340Y-53681448D01*
X90145930Y-53720153D01*
X54132359Y-53527355D02*
X53861425Y-54340155D01*
X53590492Y-53527355D01*
X52971216Y-54301450D02*
X53048625Y-54340155D01*
X53203444Y-54340155D01*
X53280854Y-54301450D01*
X53319559Y-54262745D01*
X53358263Y-54185336D01*
X53358263Y-53953107D01*
X53319559Y-53875698D01*
X53280854Y-53836993D01*
X53203444Y-53798288D01*
X53048625Y-53798288D01*
X52971216Y-53836993D01*
X52274530Y-54301450D02*
X52351940Y-54340155D01*
X52506759Y-54340155D01*
X52584168Y-54301450D01*
X52622873Y-54262745D01*
X52661578Y-54185336D01*
X52661578Y-53953107D01*
X52622873Y-53875698D01*
X52584168Y-53836993D01*
X52506759Y-53798288D01*
X52351940Y-53798288D01*
X52274530Y-53836993D01*
D10*
X94802142Y-119469000D02*
X94947285Y-119396428D01*
X95165000Y-119396428D01*
X95382714Y-119469000D01*
X95527857Y-119614142D01*
X95600428Y-119759285D01*
X95673000Y-120049571D01*
X95673000Y-120267285D01*
X95600428Y-120557571D01*
X95527857Y-120702714D01*
X95382714Y-120847857D01*
X95165000Y-120920428D01*
X95019857Y-120920428D01*
X94802142Y-120847857D01*
X94729571Y-120775285D01*
X94729571Y-120267285D01*
X95019857Y-120267285D01*
X94076428Y-120920428D02*
X94076428Y-119396428D01*
X93205571Y-120920428D01*
X93205571Y-119396428D01*
X92479857Y-120920428D02*
X92479857Y-119396428D01*
X92117000Y-119396428D01*
X91899285Y-119469000D01*
X91754142Y-119614142D01*
X91681571Y-119759285D01*
X91609000Y-120049571D01*
X91609000Y-120267285D01*
X91681571Y-120557571D01*
X91754142Y-120702714D01*
X91899285Y-120847857D01*
X92117000Y-120920428D01*
X92479857Y-120920428D01*
X85513000Y-119523428D02*
X85005000Y-121047428D01*
X84497000Y-119523428D01*
X83118142Y-120902285D02*
X83190714Y-120974857D01*
X83408428Y-121047428D01*
X83553571Y-121047428D01*
X83771285Y-120974857D01*
X83916428Y-120829714D01*
X83989000Y-120684571D01*
X84061571Y-120394285D01*
X84061571Y-120176571D01*
X83989000Y-119886285D01*
X83916428Y-119741142D01*
X83771285Y-119596000D01*
X83553571Y-119523428D01*
X83408428Y-119523428D01*
X83190714Y-119596000D01*
X83118142Y-119668571D01*
X81594142Y-120902285D02*
X81666714Y-120974857D01*
X81884428Y-121047428D01*
X82029571Y-121047428D01*
X82247285Y-120974857D01*
X82392428Y-120829714D01*
X82465000Y-120684571D01*
X82537571Y-120394285D01*
X82537571Y-120176571D01*
X82465000Y-119886285D01*
X82392428Y-119741142D01*
X82247285Y-119596000D01*
X82029571Y-119523428D01*
X81884428Y-119523428D01*
X81666714Y-119596000D01*
X81594142Y-119668571D01*
D11*
X45760000Y-54640000D02*
X45750000Y-130190000D01*
X93570000Y-50000000D02*
X50400000Y-50000000D01*
X98220000Y-130190000D02*
X98210000Y-54640000D01*
X50390000Y-134830000D02*
X93580000Y-134830000D01*
D13*
X60460000Y-91250000D02*
X60460000Y-86170000D01*
X56650000Y-91250000D02*
X60460000Y-91250000D01*
X56650000Y-86170000D02*
X56650000Y-91250000D01*
X60460000Y-86170000D02*
X56650000Y-86170000D01*
X60460000Y-84900000D02*
X60460000Y-86170000D01*
X56650000Y-84900000D02*
X60460000Y-84900000D01*
X56650000Y-86170000D02*
X56650000Y-84900000D01*
X56650000Y-92520000D02*
X56650000Y-91250000D01*
X60460000Y-92520000D02*
X56650000Y-92520000D01*
X60460000Y-91250000D02*
X60460000Y-92520000D01*
X57285000Y-86170000D02*
X56650000Y-86805000D01*
X57285000Y-84900000D02*
X56650000Y-85535000D01*
X75700000Y-91250000D02*
X75700000Y-86170000D01*
X71890000Y-91250000D02*
X75700000Y-91250000D01*
X71890000Y-86170000D02*
X71890000Y-91250000D01*
X75700000Y-86170000D02*
X71890000Y-86170000D01*
X75700000Y-84900000D02*
X75700000Y-86170000D01*
X71890000Y-84900000D02*
X75700000Y-84900000D01*
X71890000Y-86170000D02*
X71890000Y-84900000D01*
X71890000Y-92520000D02*
X71890000Y-91250000D01*
X75700000Y-92520000D02*
X71890000Y-92520000D01*
X75700000Y-91250000D02*
X75700000Y-92520000D01*
X72525000Y-86170000D02*
X71890000Y-86805000D01*
X72525000Y-84900000D02*
X71890000Y-85535000D01*
X56650000Y-91250000D02*
X56650000Y-86170000D01*
X52840000Y-91250000D02*
X56650000Y-91250000D01*
X52840000Y-86170000D02*
X52840000Y-91250000D01*
X56650000Y-86170000D02*
X52840000Y-86170000D01*
X56650000Y-84900000D02*
X56650000Y-86170000D01*
X52840000Y-84900000D02*
X56650000Y-84900000D01*
X52840000Y-86170000D02*
X52840000Y-84900000D01*
X52840000Y-92520000D02*
X52840000Y-91250000D01*
X56650000Y-92520000D02*
X52840000Y-92520000D01*
X56650000Y-91250000D02*
X56650000Y-92520000D01*
X53475000Y-86170000D02*
X52840000Y-86805000D01*
X53475000Y-84900000D02*
X52840000Y-85535000D01*
X94750000Y-91250000D02*
X94750000Y-86170000D01*
X90940000Y-91250000D02*
X94750000Y-91250000D01*
X90940000Y-86170000D02*
X90940000Y-91250000D01*
X94750000Y-86170000D02*
X90940000Y-86170000D01*
X94750000Y-84900000D02*
X94750000Y-86170000D01*
X90940000Y-84900000D02*
X94750000Y-84900000D01*
X90940000Y-86170000D02*
X90940000Y-84900000D01*
X90940000Y-92520000D02*
X90940000Y-91250000D01*
X94750000Y-92520000D02*
X90940000Y-92520000D01*
X94750000Y-91250000D02*
X94750000Y-92520000D01*
X91575000Y-86170000D02*
X90940000Y-86805000D01*
X91575000Y-84900000D02*
X90940000Y-85535000D01*
X87130000Y-91250000D02*
X87130000Y-86170000D01*
X83320000Y-91250000D02*
X87130000Y-91250000D01*
X83320000Y-86170000D02*
X83320000Y-91250000D01*
X87130000Y-86170000D02*
X83320000Y-86170000D01*
X87130000Y-84900000D02*
X87130000Y-86170000D01*
X83320000Y-84900000D02*
X87130000Y-84900000D01*
X83320000Y-86170000D02*
X83320000Y-84900000D01*
X83320000Y-92520000D02*
X83320000Y-91250000D01*
X87130000Y-92520000D02*
X83320000Y-92520000D01*
X87130000Y-91250000D02*
X87130000Y-92520000D01*
X83955000Y-86170000D02*
X83320000Y-86805000D01*
X83955000Y-84900000D02*
X83320000Y-85535000D01*
X79510000Y-91250000D02*
X79510000Y-86170000D01*
X75700000Y-91250000D02*
X79510000Y-91250000D01*
X75700000Y-86170000D02*
X75700000Y-91250000D01*
X79510000Y-86170000D02*
X75700000Y-86170000D01*
X79510000Y-84900000D02*
X79510000Y-86170000D01*
X75700000Y-84900000D02*
X79510000Y-84900000D01*
X75700000Y-86170000D02*
X75700000Y-84900000D01*
X75700000Y-92520000D02*
X75700000Y-91250000D01*
X79510000Y-92520000D02*
X75700000Y-92520000D01*
X79510000Y-91250000D02*
X79510000Y-92520000D01*
X76335000Y-86170000D02*
X75700000Y-86805000D01*
X76335000Y-84900000D02*
X75700000Y-85535000D01*
X90940000Y-91250000D02*
X90940000Y-86170000D01*
X87130000Y-91250000D02*
X90940000Y-91250000D01*
X87130000Y-86170000D02*
X87130000Y-91250000D01*
X90940000Y-86170000D02*
X87130000Y-86170000D01*
X90940000Y-84900000D02*
X90940000Y-86170000D01*
X87130000Y-84900000D02*
X90940000Y-84900000D01*
X87130000Y-86170000D02*
X87130000Y-84900000D01*
X87130000Y-92520000D02*
X87130000Y-91250000D01*
X90940000Y-92520000D02*
X87130000Y-92520000D01*
X90940000Y-91250000D02*
X90940000Y-92520000D01*
X87765000Y-86170000D02*
X87130000Y-86805000D01*
X87765000Y-84900000D02*
X87130000Y-85535000D01*
X52840000Y-91250000D02*
X52840000Y-86170000D01*
X49030000Y-91250000D02*
X52840000Y-91250000D01*
X49030000Y-86170000D02*
X49030000Y-91250000D01*
X52840000Y-86170000D02*
X49030000Y-86170000D01*
X52840000Y-84900000D02*
X52840000Y-86170000D01*
X49030000Y-84900000D02*
X52840000Y-84900000D01*
X49030000Y-86170000D02*
X49030000Y-84900000D01*
X49030000Y-92520000D02*
X49030000Y-91250000D01*
X52840000Y-92520000D02*
X49030000Y-92520000D01*
X52840000Y-91250000D02*
X52840000Y-92520000D01*
X49665000Y-86170000D02*
X49030000Y-86805000D01*
X49665000Y-84900000D02*
X49030000Y-85535000D01*
X71890000Y-91250000D02*
X71890000Y-86170000D01*
X68080000Y-91250000D02*
X71890000Y-91250000D01*
X68080000Y-86170000D02*
X68080000Y-91250000D01*
X71890000Y-86170000D02*
X68080000Y-86170000D01*
X71890000Y-84900000D02*
X71890000Y-86170000D01*
X68080000Y-84900000D02*
X71890000Y-84900000D01*
X68080000Y-86170000D02*
X68080000Y-84900000D01*
X68080000Y-92520000D02*
X68080000Y-91250000D01*
X71890000Y-92520000D02*
X68080000Y-92520000D01*
X71890000Y-91250000D02*
X71890000Y-92520000D01*
X68715000Y-86170000D02*
X68080000Y-86805000D01*
X68715000Y-84900000D02*
X68080000Y-85535000D01*
X68080000Y-91250000D02*
X68080000Y-86170000D01*
X64270000Y-91250000D02*
X68080000Y-91250000D01*
X64270000Y-86170000D02*
X64270000Y-91250000D01*
X68080000Y-86170000D02*
X64270000Y-86170000D01*
X68080000Y-84900000D02*
X68080000Y-86170000D01*
X64270000Y-84900000D02*
X68080000Y-84900000D01*
X64270000Y-86170000D02*
X64270000Y-84900000D01*
X64270000Y-92520000D02*
X64270000Y-91250000D01*
X68080000Y-92520000D02*
X64270000Y-92520000D01*
X68080000Y-91250000D02*
X68080000Y-92520000D01*
X64905000Y-86170000D02*
X64270000Y-86805000D01*
X64905000Y-84900000D02*
X64270000Y-85535000D01*
X64270000Y-91250000D02*
X64270000Y-86170000D01*
X60460000Y-91250000D02*
X64270000Y-91250000D01*
X60460000Y-86170000D02*
X60460000Y-91250000D01*
X64270000Y-86170000D02*
X60460000Y-86170000D01*
X64270000Y-84900000D02*
X64270000Y-86170000D01*
X60460000Y-84900000D02*
X64270000Y-84900000D01*
X60460000Y-86170000D02*
X60460000Y-84900000D01*
X60460000Y-92520000D02*
X60460000Y-91250000D01*
X64270000Y-92520000D02*
X60460000Y-92520000D01*
X64270000Y-91250000D02*
X64270000Y-92520000D01*
X61095000Y-86170000D02*
X60460000Y-86805000D01*
X61095000Y-84900000D02*
X60460000Y-85535000D01*
X83320000Y-91250000D02*
X83320000Y-86170000D01*
X79510000Y-91250000D02*
X83320000Y-91250000D01*
X79510000Y-86170000D02*
X79510000Y-91250000D01*
X83320000Y-86170000D02*
X79510000Y-86170000D01*
X83320000Y-84900000D02*
X83320000Y-86170000D01*
X79510000Y-84900000D02*
X83320000Y-84900000D01*
X79510000Y-86170000D02*
X79510000Y-84900000D01*
X79510000Y-92520000D02*
X79510000Y-91250000D01*
X83320000Y-92520000D02*
X79510000Y-92520000D01*
X83320000Y-91250000D02*
X83320000Y-92520000D01*
X80145000Y-86170000D02*
X79510000Y-86805000D01*
X80145000Y-84900000D02*
X79510000Y-85535000D01*
M02*
