M48
; DRILL file {KiCad (5.1.2)-2} date 12/08/2019 12:12:07
; FORMAT={-:-/ absolute / inch / decimal}
; #@! TF.CreationDate,2019-08-12T12:12:07+02:00
; #@! TF.GenerationSoftware,Kicad,Pcbnew,(5.1.2)-2
FMAT,2
INCH
T1C0.0118
T2C0.0315
T3C0.0354
T4C0.1378
T5C0.1693
%
G90
G05
T1
X1.8291Y-4.3913
X1.8299Y-4.4331
X1.8307Y-2.687
X1.8799Y-2.687
X3.1693Y-4.7638
X3.1693Y-4.8228
X3.4055Y-4.7638
X3.4055Y-4.8228
T2
X3.3849Y-2.4646
X3.7849Y-2.4646
X1.9055Y-2.4724
X2.3055Y-2.4724
T3
X2.1181Y-2.2228
X2.1181Y-2.3228
X3.5723Y-2.2228
X3.5723Y-2.3228
T4
X1.9844Y-5.035
X2.3848Y-5.035
X2.8352Y-5.035
X3.2856Y-5.035
X3.686Y-5.035
T5
X2.8346Y-2.1457
T0
M30
