M48
; DRILL file {KiCad (5.1.4)-1} date 24/07/2024 14:31:25
; FORMAT={-:-/ absolute / metric / decimal}
; #@! TF.CreationDate,2024-07-24T14:31:25+02:00
; #@! TF.GenerationSoftware,Kicad,Pcbnew,(5.1.4)-1
; #@! TF.FileFunction,Plated,1,2,PTH
FMAT,2
METRIC
T1C0.300
T2C0.800
T3C0.900
T4C3.500
%
G90
G05
T1
X46.46Y-111.54
X46.48Y-112.6
X46.5Y-68.25
X47.75Y-68.25
X80.5Y-121.0
X80.5Y-122.5
X86.5Y-121.0
X86.5Y-122.5
T2
X85.976Y-62.6
X96.136Y-62.6
X48.4Y-62.8
X58.56Y-62.8
T3
X53.8Y-56.46
X53.8Y-59.0
X90.736Y-56.46
X90.736Y-59.0
T4
X50.403Y-127.89
X60.573Y-127.89
X72.013Y-127.89
X83.453Y-127.89
X93.623Y-127.89
T0
M30
